{"glyphs":{"0":{"ha":985,"x_min":38,"x_max":944,"o":"m 564 1054 q 712 1024 643 1054 q 833 943 781 994 q 915 822 885 892 q 944 674 944 753 l 944 367 q 913 215 944 286 q 829 90 882 143 q 705 5 776 36 q 554 -26 633 -26 l 442 -26 q 285 6 358 -26 q 157 93 213 38 q 69 223 101 149 q 38 382 38 297 l 38 665 q 69 817 38 746 q 153 941 100 889 q 276 1024 206 993 q 426 1054 347 1054 l 564 1054 m 825 674 q 804 777 825 729 q 748 860 783 825 q 665 916 713 896 q 564 936 618 936 l 426 936 q 322 915 371 936 q 235 857 272 893 q 177 771 199 821 q 156 665 156 721 l 156 382 q 178 269 156 322 q 239 177 200 217 q 330 115 278 138 q 442 92 382 92 l 554 92 q 660 113 610 92 q 746 172 710 135 q 803 260 782 210 q 825 367 825 310 l 825 674 z "},"1":{"ha":444,"x_min":38,"x_max":422,"o":"m 38 1054 l 422 1054 l 422 -26 l 303 -26 l 303 936 l 38 936 l 38 1054 z "},"2":{"ha":908,"x_min":38,"x_max":869,"o":"m 265 92 l 869 92 l 869 -26 l 49 -26 l 49 40 l 651 653 q 711 746 694 696 q 715 838 728 796 q 662 908 703 881 q 549 936 621 936 l 156 936 l 156 682 l 38 682 l 38 1054 l 549 1054 q 724 1007 654 1054 q 822 889 794 960 q 832 735 850 818 q 743 579 814 651 l 265 92 z "},"3":{"ha":928,"x_min":38,"x_max":893,"o":"m 719 546 q 795 481 761 518 q 852 401 829 444 q 884 307 875 357 q 882 204 893 257 q 845 110 871 153 q 783 38 819 68 q 701 -10 747 7 q 604 -26 656 -26 l 38 -26 l 38 92 l 604 92 q 673 106 643 92 q 724 144 703 121 q 756 197 744 168 q 768 253 767 225 q 735 375 776 319 q 619 467 694 431 l 268 467 l 268 585 l 604 585 q 651 644 625 610 q 695 716 676 678 q 719 793 714 754 q 707 868 725 832 q 564 936 672 936 l 38 936 l 38 1054 l 564 1054 q 715 1021 649 1054 q 813 921 781 988 q 828 754 850 843 q 719 546 807 665 z "},"4":{"ha":921,"x_min":38,"x_max":882,"o":"m 764 1054 l 882 1054 l 882 -26 l 764 -26 l 764 281 l 379 281 q 247 306 310 281 q 138 376 185 332 q 65 479 92 419 q 38 606 38 539 l 38 1054 l 156 1054 l 156 606 q 174 525 156 563 q 222 460 192 488 q 292 416 251 432 q 379 400 333 400 l 764 400 l 764 1054 z "},"5":{"ha":954,"x_min":38,"x_max":917,"o":"m 679 572 q 775 520 731 551 q 851 448 819 489 q 900 356 883 407 q 913 247 917 306 q 886 139 910 189 q 823 53 863 89 q 731 -4 783 17 q 618 -26 678 -25 l 38 -26 l 38 92 l 618 92 q 685 104 653 92 q 740 138 717 117 q 778 188 764 160 q 796 249 793 217 q 791 305 797 275 q 767 363 785 335 q 717 417 749 392 q 636 460 685 442 l 88 668 l 88 1054 l 892 1054 l 892 936 l 206 936 l 206 753 l 679 572 z "},"6":{"ha":958,"x_min":38,"x_max":918,"o":"m 622 776 q 738 756 683 776 q 832 698 792 735 q 895 612 872 661 q 918 506 918 563 l 918 367 q 884 215 918 286 q 791 90 850 143 q 653 5 732 36 q 486 -26 575 -26 q 310 6 392 -26 q 168 95 229 39 q 72 226 107 151 q 38 385 38 300 l 38 665 q 70 817 38 746 q 159 941 103 889 q 290 1024 215 993 q 449 1054 364 1054 l 649 1054 l 649 936 l 449 936 q 290 891 361 936 q 185 776 219 846 l 622 776 m 800 506 q 786 564 800 536 q 748 613 772 592 q 691 646 724 633 q 622 658 658 658 l 156 658 l 156 385 q 182 272 156 325 q 253 178 208 218 q 358 115 297 139 q 486 92 418 92 q 608 113 551 92 q 708 172 665 135 q 776 260 751 210 q 800 367 800 310 l 800 506 z "},"7":{"ha":940,"x_min":38,"x_max":903,"o":"m 768 892 q 733 924 756 913 q 685 936 711 936 l 38 936 l 38 1054 l 685 1054 q 790 1028 740 1054 q 868 954 840 1001 q 900 853 897 907 q 881 747 903 800 l 514 -26 l 385 -26 l 774 800 q 783 847 785 822 q 768 892 782 871 z "},"8":{"ha":958,"x_min":40,"x_max":918,"o":"m 764 781 q 749 689 764 732 q 706 610 733 646 q 791 575 751 599 q 858 519 831 551 q 902 449 886 488 q 918 369 918 411 l 918 338 q 884 197 918 263 q 791 81 850 131 q 653 3 732 32 q 486 -26 575 -26 q 313 3 394 -26 q 172 85 232 33 q 76 206 111 138 q 40 354 40 275 l 40 372 q 58 460 40 419 q 107 533 76 501 q 178 587 138 565 q 264 617 218 608 q 225 693 239 651 q 211 781 211 735 q 233 886 211 836 q 292 974 254 936 q 379 1033 329 1011 q 486 1054 429 1054 q 595 1033 544 1054 q 683 974 646 1011 q 742 886 721 936 q 764 781 764 836 m 800 369 q 786 422 800 397 q 748 464 772 446 q 691 492 724 482 q 622 503 658 503 l 308 503 q 251 492 278 503 q 203 464 224 482 q 170 422 182 446 q 158 372 158 399 l 158 353 q 184 251 158 299 q 254 169 210 204 q 358 113 299 133 q 486 92 418 92 q 608 111 551 92 q 708 164 665 131 q 776 242 751 197 q 800 338 800 288 l 800 369 m 331 781 q 342 719 331 747 q 375 668 354 690 q 424 633 396 646 q 486 621 453 621 q 548 633 519 621 q 598 668 576 646 q 632 719 619 690 q 644 781 644 747 q 632 841 644 813 q 598 890 619 869 q 548 924 576 911 q 486 936 519 936 q 424 924 453 936 q 375 890 396 911 q 342 841 354 869 q 331 781 331 813 z "},"9":{"ha":890,"x_min":38,"x_max":853,"o":"m 436 1054 q 599 1024 524 1054 q 731 943 675 994 q 820 823 788 892 q 853 676 853 754 l 853 -26 l 735 -26 l 735 343 l 313 343 q 206 363 256 343 q 118 417 156 383 q 59 497 81 451 q 38 596 38 543 l 38 692 q 69 834 38 768 q 156 949 101 900 q 282 1026 210 997 q 436 1054 354 1054 m 735 676 q 711 778 735 731 q 647 860 688 825 q 553 916 607 896 q 436 936 499 936 q 327 917 378 936 q 238 864 276 897 q 178 786 200 831 q 156 692 156 742 l 156 596 q 168 543 156 568 q 201 500 181 518 q 251 472 222 482 q 313 461 279 461 l 735 461 l 735 676 z "},"\u0000":{"ha":0,"x_min":0,"x_max":0,"o":""},"\r":{"ha":317,"x_min":0,"x_max":0,"o":""}," ":{"ha":490,"x_min":0,"x_max":0,"o":""},"/":{"ha":950,"x_min":49,"x_max":906,"o":"m 193 -168 l 49 -168 l 761 1096 l 906 1096 l 193 -168 z "},"-":{"ha":747,"x_min":49,"x_max":699,"o":"m 699 322 l 49 322 l 49 440 l 699 440 l 699 322 z "},"+":{"ha":672,"x_min":49,"x_max":622,"o":"m 394 692 l 394 524 l 622 524 l 622 406 l 394 406 l 394 239 l 276 239 l 276 406 l 49 406 l 49 524 l 276 524 l 276 692 l 394 692 z "},"−":{"ha":672,"x_min":49,"x_max":622,"o":"m 622 406 l 49 406 l 49 524 l 622 524 l 622 406 z "},"=":{"ha":672,"x_min":49,"x_max":622,"o":"m 622 301 l 49 301 l 49 421 l 622 421 l 622 301 m 622 510 l 49 510 l 49 628 l 622 628 l 622 510 z "},"¯":{"ha":603,"x_min":49,"x_max":553,"o":"m 553 897 l 49 897 l 49 1015 l 553 1015 l 553 897 z "},".":{"ha":290,"x_min":68,"x_max":232,"o":"m 68 53 q 93 111 68 86 q 150 136 118 136 q 207 111 182 136 q 232 53 232 86 q 207 -4 232 21 q 150 -29 182 -29 q 93 -4 118 -29 q 68 53 68 21 z "},"–":{"ha":671,"x_min":49,"x_max":622,"o":"m 622 322 l 49 322 l 49 440 l 622 440 l 622 322 z "},"—":{"ha":949,"x_min":49,"x_max":900,"o":"m 900 322 l 49 322 l 49 440 l 900 440 l 900 322 z "},"×":{"ha":724,"x_min":49,"x_max":672,"o":"m 49 222 l 285 431 l 50 639 l 203 639 l 361 499 l 519 639 l 671 639 l 436 431 l 672 222 l 521 222 l 361 364 l 201 222 l 49 222 z "},"*":{"ha":572,"x_min":49,"x_max":522,"o":"m 346 985 l 328 810 l 481 883 l 522 781 l 354 732 l 475 599 l 383 526 l 285 683 l 189 526 l 97 599 l 218 732 l 49 781 l 90 883 l 243 808 l 226 985 l 346 985 z "},"(":{"ha":618,"x_min":49,"x_max":571,"o":"m 175 460 q 203 304 175 382 q 281 154 231 226 q 406 19 332 82 q 571 -90 479 -43 l 500 -176 q 306 -49 390 -121 q 165 105 222 22 q 78 277 107 188 q 49 460 49 367 q 78 642 49 553 q 166 814 108 732 q 308 967 224 896 q 500 1094 392 1038 l 571 1008 q 406 900 479 963 q 281 766 332 838 q 202 616 229 694 q 175 460 175 538 z "},"!":{"ha":218,"x_min":38,"x_max":203,"o":"m 181 281 l 61 281 l 61 1054 l 181 1054 l 181 281 m 121 142 q 178 117 154 142 q 203 60 203 93 q 178 -2 203 22 q 121 -26 154 -26 q 62 -2 86 -26 q 38 60 38 22 q 62 117 38 93 q 121 142 86 142 z "},"?":{"ha":786,"x_min":38,"x_max":753,"o":"m 560 1054 q 634 1037 599 1054 q 696 990 669 1019 q 738 919 722 960 q 753 833 753 879 l 753 585 q 731 460 753 518 q 672 359 710 401 q 585 292 635 317 q 481 267 536 267 l 260 267 l 260 385 l 481 385 q 539 400 511 385 q 588 442 567 415 q 621 506 608 469 q 633 585 633 543 l 633 833 q 613 907 633 878 q 560 936 592 936 l 38 936 l 38 1054 l 560 1054 m 303 142 q 360 117 335 142 q 386 60 386 93 q 360 -2 386 22 q 303 -26 335 -26 q 245 -2 271 -26 q 219 60 219 22 q 245 117 219 93 q 303 142 271 142 z "},",":{"ha":276,"x_min":49,"x_max":225,"o":"m 225 175 l 157 -193 l 49 -193 l 107 175 l 225 175 z "},"´":{"ha":388,"x_min":49,"x_max":339,"o":"m 49 872 l 215 1154 l 339 1154 l 174 872 l 49 872 z "},"`":{"ha":388,"x_min":49,"x_max":339,"o":"m 215 872 l 49 1154 l 174 1154 l 339 872 l 215 872 z "},"'":{"ha":265,"x_min":49,"x_max":215,"o":"m 215 1042 l 157 672 l 49 672 l 96 1042 l 215 1042 z "},"&":{"ha":1040,"x_min":26,"x_max":997,"o":"m 336 936 q 272 922 299 936 q 235 885 246 907 q 231 838 225 864 q 264 788 238 811 l 997 131 l 997 -26 l 315 -26 q 149 14 218 -26 q 53 124 81 54 q 46 264 26 194 q 124 386 65 333 l 331 568 l 185 699 q 115 813 126 751 q 131 928 104 875 q 215 1017 157 981 q 350 1054 272 1053 l 950 1054 l 950 936 l 336 936 m 165 168 q 217 113 178 133 q 315 92 257 92 l 879 92 l 418 490 l 200 297 q 163 238 172 272 q 165 168 153 204 z "},"$":{"ha":813,"x_min":47,"x_max":729,"o":"m 690 788 q 585 840 646 821 q 444 860 524 860 q 344 850 385 860 q 277 824 303 840 q 240 788 251 808 q 228 746 228 768 q 265 678 228 706 q 358 626 301 650 q 478 577 414 601 q 599 517 543 553 q 692 433 656 482 q 729 310 729 383 q 711 224 729 265 q 658 150 693 183 q 573 93 624 117 q 456 61 522 69 l 456 -83 l 358 -83 l 358 56 q 177 100 254 61 q 47 189 100 139 l 104 283 q 217 208 149 235 q 368 181 285 181 q 544 222 486 181 q 603 319 603 264 q 565 401 603 368 q 472 461 528 435 q 349 513 415 488 q 227 571 283 539 q 133 647 171 603 q 96 757 96 692 q 113 833 96 796 q 164 899 131 869 q 247 950 197 929 q 363 978 297 971 l 363 1114 l 460 1114 l 460 981 q 620 950 551 975 q 726 894 689 925 l 690 788 z "},"|":{"ha":207,"x_min":49,"x_max":156,"o":"m 156 1058 l 156 -139 l 49 -139 l 49 1058 l 156 1058 z "},"%":{"ha":960,"x_min":54,"x_max":907,"o":"m 306 572 q 205 585 251 572 q 125 625 158 599 q 73 690 92 651 q 54 782 54 729 q 122 937 54 881 q 306 993 189 993 q 490 938 422 993 q 558 782 558 882 q 553 740 558 760 q 542 703 549 721 l 753 982 l 899 982 l 460 397 q 654 464 526 464 q 840 409 772 464 q 907 254 907 354 q 888 167 907 206 q 835 101 868 128 q 755 59 801 74 q 654 44 708 44 q 553 58 600 44 q 474 97 507 71 q 422 163 440 124 q 403 254 403 201 q 426 354 403 311 l 201 56 l 56 56 l 486 628 q 406 586 453 600 q 306 572 360 572 m 306 894 q 209 865 246 894 q 172 782 172 835 q 209 699 172 728 q 306 669 246 669 q 401 699 361 669 q 440 782 440 728 q 403 866 440 838 q 306 894 365 894 m 654 367 q 558 337 596 367 q 521 254 521 307 q 558 171 521 200 q 654 142 596 142 q 749 171 710 142 q 789 254 789 200 q 751 338 789 310 q 654 367 714 367 z "},"#":{"ha":765,"x_min":49,"x_max":715,"o":"m 678 319 l 600 319 l 585 169 l 475 169 l 490 319 l 219 319 l 204 169 l 96 169 l 111 319 l 49 319 l 49 426 l 122 426 l 146 642 l 86 642 l 86 749 l 157 749 l 172 885 l 281 885 l 265 749 l 536 749 l 551 885 l 661 885 l 646 749 l 715 749 l 715 642 l 635 642 l 611 426 l 678 426 l 678 319 m 231 426 l 501 426 l 525 642 l 254 642 l 231 426 z "},"˘":{"ha":582,"x_min":49,"x_max":532,"o":"m 532 1110 q 512 1010 532 1053 q 458 938 492 967 q 381 894 425 908 q 289 879 338 879 q 195 894 239 879 q 119 937 151 908 q 67 1008 86 965 q 49 1110 49 1051 l 146 1110 q 184 1015 146 1054 q 289 976 222 976 q 351 988 324 976 q 397 1017 378 999 q 425 1059 415 1035 q 435 1110 435 1083 l 532 1110 z "},"˚":{"ha":563,"x_min":49,"x_max":513,"o":"m 281 868 q 110 913 172 868 q 49 1036 49 957 q 106 1158 49 1110 q 281 1206 164 1206 q 455 1158 397 1206 q 513 1036 513 1111 q 496 967 513 999 q 449 914 479 936 q 375 880 418 892 q 281 868 332 868 m 281 1089 q 196 1073 217 1089 q 175 1036 175 1057 q 196 1000 175 1015 q 281 985 217 985 q 365 1000 342 985 q 388 1036 388 1015 q 366 1074 388 1060 q 281 1089 344 1089 z "},"˛":{"ha":404,"x_min":44,"x_max":353,"o":"m 353 -289 q 260 -349 307 -335 q 172 -356 213 -364 q 100 -323 131 -349 q 57 -260 69 -297 q 55 -181 44 -224 q 107 -97 65 -139 q 132 -69 122 -82 q 148 -44 142 -57 q 157 -17 154 -32 q 160 17 160 -3 l 268 17 q 265 -22 268 -4 q 254 -56 263 -39 q 231 -93 246 -74 q 190 -137 215 -112 q 160 -195 161 -168 q 174 -237 158 -222 q 219 -249 190 -251 q 282 -218 249 -247 l 353 -289 z "},"¸":{"ha":404,"x_min":49,"x_max":357,"o":"m 121 -218 q 182 -249 153 -247 q 228 -237 211 -251 q 242 -195 244 -222 q 211 -137 240 -168 q 171 -93 186 -112 q 148 -56 156 -74 q 138 -22 140 -39 q 135 17 135 -4 l 242 17 q 244 -17 242 -3 q 253 -44 247 -32 q 270 -69 260 -57 q 296 -97 281 -82 q 347 -181 336 -139 q 345 -260 357 -224 q 302 -323 333 -297 q 230 -356 271 -349 q 142 -349 189 -364 q 49 -289 94 -335 l 121 -218 z "},"¢":{"ha":756,"x_min":49,"x_max":706,"o":"m 703 153 q 613 98 675 126 q 468 61 551 69 l 468 -139 l 369 -139 l 369 63 q 135 184 221 79 q 49 471 49 289 q 74 635 49 564 q 142 758 99 707 q 244 840 185 810 q 369 878 303 869 l 369 1068 l 468 1068 l 468 881 q 617 846 560 874 q 706 785 674 818 l 646 693 q 566 741 618 719 q 424 763 514 763 q 327 746 374 763 q 245 694 281 729 q 188 603 210 658 q 167 471 167 547 q 235 252 167 326 q 424 178 303 178 q 560 201 503 178 q 646 244 618 224 l 703 153 z "},"€":{"ha":839,"x_min":49,"x_max":790,"o":"m 581 569 l 244 569 q 243 548 243 558 q 243 526 243 538 q 244 497 243 511 q 246 467 244 482 l 539 467 l 539 372 l 265 372 q 305 278 281 321 q 362 203 329 235 q 434 154 394 172 q 519 136 474 136 q 649 158 597 136 q 729 203 701 181 l 790 114 q 744 74 772 93 q 678 41 715 56 q 595 17 640 26 q 499 8 550 8 q 376 33 436 8 q 267 104 317 57 q 182 219 218 151 q 128 372 146 286 l 49 372 l 49 467 l 114 467 q 113 497 113 482 q 113 526 113 511 q 113 548 113 538 q 114 569 113 558 l 49 569 l 49 664 l 125 664 q 178 816 142 749 q 265 931 215 883 q 375 1003 315 978 q 499 1028 435 1028 q 680 1001 611 1028 q 785 936 749 974 l 721 843 q 643 883 693 865 q 510 900 593 900 q 352 836 418 900 q 258 664 286 772 l 581 664 l 581 569 z "},"£":{"ha":811,"x_min":58,"x_max":763,"o":"m 65 117 l 78 117 q 133 137 115 117 q 157 194 151 157 q 158 286 163 232 q 149 410 154 340 l 58 410 l 58 528 l 139 528 q 135 610 136 568 q 133 699 133 653 q 153 815 133 760 q 212 911 174 869 q 305 977 250 953 q 429 1001 360 1001 q 613 975 539 1001 q 746 894 688 949 l 678 808 q 643 834 664 821 q 595 858 622 847 q 535 876 568 869 q 461 883 501 883 q 367 866 406 883 q 305 820 329 849 q 270 755 281 792 q 260 679 260 718 q 263 606 260 643 q 269 528 265 568 l 608 528 l 608 410 l 281 410 q 285 328 283 368 q 283 251 286 289 q 271 180 279 214 q 247 117 263 146 l 763 117 l 763 0 l 65 0 l 65 117 z "},"{":{"ha":507,"x_min":49,"x_max":457,"o":"m 49 518 q 165 542 129 517 q 214 608 201 567 q 227 705 226 650 q 238 819 228 760 q 276 941 247 879 q 375 1058 306 1003 l 457 1001 q 388 904 408 956 q 361 800 368 853 q 353 697 354 747 q 342 601 351 646 q 307 519 332 556 q 226 460 282 483 q 307 399 282 436 q 342 317 332 363 q 353 222 351 272 q 361 118 354 171 q 388 14 368 65 q 457 -83 408 -37 l 375 -139 q 276 -22 306 -83 q 238 99 247 39 q 227 215 228 160 q 214 310 226 269 q 165 376 201 351 q 49 400 129 400 l 49 518 z "},"[":{"ha":442,"x_min":49,"x_max":392,"o":"m 392 -139 l 49 -139 l 49 1058 l 392 1058 l 392 950 l 156 950 l 156 -32 l 392 -32 l 392 -139 z "},"\\":{"ha":1031,"x_min":49,"x_max":982,"o":"m 49 1058 l 190 1058 l 982 -139 l 840 -139 l 49 1058 z "},"©":{"ha":957,"x_min":49,"x_max":907,"o":"m 907 463 q 875 260 907 353 q 786 101 843 168 q 650 -5 729 33 q 478 -43 571 -43 q 305 -5 383 -43 q 169 101 226 33 q 81 260 113 168 q 49 463 49 353 q 81 663 49 571 q 169 823 113 756 q 305 928 226 890 q 478 967 383 967 q 650 928 571 967 q 786 823 729 890 q 875 663 843 756 q 907 463 907 571 m 167 463 q 192 297 167 369 q 259 176 217 225 q 358 101 301 126 q 478 75 415 75 q 597 101 540 75 q 697 176 654 126 q 764 297 739 225 q 789 463 789 369 q 764 628 789 556 q 697 749 739 700 q 597 824 654 799 q 478 850 540 850 q 358 824 415 850 q 259 749 301 799 q 192 628 217 700 q 167 463 167 556 m 636 286 q 579 233 617 258 q 478 207 542 207 q 399 226 436 207 q 333 278 361 244 q 290 361 306 313 q 274 468 274 410 q 290 574 274 526 q 333 656 306 621 q 399 709 361 690 q 478 728 436 728 q 578 705 543 728 q 636 649 614 682 l 589 569 q 549 602 572 593 q 504 611 526 611 q 424 572 457 611 q 392 468 392 533 q 425 363 392 401 q 506 324 458 324 q 549 332 525 324 q 588 364 572 340 l 636 286 z "},"@":{"ha":1217,"x_min":49,"x_max":1167,"o":"m 864 607 l 864 344 q 890 282 864 303 q 957 261 917 261 q 1028 289 1001 261 q 1056 379 1056 317 q 1024 549 1056 476 q 933 672 992 622 q 791 745 874 721 q 607 769 708 769 q 425 743 507 769 q 285 666 343 717 q 194 543 226 615 q 163 379 163 471 q 197 217 163 288 q 290 99 231 147 q 431 26 350 51 q 607 1 513 1 q 751 20 686 1 q 868 75 817 39 l 933 -7 q 801 -76 882 -47 q 607 -106 719 -106 q 387 -74 489 -106 q 210 18 285 -43 q 92 169 135 79 q 49 379 49 260 q 90 592 49 499 q 204 748 131 685 q 381 844 278 811 q 607 878 483 878 q 833 844 729 878 q 1010 748 936 811 q 1125 592 1083 685 q 1167 379 1167 499 q 1108 215 1167 275 q 953 154 1049 154 q 860 169 900 154 q 796 210 821 183 q 719 171 768 188 q 607 154 671 154 q 493 172 542 154 q 411 220 444 189 q 361 294 378 251 q 344 388 344 338 q 361 480 344 438 q 411 553 378 522 q 493 603 444 585 q 607 621 542 621 q 694 611 656 621 q 757 586 732 601 l 757 607 l 864 607 m 618 261 q 699 271 664 261 q 758 296 735 281 q 757 315 757 306 q 757 333 757 324 l 757 481 q 701 504 735 496 q 618 513 667 513 q 494 476 535 513 q 453 388 453 440 q 494 297 453 333 q 618 261 535 261 z "},"<":{"ha":615,"x_min":49,"x_max":565,"o":"m 511 153 l 49 418 l 49 504 l 507 765 l 565 688 l 176 461 l 565 233 l 511 153 z "},"~":{"ha":663,"x_min":49,"x_max":613,"o":"m 613 517 q 603 434 613 472 q 574 367 593 396 q 527 321 556 338 q 461 304 499 304 q 385 319 417 304 q 326 351 353 333 q 276 383 300 368 q 225 397 253 397 q 156 304 156 397 l 49 304 q 58 386 49 347 q 88 454 68 425 q 135 500 107 483 q 201 517 164 517 q 270 502 240 517 q 326 469 300 488 q 377 437 351 451 q 436 422 403 422 q 487 446 468 422 q 506 517 506 469 l 613 517 z "},"^":{"ha":590,"x_min":49,"x_max":540,"o":"m 49 749 l 244 1006 l 346 1006 l 540 749 l 414 749 l 296 906 l 176 749 l 49 749 z "},"_":{"ha":718,"x_min":68,"x_max":650,"o":"m 650 -125 l 68 -125 l 68 -8 l 650 -8 l 650 -125 z "},"¤":{"ha":600,"x_min":49,"x_max":549,"o":"m 299 296 q 226 310 261 296 l 133 218 l 49 318 l 138 393 q 119 471 119 425 q 133 538 119 510 l 49 610 l 133 713 l 217 628 q 255 642 235 636 q 299 647 275 647 q 342 642 322 647 q 379 628 361 636 l 463 714 l 549 613 l 464 539 q 479 471 479 508 q 474 429 479 449 q 458 393 468 410 l 549 317 l 464 217 l 369 311 q 299 296 335 296 m 299 531 q 252 513 269 531 q 235 471 235 494 q 252 429 235 447 q 299 411 269 411 q 344 429 326 411 q 363 471 363 447 q 345 515 363 499 q 299 531 328 531 z "},"§":{"ha":522,"x_min":49,"x_max":471,"o":"m 72 157 q 151 127 104 138 q 235 117 199 117 q 314 138 289 117 q 339 188 339 160 q 317 235 339 215 q 264 272 296 254 q 194 307 232 289 q 124 349 156 325 q 70 404 92 372 q 49 483 49 436 q 66 565 49 528 q 115 631 83 603 q 78 681 92 653 q 64 746 64 708 q 80 816 64 783 q 124 874 96 849 q 194 913 153 899 q 285 926 235 926 q 367 916 321 926 q 447 888 414 906 l 447 768 q 368 798 415 788 q 285 808 321 808 q 207 787 232 808 q 182 738 182 765 q 203 690 182 710 q 257 653 225 671 q 326 618 289 636 q 396 576 364 600 q 449 521 428 553 q 471 443 471 489 q 453 360 471 399 q 403 294 436 321 q 441 244 426 272 q 456 179 456 217 q 440 109 456 142 q 396 52 425 76 q 326 14 367 28 q 235 0 285 0 q 152 10 199 0 q 72 39 106 21 l 72 157 m 364 443 q 349 483 364 465 q 312 516 335 501 q 260 544 289 531 q 201 574 231 558 q 169 532 182 554 q 156 483 156 510 q 170 442 156 460 q 208 410 185 425 q 260 381 231 394 q 318 351 289 367 q 351 392 338 369 q 364 443 364 415 z "},"ƒ":{"ha":469,"x_min":49,"x_max":419,"o":"m 196 38 q 190 176 196 101 q 178 333 185 250 l 49 333 l 49 451 l 168 451 q 161 568 164 510 q 158 685 158 626 q 210 863 158 799 q 368 926 263 926 l 368 808 q 298 771 319 808 q 276 671 276 733 q 279 563 276 617 q 288 451 282 508 l 419 451 l 419 333 l 297 333 q 309 182 304 258 q 314 26 314 106 q 259 -151 314 -86 q 103 -215 204 -215 l 103 -99 q 174 -62 151 -99 q 196 38 196 -25 z "},"™":{"ha":1107,"x_min":49,"x_max":1057,"o":"m 1057 1058 l 1057 556 l 949 556 l 949 861 l 821 601 l 750 601 l 615 868 l 615 556 l 508 556 l 508 1058 l 628 1058 l 786 742 l 935 1058 l 1057 1058 m 49 1058 l 454 1058 l 454 950 l 306 950 l 306 556 l 197 556 l 197 950 l 49 950 l 49 1058 z "},"•":{"ha":378,"x_min":49,"x_max":326,"o":"m 49 438 q 60 489 49 464 q 90 533 71 514 q 134 564 108 553 q 188 575 160 575 q 240 564 214 575 q 284 533 265 553 q 315 489 303 514 q 326 438 326 464 q 315 383 326 408 q 284 340 303 358 q 240 310 265 321 q 188 299 214 299 q 134 310 160 299 q 90 340 108 321 q 60 383 71 358 q 49 438 49 408 z "},"¥":{"ha":915,"x_min":49,"x_max":864,"o":"m 736 319 l 515 319 l 515 228 l 736 228 l 736 121 l 515 121 l 515 0 l 399 0 l 399 121 l 160 121 l 160 228 l 399 228 l 399 319 l 160 319 l 160 426 l 388 426 l 388 431 l 49 926 l 190 926 l 457 536 l 724 926 l 864 926 l 524 431 l 524 426 l 736 426 l 736 319 z "},"¦":{"ha":207,"x_min":49,"x_max":156,"o":"m 49 81 l 49 838 l 156 838 l 156 81 l 49 81 z "},"®":{"ha":957,"x_min":49,"x_max":907,"o":"m 907 463 q 875 260 907 353 q 786 101 843 168 q 650 -5 729 33 q 478 -43 571 -43 q 305 -5 383 -43 q 169 101 226 33 q 81 260 113 168 q 49 463 49 353 q 81 663 49 571 q 169 823 113 756 q 305 928 226 890 q 478 967 383 967 q 650 928 571 967 q 786 823 729 890 q 875 663 843 756 q 907 463 907 571 m 156 463 q 181 292 156 367 q 251 165 207 217 q 354 87 296 114 q 478 60 413 60 q 602 87 543 60 q 705 165 661 114 q 774 292 749 217 q 800 463 800 367 q 775 634 800 560 q 706 760 750 708 q 604 838 663 811 q 478 864 546 864 q 354 837 413 864 q 251 759 296 810 q 181 633 207 708 q 156 463 156 558 m 401 369 l 401 196 l 283 196 l 283 751 l 492 751 q 582 736 543 751 q 647 695 621 721 q 685 635 672 669 q 697 561 697 600 q 672 450 697 494 q 603 385 646 406 l 689 196 l 557 196 l 488 369 l 401 369 m 401 478 l 486 478 q 564 500 536 478 q 592 563 592 522 q 492 644 592 644 l 401 644 l 401 478 z "},"‡":{"ha":672,"x_min":49,"x_max":622,"o":"m 622 10 l 385 10 l 385 -137 l 278 -137 l 278 10 l 49 10 l 49 128 l 278 128 l 278 801 l 49 801 l 49 919 l 278 919 l 278 1060 l 385 1060 l 385 919 l 622 919 l 622 801 l 385 801 l 385 128 l 622 128 l 622 10 z "},"†":{"ha":672,"x_min":49,"x_max":622,"o":"m 622 801 l 385 801 l 385 -137 l 278 -137 l 278 801 l 49 801 l 49 919 l 278 919 l 278 1060 l 385 1060 l 385 919 l 622 919 l 622 801 z "},")":{"ha":618,"x_min":47,"x_max":569,"o":"m 443 460 q 415 615 443 538 q 337 765 388 693 q 213 900 286 838 q 47 1010 139 963 l 118 1096 q 312 969 228 1040 q 453 815 396 897 q 540 642 511 732 q 569 460 569 553 q 540 277 569 367 q 452 106 510 188 q 310 -48 394 24 q 118 -175 226 -119 l 47 -89 q 213 19 139 -43 q 338 153 286 82 q 416 303 389 225 q 443 460 443 382 z "},"]":{"ha":442,"x_min":50,"x_max":393,"o":"m 50 1058 l 393 1058 l 393 -139 l 50 -139 l 50 -31 l 286 -31 l 286 951 l 50 951 l 50 1058 z "},"}":{"ha":507,"x_min":50,"x_max":458,"o":"m 458 401 q 342 377 378 401 q 293 311 306 353 q 280 215 281 269 q 269 100 279 160 q 231 -22 260 40 q 132 -139 201 -83 l 50 -82 q 119 15 99 -36 q 146 119 139 67 q 154 223 153 172 q 165 319 156 274 q 200 400 175 364 q 281 460 225 436 q 200 520 225 483 q 165 602 175 557 q 154 698 156 647 q 146 801 153 749 q 119 906 139 854 q 50 1003 99 957 l 132 1058 q 231 942 201 1003 q 269 820 260 881 q 280 705 279 760 q 293 609 281 650 q 342 543 306 568 q 458 519 378 518 l 458 401 z "},">":{"ha":615,"x_min":50,"x_max":567,"o":"m 104 769 l 567 504 l 567 418 l 108 157 l 50 235 l 439 461 l 50 689 l 104 769 z "},"›":{"ha":615,"x_min":50,"x_max":567,"o":"m 104 769 l 567 504 l 567 418 l 108 157 l 50 235 l 439 461 l 50 689 l 104 769 z "},"‹":{"ha":615,"x_min":49,"x_max":565,"o":"m 511 153 l 49 418 l 49 504 l 507 765 l 565 688 l 176 461 l 565 233 l 511 153 z "},"«":{"ha":1044,"x_min":49,"x_max":994,"o":"m 511 153 l 49 418 l 49 504 l 507 765 l 565 688 l 176 461 l 565 233 l 511 153 m 940 153 l 478 418 l 478 504 l 936 765 l 994 688 l 606 461 l 994 233 l 940 153 z "},"»":{"ha":1044,"x_min":50,"x_max":996,"o":"m 104 769 l 567 504 l 567 418 l 108 157 l 50 235 l 439 461 l 50 689 l 104 769 m 533 769 l 996 504 l 996 418 l 538 157 l 479 235 l 868 461 l 479 689 l 533 769 z "},"\"":{"ha":482,"x_min":49,"x_max":431,"o":"m 215 1042 l 157 672 l 49 672 l 96 1042 l 215 1042 m 431 1042 l 372 672 l 264 672 l 311 1042 l 431 1042 z "},"”":{"ha":471,"x_min":49,"x_max":419,"o":"m 215 1074 l 157 704 l 49 704 l 96 1074 l 215 1074 m 419 1074 l 361 704 l 253 704 l 300 1074 l 419 1074 z "},"“":{"ha":471,"x_min":50,"x_max":422,"o":"m 50 704 l 108 1074 l 217 1074 l 169 704 l 50 704 m 256 704 l 314 1074 l 422 1074 l 375 704 l 256 704 z "},"‘":{"ha":265,"x_min":50,"x_max":217,"o":"m 50 704 l 108 1074 l 217 1074 l 169 704 l 50 704 z "},"’":{"ha":265,"x_min":49,"x_max":215,"o":"m 215 1074 l 157 704 l 49 704 l 96 1074 l 215 1074 z "},"„":{"ha":471,"x_min":49,"x_max":419,"o":"m 215 208 l 157 -161 l 49 -161 l 96 208 l 215 208 m 419 208 l 361 -161 l 253 -161 l 300 208 l 419 208 z "},"‚":{"ha":265,"x_min":49,"x_max":215,"o":"m 215 208 l 157 -161 l 49 -161 l 96 208 l 215 208 z "},":":{"ha":247,"x_min":68,"x_max":232,"o":"m 68 53 q 93 111 68 86 q 150 136 118 136 q 207 111 182 136 q 232 53 232 86 q 207 -4 232 21 q 150 -29 182 -29 q 93 -4 118 -29 q 68 53 68 21 m 68 706 q 93 764 68 739 q 150 789 118 789 q 207 764 182 789 q 232 706 232 739 q 207 649 232 674 q 150 624 182 624 q 93 649 118 624 q 68 706 68 674 z "},";":{"ha":276,"x_min":49,"x_max":247,"o":"m 225 175 l 157 -193 l 49 -193 l 107 175 l 225 175 m 83 706 q 108 764 83 739 q 165 789 133 789 q 222 764 197 789 q 247 706 247 739 q 222 649 247 674 q 165 624 197 624 q 108 649 133 624 q 83 706 83 674 z "},"˜":{"ha":663,"x_min":49,"x_max":613,"o":"m 613 1085 q 603 1002 613 1040 q 574 935 593 964 q 527 889 556 906 q 461 872 499 872 q 385 887 417 872 q 326 919 353 901 q 276 951 300 936 q 225 965 253 965 q 156 872 156 965 l 49 872 q 58 954 49 915 q 88 1022 68 993 q 135 1068 107 1051 q 201 1085 164 1085 q 270 1070 240 1085 q 326 1038 300 1056 q 377 1005 351 1019 q 436 990 403 990 q 487 1014 468 990 q 506 1085 506 1038 l 613 1085 z "},"ˆ":{"ha":590,"x_min":49,"x_max":540,"o":"m 49 872 l 244 1129 l 346 1129 l 540 872 l 414 872 l 296 1029 l 176 872 l 49 872 z "},"ˇ":{"ha":590,"x_min":24,"x_max":515,"o":"m 515 1124 l 319 865 l 219 865 l 24 1124 l 151 1124 l 269 965 l 389 1124 l 515 1124 z "},"˙":{"ha":247,"x_min":68,"x_max":232,"o":"m 68 936 q 93 994 68 969 q 150 1019 118 1019 q 207 994 182 1019 q 232 936 232 969 q 207 879 232 904 q 150 854 182 854 q 93 879 118 854 q 68 936 68 904 z "},"¨":{"ha":521,"x_min":68,"x_max":508,"o":"m 68 978 q 93 1036 68 1011 q 150 1061 118 1061 q 207 1036 182 1061 q 232 978 232 1011 q 207 921 232 946 q 150 896 182 896 q 93 921 118 896 q 68 978 68 946 m 344 978 q 369 1036 344 1011 q 426 1061 394 1061 q 483 1036 458 1061 q 508 978 508 1011 q 483 921 508 946 q 426 896 458 896 q 369 921 394 896 q 344 978 344 946 z "},"¬":{"ha":672,"x_min":49,"x_max":622,"o":"m 622 524 l 622 239 l 504 239 l 504 406 l 49 406 l 49 524 l 622 524 z "},"˝":{"ha":617,"x_min":49,"x_max":567,"o":"m 49 890 l 215 1172 l 339 1172 l 174 890 l 49 890 m 276 890 l 443 1172 l 567 1172 l 401 890 l 276 890 z "},"÷":{"ha":735,"x_min":75,"x_max":649,"o":"m 649 376 l 75 376 l 75 494 l 649 494 l 649 376 m 279 192 q 304 250 279 225 q 361 275 329 275 q 418 250 393 275 q 443 192 443 225 q 418 135 443 160 q 361 110 393 110 q 304 135 329 110 q 279 192 279 160 m 279 669 q 304 728 279 703 q 361 753 329 753 q 418 728 393 753 q 443 669 443 703 q 418 613 443 638 q 361 588 393 588 q 304 613 329 588 q 279 669 279 638 z "},"ª":{"ha":504,"x_min":49,"x_max":454,"o":"m 454 1024 l 454 585 l 346 585 l 346 604 q 303 581 328 590 q 247 571 279 571 q 167 588 203 571 q 104 637 131 606 q 63 711 78 668 q 49 804 49 754 q 63 897 49 854 q 104 970 78 939 q 167 1019 131 1001 q 247 1038 203 1038 q 303 1028 279 1038 q 346 1004 328 1019 l 346 1024 l 454 1024 m 256 678 q 306 687 283 678 q 346 710 329 696 l 346 900 q 306 921 328 913 q 256 929 285 929 q 183 894 211 929 q 156 804 156 860 q 183 713 156 747 q 256 678 211 678 z "},"°":{"ha":563,"x_min":49,"x_max":513,"o":"m 281 757 q 110 801 172 757 q 49 925 49 846 q 106 1047 49 999 q 281 1094 164 1094 q 455 1047 397 1094 q 513 925 513 1000 q 496 856 513 888 q 449 803 479 825 q 375 769 418 781 q 281 757 332 757 m 281 978 q 196 962 217 978 q 175 925 175 946 q 196 889 175 904 q 281 874 217 874 q 365 889 342 874 q 388 925 388 904 q 366 963 388 949 q 281 978 344 978 z "},"º":{"ha":574,"x_min":49,"x_max":524,"o":"m 285 417 q 197 436 239 417 q 121 495 154 456 q 68 596 88 535 q 49 740 49 657 q 68 886 49 825 q 119 987 88 947 q 194 1046 151 1026 q 285 1065 238 1065 q 375 1047 332 1065 q 451 990 418 1029 q 504 889 485 950 q 524 740 524 828 q 507 607 524 667 q 460 505 490 547 q 385 440 429 463 q 285 417 340 417 m 285 947 q 197 894 228 947 q 167 740 167 840 q 203 583 167 633 q 285 533 239 533 q 372 581 338 533 q 406 740 406 629 q 374 896 406 844 q 285 947 343 947 z "},"½":{"ha":1292,"x_min":49,"x_max":1215,"o":"m 344 -139 l 194 -139 l 907 1058 l 1057 1058 l 344 -139 m 1215 -139 l 803 -139 l 803 -21 q 896 78 847 33 q 985 163 944 124 q 1053 238 1026 203 q 1081 306 1081 272 q 1054 368 1081 344 q 983 392 1028 392 q 910 374 947 392 q 819 311 872 356 l 819 435 q 913 492 868 475 q 1008 510 958 510 q 1088 495 1051 510 q 1150 456 1124 481 q 1191 399 1176 432 q 1206 331 1206 367 q 1179 234 1206 281 q 1113 144 1153 188 q 1029 60 1074 101 q 947 -22 985 19 l 1215 -22 l 1215 -139 m 461 417 l 49 417 l 49 533 l 203 533 l 203 933 l 64 892 l 64 1010 l 239 1065 l 321 1065 l 321 533 l 461 533 l 461 417 z "},"¼":{"ha":1279,"x_min":49,"x_max":1194,"o":"m 344 -139 l 194 -139 l 907 1058 l 1057 1058 l 344 -139 m 1006 -139 l 1006 -10 l 738 -10 l 738 81 l 1008 511 l 1124 511 l 1124 107 l 1194 107 l 1194 -10 l 1124 -10 l 1124 -139 l 1006 -139 m 461 417 l 49 417 l 49 533 l 203 533 l 203 933 l 64 892 l 64 1010 l 239 1065 l 321 1065 l 321 533 l 461 533 l 461 417 m 851 107 l 1006 107 l 1006 361 l 851 107 z "},"¾":{"ha":1279,"x_min":49,"x_max":1194,"o":"m 344 -139 l 194 -139 l 907 1058 l 1057 1058 l 344 -139 m 1006 -139 l 1006 -10 l 738 -10 l 738 81 l 1008 511 l 1124 511 l 1124 107 l 1194 107 l 1194 -10 l 1124 -10 l 1124 -139 l 1006 -139 m 254 417 q 155 438 203 417 q 49 507 107 458 l 49 626 q 154 553 111 574 q 233 533 197 533 q 315 558 288 533 q 343 618 343 582 q 307 676 343 654 q 189 707 271 699 l 189 803 q 285 826 253 803 q 317 881 317 849 q 291 928 317 910 q 221 947 265 947 q 150 930 189 947 q 65 874 111 913 l 65 996 q 153 1049 111 1032 q 242 1065 196 1065 q 324 1051 288 1065 q 384 1015 360 1038 q 422 961 408 992 q 435 897 435 931 q 416 818 435 853 q 365 758 397 783 q 440 695 419 732 q 461 610 461 658 q 449 536 461 571 q 410 475 436 501 q 344 433 383 449 q 254 417 306 417 m 851 107 l 1006 107 l 1006 361 l 851 107 z "},"¡":{"ha":247,"x_min":44,"x_max":210,"o":"m 67 553 l 186 553 l 186 -221 l 67 -221 l 67 553 m 126 692 q 69 716 93 692 q 44 774 44 740 q 69 835 44 811 q 126 860 93 860 q 185 835 161 860 q 210 774 210 811 q 185 716 210 740 q 126 692 161 692 z "},"¿":{"ha":767,"x_min":14,"x_max":729,"o":"m 207 -221 q 133 -203 168 -221 q 71 -156 97 -186 q 29 -86 44 -126 q 14 0 14 -46 l 14 249 q 35 374 14 315 q 94 474 57 432 q 181 542 132 517 q 286 567 231 567 l 507 567 l 507 449 l 286 449 q 226 433 254 449 q 178 390 199 417 q 145 326 157 363 q 133 249 133 290 l 133 0 q 154 -74 133 -44 q 207 -103 175 -103 l 729 -103 l 729 -221 l 207 -221 m 464 692 q 406 716 432 692 q 381 774 381 740 q 406 835 381 811 q 464 860 432 860 q 522 835 496 860 q 547 774 547 811 q 522 716 547 740 q 464 692 496 692 z "},"·":{"ha":367,"x_min":121,"x_max":285,"o":"m 121 393 q 146 451 121 426 q 203 476 171 476 q 260 451 235 476 q 285 393 285 426 q 260 336 285 361 q 203 311 235 311 q 146 336 171 311 q 121 393 121 361 z "},"…":{"ha":742,"x_min":49,"x_max":707,"o":"m 49 82 q 74 139 49 114 q 132 164 99 164 q 189 139 164 164 q 214 82 214 114 q 189 24 214 49 q 132 0 164 0 q 74 24 99 0 q 49 82 49 49 m 296 82 q 322 139 296 114 q 379 164 347 164 q 435 139 411 164 q 460 82 460 114 q 435 24 460 49 q 379 0 411 0 q 322 24 347 0 q 296 82 296 49 m 543 82 q 568 139 543 114 q 625 164 593 164 q 682 139 657 164 q 707 82 707 114 q 682 24 707 49 q 625 0 657 0 q 568 24 593 0 q 543 82 543 49 z "},"‰":{"ha":1371,"x_min":54,"x_max":1329,"o":"m 306 517 q 205 530 251 517 q 125 569 158 543 q 73 635 92 596 q 54 726 54 674 q 122 881 54 825 q 306 938 189 938 q 490 882 422 938 q 558 726 558 826 q 553 685 558 704 q 542 647 549 665 l 753 926 l 899 926 l 460 342 q 654 408 526 408 q 781 387 726 408 q 867 325 835 365 q 952 387 899 365 q 1076 408 1006 408 q 1262 353 1194 408 q 1329 199 1329 299 q 1310 111 1329 150 q 1258 45 1292 72 q 1177 3 1224 18 q 1076 -11 1131 -11 q 952 10 1007 -11 q 865 74 897 32 q 777 11 832 33 q 654 -11 722 -11 q 553 2 600 -11 q 474 42 507 15 q 422 107 440 68 q 403 199 403 146 q 426 299 403 256 l 201 0 l 56 0 l 486 572 q 406 531 453 544 q 306 517 360 517 m 1076 311 q 981 281 1018 311 q 943 199 943 251 q 981 115 943 144 q 1076 86 1018 86 q 1172 115 1132 86 q 1213 199 1213 144 q 1174 283 1213 254 q 1076 311 1136 311 m 306 839 q 209 809 246 839 q 172 726 172 779 q 209 643 172 672 q 306 614 246 614 q 401 643 361 614 q 440 726 440 672 q 403 810 440 782 q 306 839 365 839 m 654 311 q 558 281 596 311 q 521 199 521 251 q 558 115 521 144 q 654 86 596 86 q 749 115 710 86 q 789 199 789 144 q 751 283 789 254 q 654 311 714 311 z "},"±":{"ha":672,"x_min":49,"x_max":622,"o":"m 394 831 l 394 663 l 622 663 l 622 544 l 394 544 l 394 378 l 276 378 l 276 544 l 49 544 l 49 663 l 276 663 l 276 831 l 394 831 m 622 128 l 49 128 l 49 246 l 622 246 l 622 128 z "},"¶":{"ha":767,"x_min":53,"x_max":765,"o":"m 765 938 l 585 938 l 585 -139 l 472 -139 l 472 938 l 301 938 l 301 -139 l 190 -139 l 190 779 q 138 790 163 779 q 94 821 113 801 q 64 865 75 840 q 53 919 53 890 q 64 971 53 946 q 94 1015 75 996 q 138 1047 113 1035 q 190 1058 163 1058 l 190 1060 l 765 1060 l 765 938 z "},"⁄":{"ha":950,"x_min":49,"x_max":906,"o":"m 193 -168 l 49 -168 l 761 1096 l 906 1096 l 193 -168 z "},"­":{"ha":747,"x_min":49,"x_max":699,"o":"m 699 322 l 49 322 l 49 440 l 699 440 l 699 322 z "},"⁰":{"ha":731,"x_min":40,"x_max":690,"o":"m 364 278 q 226 309 286 278 q 124 396 165 340 q 62 528 83 451 q 40 694 40 604 q 126 1005 40 899 q 364 1111 213 1111 q 603 1006 517 1111 q 690 694 690 901 q 669 526 690 603 q 606 394 647 450 q 503 308 564 339 q 364 278 443 278 m 364 1004 q 204 924 261 1004 q 147 694 147 844 q 204 465 147 547 q 364 383 261 383 q 526 467 468 383 q 583 694 583 550 q 526 925 583 846 q 364 1004 468 1004 z "},"¹":{"ha":593,"x_min":47,"x_max":550,"o":"m 550 278 l 54 278 l 54 383 l 256 383 l 256 999 l 72 957 l 47 1049 l 296 1111 l 361 1111 l 361 383 l 550 383 l 550 278 z "},"²":{"ha":706,"x_min":46,"x_max":661,"o":"m 661 278 l 46 278 l 46 364 q 126 478 78 428 q 230 572 175 529 q 339 652 285 615 q 437 724 393 689 q 508 794 481 758 q 535 871 535 831 q 485 967 535 931 q 333 1004 436 1004 q 200 983 254 1004 q 110 926 146 961 l 51 1004 q 170 1081 97 1050 q 354 1111 243 1111 q 480 1094 425 1111 q 572 1046 535 1076 q 629 975 610 1015 q 649 889 649 935 q 623 783 649 831 q 556 695 597 736 q 465 617 515 654 q 363 544 414 581 q 265 467 311 507 q 189 383 219 428 l 661 383 l 661 278 z "},"³":{"ha":714,"x_min":44,"x_max":669,"o":"m 347 278 q 176 303 256 278 q 44 375 97 329 l 93 465 q 190 413 125 438 q 332 388 256 388 q 499 424 439 388 q 558 519 558 461 q 542 578 558 553 q 490 622 526 604 q 394 649 453 639 q 250 664 335 660 l 250 771 q 387 780 332 771 q 474 806 442 789 q 521 845 507 822 q 535 896 535 868 q 485 974 535 944 q 326 1003 436 1003 q 192 983 253 1003 q 101 940 131 963 l 51 1028 q 104 1060 72 1044 q 174 1087 136 1075 q 256 1105 213 1099 q 346 1111 300 1111 q 477 1095 421 1111 q 571 1051 533 1079 q 627 985 608 1022 q 646 906 646 947 q 617 799 646 847 q 525 717 588 750 q 638 628 607 681 q 669 511 669 575 q 649 422 669 464 q 589 347 629 379 q 488 297 549 315 q 347 278 428 278 z "},"⁴":{"ha":742,"x_min":44,"x_max":697,"o":"m 526 278 l 526 465 l 44 465 l 44 553 l 547 1111 l 633 1111 l 633 571 l 697 571 l 697 465 l 633 465 l 633 278 l 526 278 m 189 571 l 532 571 l 532 946 l 189 571 z "},"⁵":{"ha":724,"x_min":44,"x_max":681,"o":"m 367 278 q 174 313 256 278 q 44 392 93 347 l 89 481 q 205 413 139 438 q 344 388 271 388 q 512 437 454 388 q 569 561 569 486 q 538 656 569 615 q 446 716 507 696 q 296 735 385 736 q 90 706 207 733 l 128 1111 l 646 1111 l 646 1004 l 214 1004 l 194 817 q 556 781 432 849 q 681 553 681 713 q 660 449 681 499 q 599 362 639 400 q 501 301 560 324 q 367 278 443 278 z "},"⁶":{"ha":740,"x_min":44,"x_max":696,"o":"m 556 1033 q 438 969 496 1004 q 331 894 381 933 q 244 815 282 856 q 186 735 207 774 q 281 768 222 754 q 407 782 339 782 q 524 764 471 782 q 615 715 576 746 q 674 640 653 683 q 696 546 696 596 q 675 443 696 492 q 614 358 654 394 q 513 299 574 321 q 371 278 451 278 q 235 299 296 278 q 133 360 175 319 q 67 458 90 400 q 44 590 44 517 q 157 871 44 738 q 499 1111 269 1004 l 556 1033 m 365 383 q 528 428 471 383 q 585 542 585 472 q 533 639 585 600 q 365 678 481 678 q 243 665 296 678 q 161 633 190 651 q 156 603 158 619 q 153 567 153 586 q 165 494 153 528 q 203 436 178 461 q 269 397 229 411 q 365 383 310 383 z "},"⁷":{"ha":714,"x_min":44,"x_max":668,"o":"m 261 278 q 347 728 281 542 q 524 1004 414 914 l 44 1004 l 44 1111 l 668 1111 l 668 1008 q 542 881 594 960 q 455 705 490 803 q 399 497 419 607 q 371 278 379 388 l 261 278 z "},"⁸":{"ha":729,"x_min":44,"x_max":686,"o":"m 44 511 q 59 590 44 556 q 98 651 74 625 q 155 697 122 678 q 225 732 188 717 q 160 760 190 744 q 108 798 131 776 q 74 848 86 819 q 61 914 61 876 q 80 991 61 956 q 136 1053 99 1026 q 231 1096 174 1081 q 364 1111 288 1111 q 498 1096 440 1111 q 593 1053 556 1081 q 649 991 631 1026 q 668 914 668 956 q 655 848 668 876 q 619 798 642 819 q 567 760 597 776 q 503 732 538 744 q 574 697 540 717 q 632 651 607 678 q 672 591 657 625 q 686 511 686 557 q 667 420 686 463 q 610 347 649 378 q 510 297 571 315 q 364 278 449 278 q 220 297 281 278 q 121 347 160 315 q 63 420 82 378 q 44 511 44 463 m 575 515 q 558 581 575 554 q 511 628 540 608 q 444 662 482 647 q 364 689 406 676 q 284 663 322 676 q 217 628 246 649 q 172 581 189 608 q 154 515 154 554 q 203 422 154 460 q 364 383 253 383 q 525 422 475 383 q 575 515 575 460 m 172 915 q 188 867 172 888 q 229 831 203 847 q 290 803 256 815 q 364 778 325 790 q 438 803 403 790 q 500 831 474 815 q 542 867 526 846 q 557 915 557 888 q 512 977 557 950 q 364 1004 467 1004 q 217 977 261 1004 q 172 915 172 950 z "},"⁹":{"ha":740,"x_min":44,"x_max":696,"o":"m 183 354 q 301 419 243 383 q 408 493 358 454 q 495 573 457 532 q 554 654 533 614 q 460 621 518 635 q 333 607 401 607 q 216 625 269 607 q 124 674 163 643 q 65 749 86 706 q 44 843 44 792 q 65 946 44 897 q 126 1031 85 994 q 227 1090 167 1068 q 368 1111 288 1111 q 503 1090 443 1111 q 607 1029 564 1069 q 673 931 650 989 q 696 799 696 872 q 583 518 696 651 q 242 276 469 385 l 183 354 m 374 1004 q 213 960 269 1004 q 156 849 156 915 q 208 750 156 790 q 374 710 260 710 q 496 724 443 710 q 579 754 549 738 q 584 785 582 768 q 586 821 586 801 q 535 952 586 900 q 374 1004 485 1004 z "},"₀":{"ha":731,"x_min":40,"x_max":690,"o":"m 364 -139 q 226 -108 286 -139 q 124 -21 165 -76 q 62 111 83 35 q 40 278 40 188 q 126 588 40 482 q 364 694 213 694 q 603 590 517 694 q 690 278 690 485 q 669 110 690 186 q 606 -22 647 33 q 503 -108 564 -78 q 364 -139 443 -139 m 364 588 q 204 508 261 588 q 147 278 147 428 q 204 49 147 131 q 364 -33 261 -33 q 526 50 468 -33 q 583 278 583 133 q 526 508 583 429 q 364 588 468 588 z "},"₁":{"ha":593,"x_min":47,"x_max":550,"o":"m 550 -139 l 54 -139 l 54 -33 l 256 -33 l 256 582 l 72 540 l 47 632 l 296 694 l 361 694 l 361 -33 l 550 -33 l 550 -139 z "},"₂":{"ha":706,"x_min":46,"x_max":661,"o":"m 661 -139 l 46 -139 l 46 -53 q 126 62 78 11 q 230 156 175 113 q 339 235 285 199 q 437 307 393 272 q 508 378 481 342 q 535 454 535 414 q 485 551 535 514 q 333 588 436 588 q 200 567 254 588 q 110 510 146 546 l 51 588 q 170 664 97 633 q 354 694 243 694 q 480 677 425 694 q 572 629 535 660 q 629 558 610 599 q 649 472 649 518 q 623 367 649 414 q 556 278 597 319 q 465 201 515 238 q 363 127 414 164 q 265 51 311 90 q 189 -33 219 11 l 661 -33 l 661 -139 z "},"₃":{"ha":714,"x_min":44,"x_max":669,"o":"m 347 -139 q 176 -113 256 -139 q 44 -42 97 -87 l 93 49 q 190 -4 125 21 q 332 -29 256 -29 q 499 8 439 -29 q 558 103 558 44 q 542 162 558 136 q 490 205 526 188 q 394 233 453 222 q 250 247 335 243 l 250 354 q 387 363 332 354 q 474 389 442 372 q 521 428 507 406 q 535 479 535 451 q 485 557 535 528 q 326 586 436 586 q 192 566 253 586 q 101 524 131 546 l 51 611 q 104 643 72 628 q 174 670 136 658 q 256 688 213 682 q 346 694 300 694 q 477 678 421 694 q 571 634 533 663 q 627 568 608 606 q 646 489 646 531 q 617 382 646 431 q 525 300 588 333 q 638 211 607 264 q 669 94 669 158 q 649 5 669 47 q 589 -69 629 -37 q 488 -120 549 -101 q 347 -139 428 -139 z "},"₄":{"ha":742,"x_min":44,"x_max":697,"o":"m 526 -139 l 526 49 l 44 49 l 44 136 l 547 694 l 633 694 l 633 154 l 697 154 l 697 49 l 633 49 l 633 -139 l 526 -139 m 189 154 l 532 154 l 532 529 l 189 154 z "},"₅":{"ha":724,"x_min":44,"x_max":681,"o":"m 367 -139 q 174 -104 256 -139 q 44 -25 93 -69 l 89 64 q 205 -4 139 21 q 344 -29 271 -29 q 512 20 454 -29 q 569 144 569 69 q 538 239 569 199 q 446 299 507 279 q 296 318 385 319 q 90 289 207 317 l 128 694 l 646 694 l 646 588 l 214 588 l 194 400 q 556 364 432 432 q 681 136 681 296 q 660 33 681 82 q 599 -55 639 -17 q 501 -116 560 -93 q 367 -139 443 -139 z "},"₆":{"ha":740,"x_min":44,"x_max":696,"o":"m 556 617 q 438 552 496 588 q 331 478 381 517 q 244 398 282 439 q 186 318 207 357 q 281 351 222 338 q 407 365 339 365 q 524 347 471 365 q 615 298 576 329 q 674 223 653 267 q 696 129 696 179 q 675 26 696 75 q 614 -59 654 -22 q 513 -117 574 -96 q 371 -139 451 -139 q 235 -118 296 -139 q 133 -57 175 -97 q 67 42 90 -17 q 44 174 44 100 q 157 454 44 321 q 499 694 269 588 l 556 617 m 365 -33 q 528 11 471 -33 q 585 125 585 56 q 533 222 585 183 q 365 261 481 261 q 243 248 296 261 q 161 217 190 235 q 156 186 158 203 q 153 150 153 169 q 165 78 153 111 q 203 19 178 44 q 269 -19 229 -6 q 365 -33 310 -33 z "},"₇":{"ha":714,"x_min":44,"x_max":668,"o":"m 261 -139 q 347 311 281 125 q 524 588 414 497 l 44 588 l 44 694 l 668 694 l 668 592 q 542 465 594 543 q 455 288 490 386 q 399 81 419 190 q 371 -139 379 -29 l 261 -139 z "},"₈":{"ha":729,"x_min":44,"x_max":686,"o":"m 44 94 q 59 174 44 139 q 98 235 74 208 q 155 281 122 261 q 225 315 188 300 q 160 344 190 328 q 108 381 131 360 q 74 431 86 403 q 61 497 61 460 q 80 574 61 539 q 136 637 99 610 q 231 679 174 664 q 364 694 288 694 q 498 679 440 694 q 593 637 556 664 q 649 574 631 610 q 668 497 668 539 q 655 431 668 460 q 619 381 642 403 q 567 344 597 360 q 503 315 538 328 q 574 281 540 300 q 632 235 607 261 q 672 174 657 208 q 686 94 686 140 q 667 3 686 46 q 610 -70 649 -39 q 510 -120 571 -101 q 364 -139 449 -139 q 220 -120 281 -139 q 121 -70 160 -101 q 63 3 82 -39 q 44 94 44 46 m 575 99 q 558 165 575 138 q 511 211 540 192 q 444 245 482 231 q 364 272 406 260 q 284 246 322 260 q 217 212 246 232 q 172 165 189 192 q 154 99 154 138 q 203 5 154 43 q 364 -33 253 -33 q 525 5 475 -33 q 575 99 575 43 m 172 499 q 188 451 172 471 q 229 415 203 431 q 290 386 256 399 q 364 361 325 374 q 438 386 403 374 q 500 414 474 399 q 542 450 526 429 q 557 499 557 471 q 512 560 557 533 q 364 588 467 588 q 217 560 261 588 q 172 499 172 533 z "},"₉":{"ha":740,"x_min":44,"x_max":696,"o":"m 183 -62 q 301 2 243 -33 q 408 76 358 38 q 495 156 457 115 q 554 238 533 197 q 460 204 518 218 q 333 190 401 190 q 216 208 269 190 q 124 258 163 226 q 65 332 86 289 q 44 426 44 375 q 65 529 44 481 q 126 615 85 578 q 227 673 167 651 q 368 694 288 694 q 503 674 443 694 q 607 613 564 653 q 673 514 650 572 q 696 382 696 456 q 583 101 696 235 q 242 -140 469 -32 l 183 -62 m 374 588 q 213 543 269 588 q 156 432 156 499 q 208 333 156 374 q 374 293 260 293 q 496 306 443 293 q 579 338 549 319 q 584 368 582 351 q 586 404 586 385 q 535 535 586 483 q 374 588 485 588 z "},"A":{"ha":976,"x_min":-33,"x_max":1007,"o":"m -33 -26 l 286 899 q 365 1012 310 969 q 488 1054 421 1054 q 610 1013 556 1054 q 689 899 664 972 l 1007 -26 l 881 -26 l 796 222 l 179 222 l 92 -26 l -33 -26 m 218 340 l 756 340 q 667 601 711 471 q 575 858 622 731 q 539 915 563 894 q 488 936 515 936 q 433 915 457 936 q 399 860 410 894 l 218 340 z "},"B":{"ha":918,"x_min":38,"x_max":888,"o":"m 804 379 q 875 251 863 321 q 861 119 888 181 q 775 15 835 57 q 628 -26 715 -26 l 38 -26 l 38 1054 l 593 1054 q 726 1018 672 1054 q 804 928 781 982 q 815 813 828 875 q 749 699 803 751 l 615 568 l 804 379 m 156 292 l 665 783 q 696 835 690 808 q 691 884 701 861 q 655 922 681 907 q 593 936 629 936 l 156 936 l 156 292 m 628 92 q 705 111 672 92 q 752 160 738 131 q 760 226 767 190 q 719 296 753 263 l 531 485 l 156 128 l 156 92 l 628 92 z "},"C":{"ha":769,"x_min":38,"x_max":776,"o":"m 38 663 q 65 815 38 743 q 141 940 93 886 q 253 1024 189 993 q 392 1054 318 1054 l 776 1054 l 776 936 l 392 936 q 299 915 342 936 q 224 856 256 893 q 174 768 192 818 q 156 663 156 718 l 156 243 q 165 184 156 211 q 192 136 175 157 q 233 103 210 115 q 283 92 257 92 l 776 92 l 776 -26 l 283 -26 q 188 -5 233 -26 q 110 53 143 17 q 57 138 76 89 q 38 243 38 188 l 38 663 l 38 663 z "},"D":{"ha":869,"x_min":38,"x_max":832,"o":"m 475 1054 q 615 1024 550 1054 q 728 940 679 993 q 804 815 776 886 q 832 663 832 743 l 832 243 q 813 138 832 188 q 759 53 793 89 q 680 -5 725 17 q 583 -26 635 -26 l 38 -26 l 38 1054 l 475 1054 m 714 663 q 695 768 714 718 q 644 856 676 818 q 567 915 611 893 q 475 936 524 936 l 156 936 l 156 92 l 583 92 q 635 103 611 92 q 676 136 658 115 q 704 184 694 157 q 714 243 714 211 l 714 663 z "},"E":{"ha":893,"x_min":38,"x_max":856,"o":"m 38 788 q 58 890 38 842 q 115 976 79 939 q 198 1033 150 1013 q 300 1054 246 1054 l 856 1054 l 856 936 l 300 936 q 244 924 271 936 q 198 892 218 913 q 167 845 178 872 q 156 788 156 818 l 156 618 l 856 618 l 856 500 l 156 500 l 156 228 q 194 131 156 171 q 292 92 233 92 l 856 92 l 856 -26 l 292 -26 q 192 -6 239 -26 q 111 48 146 14 q 57 128 76 82 q 38 228 38 175 l 38 788 l 38 788 z "},"F":{"ha":742,"x_min":38,"x_max":750,"o":"m 38 688 q 65 829 38 763 q 138 946 92 896 q 246 1025 183 996 q 379 1054 308 1054 l 750 1054 l 750 936 l 379 936 q 292 917 333 936 q 222 863 251 897 q 174 784 192 829 q 156 688 156 739 l 156 489 l 750 489 l 750 369 l 156 369 l 156 -26 l 38 -26 l 38 688 l 38 688 z "},"G":{"ha":1000,"x_min":38,"x_max":958,"o":"m 668 618 q 781 594 728 618 q 873 528 833 569 q 935 429 913 486 q 958 308 958 372 l 958 -26 l 294 -26 q 193 -5 240 -26 q 112 53 146 17 q 58 138 78 89 q 38 243 38 188 l 38 663 q 67 815 38 743 q 147 940 96 886 q 265 1024 197 993 q 408 1054 332 1054 l 814 1054 l 814 936 l 408 936 q 310 915 356 936 q 230 856 264 893 q 176 768 196 818 q 156 663 156 718 l 156 243 q 167 184 156 211 q 197 136 178 157 q 240 103 215 115 q 294 92 265 92 l 840 92 l 840 308 q 826 382 840 347 q 790 443 813 417 q 735 485 767 469 q 668 500 703 500 l 376 500 l 376 618 l 668 618 l 668 618 z "},"H":{"ha":921,"x_min":38,"x_max":882,"o":"m 156 -26 l 38 -26 l 38 1054 l 156 1054 l 156 639 l 764 639 l 764 1054 l 882 1054 l 882 -26 l 764 -26 l 764 519 l 156 519 l 156 -26 z "},"I":{"ha":263,"x_min":83,"x_max":201,"o":"m 201 -26 l 83 -26 l 83 1054 l 201 1054 l 201 -26 z "},"J":{"ha":897,"x_min":38,"x_max":860,"o":"m 586 1054 q 692 1033 642 1054 q 779 974 742 1011 q 838 888 817 938 q 860 782 860 839 l 860 367 q 828 215 860 286 q 744 90 797 143 q 618 5 690 36 q 465 -26 546 -26 l 38 -26 l 38 92 l 465 92 q 572 113 521 92 q 660 172 622 135 q 719 260 697 210 q 742 367 742 310 l 742 782 q 729 842 742 814 q 696 890 717 869 q 647 924 675 911 q 586 936 618 936 l 38 936 l 38 1054 l 586 1054 l 586 1054 z "},"K":{"ha":951,"x_min":38,"x_max":1001,"o":"m 581 653 l 1001 -26 l 860 -26 l 497 561 l 156 193 l 156 -26 l 38 -26 l 38 1054 l 156 1054 l 156 365 q 473 712 314 539 q 789 1054 632 885 l 951 1054 l 581 653 z "},"L":{"ha":833,"x_min":38,"x_max":838,"o":"m 156 338 q 176 242 156 288 q 233 164 197 197 q 317 111 269 131 q 418 92 364 92 l 838 92 l 838 -26 l 418 -26 q 269 2 339 -26 q 149 80 200 31 q 67 196 97 129 q 38 338 38 263 l 38 1054 l 156 1054 l 156 338 l 156 338 z "},"M":{"ha":1138,"x_min":38,"x_max":1092,"o":"m 664 1054 q 831 1020 753 1054 q 967 927 908 986 q 1058 790 1025 868 q 1092 622 1092 711 l 1092 -26 l 972 -26 l 972 622 q 949 744 972 688 q 883 844 925 801 q 786 912 842 888 q 667 936 731 936 l 631 936 l 631 -26 l 513 -26 l 513 936 l 286 936 q 193 901 231 936 q 156 815 156 865 l 156 -26 l 38 -26 l 38 815 q 57 908 38 864 q 110 984 76 951 q 188 1035 143 1017 q 286 1054 233 1054 l 664 1054 z "},"N":{"ha":1076,"x_min":38,"x_max":1032,"o":"m 1032 1054 l 1032 194 q 1006 83 1032 129 q 938 9 979 36 q 846 -24 896 -18 q 748 -17 796 -31 q 661 32 700 -3 q 604 124 622 67 l 361 861 q 314 920 347 903 q 245 933 281 938 q 183 901 210 928 q 156 828 156 874 l 156 -26 l 38 -26 l 38 828 q 65 942 38 894 q 134 1015 92 989 q 228 1049 176 1042 q 328 1041 279 1056 q 416 991 376 1026 q 475 899 456 956 l 717 163 q 763 104 731 122 q 829 90 796 86 q 888 121 863 94 q 914 194 914 147 l 914 1054 l 1032 1054 z "},"O":{"ha":897,"x_min":38,"x_max":860,"o":"m 622 1054 q 715 1035 672 1054 q 790 984 758 1017 q 841 908 822 951 q 860 815 860 864 l 860 314 q 833 181 860 243 q 759 74 806 119 q 650 1 713 28 q 515 -26 588 -26 l 276 -26 q 185 -8 228 -26 q 109 43 142 11 q 57 118 76 75 q 38 210 38 161 l 38 713 q 65 846 38 783 q 138 955 92 908 q 246 1028 183 1001 q 379 1054 308 1054 l 622 1054 m 742 815 q 732 863 742 840 q 706 901 722 885 q 669 926 690 917 q 622 936 647 936 l 379 936 q 292 918 333 936 q 222 870 251 900 q 174 799 192 840 q 156 713 156 758 l 156 210 q 165 165 156 186 q 191 127 175 143 q 229 101 207 111 q 276 92 251 92 l 515 92 q 603 109 561 92 q 675 156 644 126 q 724 227 706 186 q 742 314 742 268 l 742 815 z "},"P":{"ha":889,"x_min":38,"x_max":907,"o":"m 618 1054 q 715 1042 669 1054 q 797 1007 761 1029 q 858 953 833 985 q 894 883 883 921 q 902 794 907 838 q 878 711 897 751 q 826 635 858 671 q 750 568 793 599 l 156 181 l 156 -26 l 38 -26 l 38 1054 l 618 1054 m 683 667 q 729 703 708 683 q 765 747 750 724 q 785 794 779 769 q 783 846 790 819 q 728 912 771 888 q 618 936 685 936 l 156 936 l 156 321 q 419 494 290 408 q 683 667 549 579 z "},"Q":{"ha":985,"x_min":38,"x_max":944,"o":"m 274 -26 q 182 -8 225 -26 q 107 43 139 11 q 56 118 75 75 q 38 210 38 161 l 38 713 q 65 846 38 783 q 138 955 92 908 q 245 1028 183 1001 q 376 1054 307 1054 l 704 1054 q 797 1035 753 1054 q 873 984 840 1017 q 925 908 906 951 q 944 815 944 864 l 944 314 q 917 181 944 243 q 844 74 890 119 q 735 1 797 28 q 601 -26 672 -26 l 274 -26 m 156 210 q 165 165 156 186 q 190 127 174 143 q 227 101 206 111 q 274 92 249 92 l 601 92 q 688 109 647 92 q 759 156 729 126 q 807 227 789 186 q 825 314 825 268 l 825 815 q 790 901 825 865 q 704 936 754 936 l 376 936 q 290 918 331 936 q 220 870 250 900 q 173 799 190 840 q 156 713 156 758 l 156 210 m 146 -82 l 779 -82 l 779 -201 l 146 -201 l 146 -82 z "},"R":{"ha":901,"x_min":38,"x_max":929,"o":"m 38 1054 l 625 1054 q 768 1019 711 1054 q 847 933 825 985 q 853 820 868 881 q 779 708 838 760 l 614 565 q 691 419 650 496 q 773 266 732 343 q 854 114 814 189 q 929 -26 894 39 l 793 -26 l 521 490 l 156 176 l 156 -26 l 38 -26 l 38 1054 m 156 333 l 700 799 q 736 845 728 821 q 734 890 744 869 q 696 923 724 910 q 625 936 668 936 l 156 936 l 156 333 z "},"S":{"ha":882,"x_min":38,"x_max":847,"o":"m 688 465 q 790 383 753 432 q 837 279 826 333 q 833 170 847 225 q 783 72 819 115 q 688 1 746 28 q 554 -26 631 -26 l 38 -26 l 38 92 l 554 92 q 661 122 618 92 q 718 194 704 151 q 712 282 732 236 q 631 360 692 328 l 194 585 q 96 664 132 617 q 49 764 60 711 q 50 868 38 817 q 98 961 63 919 q 190 1028 133 1003 q 324 1054 247 1054 l 785 1054 l 785 936 l 324 936 q 217 908 258 936 q 165 842 176 881 q 174 760 154 803 q 250 689 194 718 l 688 465 z "},"T":{"ha":839,"x_min":-75,"x_max":924,"o":"m 365 936 l -75 936 l -75 1054 l 924 1054 l 924 936 l 483 936 l 483 -26 l 365 -26 l 365 936 z "},"U":{"ha":918,"x_min":38,"x_max":879,"o":"m 879 225 q 859 126 879 172 q 805 47 839 81 q 724 -7 771 13 q 625 -26 678 -26 l 403 -26 q 261 2 328 -26 q 144 80 194 31 q 66 196 94 129 q 38 338 38 263 l 38 1054 l 156 1054 l 156 338 q 175 242 156 288 q 228 164 194 197 q 306 111 261 131 q 403 92 351 92 l 625 92 q 678 102 654 92 q 722 131 703 113 q 751 174 740 150 q 761 225 761 197 l 761 1054 l 879 1054 l 879 225 z "},"V":{"ha":939,"x_min":-46,"x_max":989,"o":"m 989 1054 l 671 128 q 594 15 647 57 q 472 -26 540 -26 q 352 15 407 -26 q 274 126 297 56 l -46 1054 l 81 1054 l 386 165 q 421 111 397 131 q 472 92 444 92 q 525 112 501 92 q 560 167 549 132 l 867 1054 l 989 1054 z "},"W":{"ha":1367,"x_min":-31,"x_max":1374,"o":"m 1374 1054 l 1188 131 q 1115 15 1171 56 q 989 -26 1060 -26 q 862 15 917 -26 q 792 131 807 56 l 672 714 l 553 131 q 482 15 536 56 q 357 -26 428 -26 q 230 15 286 -26 q 157 131 174 56 l -31 1054 l 89 1054 l 274 160 q 303 110 281 128 q 357 92 325 92 q 408 110 385 92 q 438 160 431 128 l 621 1054 l 724 1054 l 906 158 q 936 109 913 126 q 989 92 960 92 q 1040 109 1017 92 q 1071 158 1064 126 l 1254 1054 l 1374 1054 z "},"X":{"ha":761,"x_min":-42,"x_max":824,"o":"m 824 -26 l 694 -26 l 485 417 q 444 465 469 449 q 391 481 418 481 q 339 466 364 482 q 300 418 314 450 l 89 -26 l -42 -26 l 193 472 q 214 502 200 488 q 243 528 228 517 q 214 553 225 539 q 192 586 203 567 l -29 1054 l 100 1054 l 300 638 q 339 594 314 610 q 392 578 364 579 q 445 592 419 578 q 485 638 471 607 l 682 1054 l 811 1054 l 590 586 q 542 529 574 549 q 569 502 556 518 q 590 471 582 486 l 824 -26 z "},"Y":{"ha":722,"x_min":-58,"x_max":785,"o":"m 785 1054 l 564 500 q 506 419 543 451 q 424 372 469 386 l 424 -26 l 304 -26 l 304 371 q 219 418 256 385 q 163 500 183 451 l -58 1054 l 68 1054 l 272 547 q 309 499 285 517 q 364 482 333 482 q 419 499 393 482 q 456 546 444 517 l 656 1054 l 785 1054 z "},"Z":{"ha":949,"x_min":33,"x_max":910,"o":"m 296 -26 q 134 11 200 -26 q 47 115 68 49 q 38 193 33 157 q 62 260 43 229 q 109 319 81 292 q 169 369 138 346 l 693 749 q 747 809 729 774 q 754 874 764 844 q 706 922 743 907 q 614 936 669 936 l 79 936 l 79 1054 l 614 1054 q 778 1017 713 1054 q 865 910 844 979 q 858 767 888 838 q 764 651 829 697 l 238 274 q 171 210 193 242 q 157 151 149 178 q 203 108 167 124 q 296 92 240 92 l 910 92 l 910 -26 l 296 -26 l 296 -26 z "},"a":{"ha":788,"x_min":6,"x_max":753,"o":"m 560 844 q 706 796 660 844 q 753 668 753 747 l 753 -26 l 242 -26 q 98 4 154 -31 q 24 91 42 39 q 31 203 6 143 q 132 308 56 263 q 359 457 244 383 q 586 604 474 531 q 622 641 610 619 q 631 681 633 663 q 610 713 628 700 q 558 726 593 726 l 29 726 l 29 844 l 560 844 m 633 510 q 579 456 618 479 l 193 207 q 142 162 154 183 q 138 125 129 140 q 174 101 147 110 q 242 92 201 92 l 633 92 l 633 510 z "},"b":{"ha":790,"x_min":38,"x_max":757,"o":"m 431 844 q 563 816 503 844 q 667 740 624 788 q 733 628 710 692 q 757 493 757 564 l 757 192 q 739 106 757 146 q 690 37 721 67 q 617 -10 658 7 q 528 -26 575 -26 l 38 -26 l 38 1054 l 156 1054 l 156 844 l 431 844 m 638 493 q 621 585 638 543 q 576 659 604 628 q 511 708 549 690 q 431 726 474 726 l 156 726 l 156 92 l 528 92 q 569 100 550 92 q 604 122 589 108 q 628 153 619 135 q 638 192 638 171 l 638 493 z "},"c":{"ha":793,"x_min":38,"x_max":758,"o":"m 38 518 q 64 646 38 586 q 135 750 90 706 q 242 820 181 794 q 372 846 303 846 l 758 846 l 758 726 l 372 726 q 287 710 326 726 q 218 665 247 693 q 172 599 189 636 q 156 518 156 561 l 156 200 q 189 124 156 156 q 271 92 222 92 l 758 92 l 758 -26 l 271 -26 q 179 -8 222 -26 q 105 40 136 10 q 56 113 74 71 q 38 200 38 154 l 38 518 l 38 518 z "},"d":{"ha":808,"x_min":38,"x_max":774,"o":"m 654 1054 l 774 1054 l 774 -26 l 324 -26 q 115 45 192 -26 q 38 240 38 117 l 38 550 q 63 665 38 611 q 131 759 88 719 q 234 822 175 799 q 360 844 293 844 l 654 844 l 654 1054 m 654 726 l 360 726 q 281 713 318 726 q 216 674 244 699 q 172 618 188 650 q 156 550 156 586 l 156 240 q 200 131 156 169 q 324 92 244 92 l 654 92 l 654 726 z "},"e":{"ha":796,"x_min":38,"x_max":783,"o":"m 224 149 q 288 107 251 122 q 365 92 324 92 l 778 92 l 778 -26 l 365 -26 q 238 -1 297 -26 q 133 70 178 25 q 63 175 89 115 q 38 301 38 235 l 38 514 q 63 642 38 582 q 133 747 89 701 q 238 818 178 792 q 365 844 297 844 l 581 844 q 706 810 657 844 q 769 726 754 776 q 763 617 783 675 q 683 513 743 560 l 224 149 m 156 310 q 158 281 156 294 q 167 257 161 267 l 611 604 q 647 645 636 624 q 655 685 658 667 q 633 715 651 703 q 581 726 615 726 l 365 726 q 283 710 321 726 q 217 665 244 693 q 172 597 189 636 q 156 514 156 558 l 156 310 z "},"f":{"ha":568,"x_min":-10,"x_max":582,"o":"m 286 553 l 582 553 l 582 433 l 286 433 l 286 -26 l 167 -26 l 167 433 l -10 433 l -10 553 l 167 553 l 167 736 q 192 859 167 801 q 263 960 218 917 q 368 1029 308 1004 q 496 1054 428 1054 l 579 1054 l 579 936 l 496 936 q 415 920 453 936 q 348 877 376 904 q 303 814 319 850 q 286 736 286 778 l 286 553 z "},"g":{"ha":836,"x_min":38,"x_max":800,"o":"m 583 863 q 667 846 628 863 q 736 799 707 829 q 783 729 765 769 q 800 643 800 689 l 800 122 q 776 3 800 58 q 712 -94 753 -53 q 615 -160 671 -136 q 496 -183 560 -183 l 82 -183 l 82 -65 l 496 -65 q 567 -52 535 -65 q 624 -16 600 -39 q 663 39 649 7 q 681 107 678 71 l 253 107 q 169 124 208 107 q 100 169 129 140 q 54 236 71 197 q 38 319 38 275 l 38 563 q 62 678 38 624 q 128 774 86 733 q 226 839 169 815 q 346 863 282 863 l 583 863 m 682 643 q 653 715 682 685 q 583 744 624 744 l 346 744 q 272 730 307 744 q 212 690 238 715 q 171 633 186 665 q 156 563 156 600 l 156 319 q 184 252 156 279 q 253 225 213 225 l 682 225 l 682 643 z "},"h":{"ha":808,"x_min":38,"x_max":774,"o":"m 454 844 q 579 822 521 844 q 681 759 638 799 q 749 665 724 719 q 774 550 774 611 l 774 -26 l 654 -26 l 654 550 q 638 618 654 586 q 595 674 622 650 q 532 713 568 699 q 454 726 496 726 l 156 726 l 156 -26 l 38 -26 l 38 1054 l 156 1054 l 156 844 l 454 844 l 454 844 z "},"i":{"ha":267,"x_min":76,"x_max":210,"o":"m 86 793 l 204 793 l 204 -26 l 86 -26 l 86 793 m 144 993 q 190 976 171 993 q 210 926 210 958 q 190 879 210 899 q 144 860 171 860 q 98 879 119 860 q 76 926 76 899 q 98 976 76 958 q 144 993 119 993 z "},"j":{"ha":264,"x_min":76,"x_max":210,"o":"m 82 793 l 200 793 l 200 -168 l 82 -168 l 82 793 m 140 993 q 188 976 167 993 q 210 926 210 958 q 188 879 210 899 q 140 860 167 860 q 96 879 115 860 q 76 926 76 899 q 96 976 76 958 q 140 993 115 993 z "},"k":{"ha":842,"x_min":38,"x_max":892,"o":"m 156 -26 l 38 -26 l 38 1054 l 156 1054 l 156 292 l 608 546 q 670 611 649 571 q 692 697 692 651 l 692 844 l 811 844 l 811 697 q 774 553 811 619 q 671 444 736 486 l 607 404 l 892 -26 l 750 -26 l 504 343 l 156 151 l 156 -26 z "},"l":{"ha":408,"x_min":126,"x_max":435,"o":"m 244 178 q 270 117 244 142 q 336 92 296 92 l 435 92 l 435 -26 l 336 -26 q 253 -11 292 -26 q 186 32 214 4 q 142 97 158 60 q 126 178 126 133 l 126 1054 l 244 1054 l 244 178 l 244 178 z "},"m":{"ha":976,"x_min":38,"x_max":936,"o":"m 568 844 q 710 817 643 844 q 828 742 778 789 q 907 630 878 694 q 936 493 936 565 l 936 -26 l 817 -26 l 817 493 q 797 585 817 542 q 744 659 778 628 q 665 708 711 690 q 568 726 619 726 l 544 726 l 544 -26 l 426 -26 l 426 726 l 286 726 q 230 714 254 726 q 189 681 206 701 q 164 635 172 660 q 156 585 156 610 l 156 -26 l 38 -26 l 38 585 q 53 678 38 632 q 101 762 69 725 q 178 822 132 799 q 286 844 225 844 l 568 844 l 568 844 z "},"n":{"ha":826,"x_min":38,"x_max":790,"o":"m 451 844 q 590 819 528 844 q 697 749 653 794 q 766 641 742 704 q 790 500 790 578 l 790 -26 l 672 -26 l 672 500 q 656 592 672 550 q 611 663 640 633 q 542 710 582 693 q 451 726 501 726 l 286 726 q 189 689 222 726 q 156 585 156 651 l 156 -26 l 38 -26 l 38 585 q 55 686 38 639 q 104 769 72 733 q 182 824 136 804 q 286 844 228 844 l 451 844 z "},"o":{"ha":893,"x_min":38,"x_max":856,"o":"m 617 844 q 708 826 665 844 q 784 774 751 807 q 836 698 817 742 q 856 606 856 654 l 856 314 q 828 181 856 243 q 753 74 800 119 q 644 1 707 28 q 513 -26 582 -26 l 274 -26 q 182 -8 225 -26 q 107 43 139 11 q 56 118 75 75 q 38 210 38 161 l 38 503 q 65 636 38 574 q 138 745 92 699 q 245 818 183 792 q 376 844 307 844 l 617 844 m 736 606 q 701 691 736 656 q 617 726 667 726 l 376 726 q 290 708 331 726 q 220 660 250 690 q 173 590 190 631 q 156 503 156 549 l 156 210 q 165 165 156 186 q 190 127 174 143 q 227 101 206 111 q 274 92 249 92 l 513 92 q 599 109 558 92 q 670 156 640 126 q 718 227 700 186 q 736 314 736 268 l 736 606 z "},"p":{"ha":821,"x_min":38,"x_max":785,"o":"m 481 844 q 599 822 543 844 q 696 759 654 799 q 761 664 738 719 q 785 544 785 608 l 785 340 q 758 227 785 281 q 686 134 732 174 q 578 72 640 94 q 446 49 517 49 l 156 49 l 156 -161 l 38 -161 l 38 532 q 63 653 38 596 q 133 753 89 710 q 238 820 178 796 q 365 844 297 844 l 481 844 m 667 544 q 655 610 667 578 q 619 669 643 643 q 561 710 596 694 q 481 726 526 726 l 365 726 q 283 711 321 726 q 217 669 244 696 q 172 608 189 643 q 156 532 156 572 l 156 167 l 446 167 q 532 181 492 167 q 602 218 572 194 q 649 273 632 242 q 667 340 667 304 l 667 544 z "},"q":{"ha":842,"x_min":38,"x_max":806,"o":"m 589 844 q 674 828 635 844 q 743 785 714 813 q 789 720 772 757 q 806 640 806 683 l 806 -161 l 688 -161 l 688 49 l 386 49 q 248 69 311 49 q 136 129 185 90 q 63 224 88 169 q 38 340 38 278 l 38 544 q 56 660 38 608 q 114 753 74 713 q 346 844 194 844 l 589 844 m 688 640 q 659 701 688 676 q 589 726 631 726 l 346 726 q 257 710 293 726 q 198 668 221 694 q 165 610 175 642 q 156 544 156 578 l 156 340 q 173 271 156 303 q 221 216 190 239 q 294 180 251 193 q 386 167 336 167 l 688 167 l 688 640 z "},"r":{"ha":526,"x_min":38,"x_max":590,"o":"m 38 500 q 62 641 38 578 q 131 749 86 704 q 238 819 175 794 q 376 844 300 844 l 590 844 l 590 726 l 376 726 q 286 710 326 726 q 217 663 246 693 q 172 592 188 633 q 156 500 156 550 l 156 -26 l 38 -26 l 38 500 l 38 500 z "},"s":{"ha":785,"x_min":-43,"x_max":843,"o":"m 168 506 q 88 610 107 551 q 88 722 69 669 q 158 809 106 774 q 290 844 210 844 l 843 844 l 843 726 l 290 726 q 233 715 257 726 q 201 687 210 704 q 200 647 192 669 q 239 600 208 624 l 629 306 q 713 202 690 260 q 722 94 736 144 q 659 8 708 43 q 526 -26 610 -26 l -43 -26 l -43 92 l 526 92 q 583 101 561 92 q 609 128 604 111 q 602 165 614 144 q 560 208 590 186 l 168 506 z "},"t":{"ha":565,"x_min":-36,"x_max":614,"o":"m 225 146 q 392 92 271 92 l 614 92 l 614 -26 l 392 -26 q 137 60 218 -26 q 56 338 56 147 l 56 726 l -36 726 l -36 844 l 56 844 l 56 1054 l 174 1054 l 174 844 l 594 844 l 594 726 l 174 726 l 174 338 q 225 146 174 201 z "},"u":{"ha":878,"x_min":38,"x_max":840,"o":"m 721 844 l 840 844 l 840 228 q 821 128 840 175 q 767 48 801 82 q 686 -6 732 14 q 586 -26 640 -26 l 406 -26 q 262 3 329 -26 q 144 82 194 32 q 66 199 94 132 q 38 343 38 267 l 38 844 l 156 844 l 156 343 q 175 246 156 292 q 228 166 194 200 q 308 112 263 132 q 406 92 354 92 l 586 92 q 683 131 644 92 q 721 228 721 171 l 721 844 z "},"v":{"ha":790,"x_min":-22,"x_max":814,"o":"m 689 844 l 814 844 l 572 92 q 533 27 560 53 q 471 -12 506 1 q 398 -26 436 -26 q 325 -14 360 -26 q 262 25 290 -1 q 221 92 233 51 l -22 844 l 104 844 l 333 126 q 358 99 339 108 q 397 90 376 90 q 437 99 418 90 q 461 126 456 108 l 689 844 z "},"w":{"ha":1089,"x_min":-19,"x_max":1100,"o":"m 981 844 l 1100 844 l 949 103 q 890 7 933 40 q 788 -26 846 -26 q 683 7 726 -26 q 624 103 639 40 l 540 501 q 499 302 519 401 q 460 103 479 203 q 401 7 444 40 q 296 -26 357 -26 q 193 7 238 -26 q 133 103 149 40 l -19 844 l 101 844 l 247 131 q 269 101 254 110 q 296 92 283 92 q 323 99 310 92 q 343 131 336 107 l 489 844 l 590 844 l 736 135 q 759 101 744 111 q 788 92 774 92 q 815 99 801 92 q 835 131 828 107 l 981 844 z "},"x":{"ha":743,"x_min":-50,"x_max":797,"o":"m 160 365 q 189 401 171 385 q 226 429 207 418 l -14 844 l 119 844 l 290 553 q 374 476 335 478 q 457 553 413 474 l 628 844 l 761 844 l 524 429 q 560 403 543 418 q 586 368 576 388 l 797 -26 l 664 -26 l 485 306 q 438 347 469 333 q 374 361 407 361 q 310 347 340 361 q 265 307 279 333 l 83 -26 l -50 -26 l 160 365 z "},"y":{"ha":756,"x_min":-17,"x_max":779,"o":"m -17 844 l 106 844 l 263 233 q 328 133 281 167 q 450 94 375 100 l 658 844 l 779 844 l 467 -279 l 346 -279 l 418 -22 q 247 42 314 -12 q 153 201 181 97 l -17 844 z "},"z":{"ha":797,"x_min":-4,"x_max":854,"o":"m 194 218 q 156 181 169 201 q 142 140 142 160 q 161 107 143 121 q 217 92 179 93 l 854 92 l 854 -26 l 217 -26 q 91 13 139 -26 q 30 106 43 51 q 41 219 17 160 q 132 318 65 278 l 614 596 q 652 635 642 613 q 655 677 663 657 q 623 712 647 697 q 557 726 599 726 l -4 726 l -4 844 l 557 844 q 658 826 614 844 q 731 779 701 808 q 772 713 760 750 q 778 637 785 675 q 747 561 772 599 q 675 494 722 524 l 514 401 l 194 218 z "},"Þ":{"ha":946,"x_min":38,"x_max":921,"o":"m 618 967 q 797 919 722 967 q 894 794 871 871 q 878 621 921 703 q 750 479 835 539 l 156 92 l 156 -26 l 38 -26 l 38 1054 l 156 1054 l 156 967 l 618 967 m 683 578 q 729 615 708 594 q 765 658 750 635 q 785 706 779 681 q 783 758 790 732 q 728 823 771 799 q 618 847 685 847 l 156 847 l 156 233 l 683 578 z "},"ß":{"ha":844,"x_min":38,"x_max":808,"o":"m 592 618 q 677 601 638 618 q 746 553 717 583 q 792 479 775 522 q 808 385 808 436 l 808 192 q 795 108 808 147 q 756 39 782 69 q 693 -9 731 8 q 608 -26 656 -26 l 282 -26 l 282 92 l 608 92 q 668 118 646 92 q 690 192 690 144 l 690 385 q 655 468 690 436 q 556 500 619 500 l 282 500 l 282 618 l 472 618 l 472 813 q 445 903 472 871 q 369 936 418 936 l 292 936 q 238 924 263 936 q 195 890 214 911 q 166 842 176 869 q 156 782 156 814 l 156 -26 l 38 -26 l 38 782 q 57 887 38 838 q 111 974 76 936 q 192 1033 146 1011 q 292 1054 239 1054 l 369 1054 q 532 990 472 1054 q 592 813 592 925 l 592 618 z "},"ð":{"ha":842,"x_min":38,"x_max":808,"o":"m 769 468 q 803 294 808 382 q 758 135 799 207 q 645 19 718 64 q 475 -26 572 -26 l 289 -26 q 190 -7 236 -26 q 110 47 144 13 q 57 126 76 81 q 38 225 38 172 l 38 331 q 66 472 38 406 q 144 586 94 538 q 260 663 193 635 q 401 692 326 692 l 533 692 l 475 818 l 86 818 l 86 936 l 421 936 l 368 1054 l 497 1054 l 551 936 l 769 936 l 769 818 l 607 818 l 769 468 m 471 92 q 581 123 533 93 q 656 199 629 153 q 686 302 683 246 q 663 415 689 358 l 588 574 l 401 574 q 306 555 351 574 q 228 503 261 536 q 175 426 194 471 q 156 331 156 382 l 156 225 q 166 174 156 197 q 194 131 176 150 q 237 102 213 113 q 289 92 261 92 l 471 92 z "},"þ":{"ha":836,"x_min":38,"x_max":800,"o":"m 457 844 q 590 817 528 844 q 699 744 653 790 q 773 634 746 697 q 800 500 800 571 l 800 283 q 782 160 800 217 q 731 61 764 103 q 525 -26 653 -26 l 156 -26 l 156 -161 l 38 -161 l 38 1018 l 156 1018 l 156 844 l 457 844 m 682 500 q 664 588 682 546 q 615 660 646 629 q 544 708 585 690 q 457 726 503 726 l 156 726 l 156 92 l 525 92 q 642 142 601 92 q 682 283 682 192 l 682 500 z "}," ":{"ha":490,"x_min":0,"x_max":0,"o":""},"ı":{"ha":267,"x_min":86,"x_max":204,"o":"m 86 793 l 204 793 l 204 -26 l 86 -26 l 86 793 z "},"š":{"ha":803,"x_min":-43,"x_max":843,"o":"m 168 506 q 88 610 107 551 q 88 722 69 669 q 158 809 106 774 q 290 844 210 844 l 843 844 l 843 726 l 290 726 q 233 715 257 726 q 201 687 210 704 q 200 647 192 669 q 239 600 208 624 l 629 306 q 713 202 690 260 q 722 94 736 144 q 659 8 708 43 q 526 -26 610 -26 l -43 -26 l -43 92 l 526 92 q 583 101 561 92 q 609 128 604 111 q 602 165 614 144 q 560 208 590 186 l 168 506 m 646 1124 l 450 865 l 350 865 l 154 1124 l 282 1124 l 400 965 l 519 1124 l 646 1124 z "},"Š":{"ha":882,"x_min":38,"x_max":847,"o":"m 688 465 q 790 383 753 432 q 837 279 826 333 q 833 170 847 225 q 783 72 819 115 q 688 1 746 28 q 554 -26 631 -26 l 38 -26 l 38 92 l 554 92 q 661 122 618 92 q 718 194 704 151 q 712 282 732 236 q 631 360 692 328 l 194 585 q 96 664 132 617 q 49 764 60 711 q 50 868 38 817 q 98 961 63 919 q 190 1028 133 1003 q 324 1054 247 1054 l 785 1054 l 785 936 l 324 936 q 217 908 258 936 q 165 842 176 881 q 174 760 154 803 q 250 689 194 718 l 688 465 m 686 1333 l 490 1075 l 390 1075 l 194 1333 l 322 1333 l 440 1175 l 560 1333 l 686 1333 z "},"Œ":{"ha":1593,"x_min":38,"x_max":1558,"o":"m 622 1054 q 727 1029 679 1054 q 807 964 775 1004 q 893 1030 843 1006 q 1003 1054 943 1054 l 1558 1054 l 1558 936 l 1003 936 q 907 899 947 936 q 860 806 867 861 l 860 618 l 1558 618 l 1558 500 l 860 500 l 860 314 q 859 300 860 307 q 858 286 858 293 l 858 228 q 897 131 858 171 q 994 92 936 92 l 1558 92 l 1558 -26 l 994 -26 q 867 6 924 -26 q 778 93 811 39 q 662 6 729 38 q 515 -26 594 -26 l 276 -26 q 185 -8 228 -26 q 109 43 142 11 q 57 118 76 75 q 38 210 38 161 l 38 713 q 65 846 38 783 q 138 955 92 908 q 246 1028 183 1001 q 379 1054 308 1054 l 622 1054 m 740 788 q 740 801 740 794 q 742 814 740 807 l 742 815 q 732 863 742 840 q 706 901 722 885 q 669 926 690 917 q 622 936 647 936 l 379 936 q 292 918 333 936 q 222 870 251 900 q 174 799 192 840 q 156 713 156 758 l 156 210 q 165 165 156 186 q 191 127 175 143 q 229 101 207 111 q 276 92 251 92 l 515 92 q 597 107 558 92 q 665 148 635 122 q 715 209 696 174 q 740 286 735 244 l 740 788 z "},"µ":{"ha":878,"x_min":38,"x_max":840,"o":"m 721 844 l 840 844 l 840 228 q 821 128 840 175 q 767 48 801 82 q 686 -6 732 14 q 586 -26 640 -26 l 406 -26 q 261 3 328 -26 q 144 82 194 32 l 144 -139 l 38 -139 l 38 844 l 156 844 l 156 343 q 175 246 156 292 q 228 166 194 200 q 308 112 263 132 q 406 92 354 92 l 586 92 q 683 131 644 92 q 721 228 721 171 l 721 844 z "},"œ":{"ha":1501,"x_min":38,"x_max":1482,"o":"m 617 844 q 733 813 679 844 q 818 732 786 782 q 927 814 864 783 q 1064 844 990 844 l 1279 844 q 1404 810 1356 844 q 1467 726 1453 776 q 1462 617 1482 675 q 1382 513 1442 560 l 922 149 q 986 107 950 122 q 1064 92 1022 92 l 1476 92 l 1476 -26 l 1064 -26 q 907 13 978 -26 q 792 118 836 51 q 672 13 744 51 q 513 -26 599 -26 l 274 -26 q 182 -8 225 -26 q 107 43 139 11 q 56 118 75 75 q 38 210 38 161 l 38 503 q 65 636 38 574 q 138 745 92 699 q 245 818 183 792 q 376 844 307 844 l 617 844 m 736 606 q 701 691 736 656 q 617 726 667 726 l 376 726 q 290 708 331 726 q 220 660 250 690 q 173 590 190 631 q 156 503 156 549 l 156 210 q 165 165 156 186 q 190 127 174 143 q 227 101 206 111 q 274 92 249 92 l 513 92 q 599 109 558 92 q 670 156 640 126 q 718 227 700 186 q 736 314 736 268 l 736 606 m 1064 726 q 988 712 1024 726 q 924 672 951 697 q 878 613 896 647 q 856 540 860 579 l 856 314 q 854 293 856 300 q 865 257 857 271 l 1310 604 q 1346 645 1335 624 q 1353 685 1357 667 q 1332 715 1350 703 q 1279 726 1314 726 l 1064 726 z "},"Ÿ":{"ha":722,"x_min":-58,"x_max":785,"o":"m 785 1054 l 564 500 q 506 419 543 451 q 424 372 469 386 l 424 -26 l 304 -26 l 304 371 q 219 418 256 385 q 163 500 183 451 l -58 1054 l 68 1054 l 272 547 q 309 499 285 517 q 364 482 333 482 q 419 499 393 482 q 456 546 444 517 l 656 1054 l 785 1054 m 140 1156 q 165 1214 140 1189 q 222 1239 190 1239 q 279 1214 254 1239 q 304 1156 304 1189 q 279 1099 304 1124 q 222 1074 254 1074 q 165 1099 190 1074 q 140 1156 140 1124 m 417 1156 q 442 1214 417 1189 q 499 1239 467 1239 q 556 1214 531 1239 q 581 1156 581 1189 q 556 1099 581 1124 q 499 1074 531 1074 q 442 1099 467 1074 q 417 1156 417 1124 z "},"Ž":{"ha":949,"x_min":33,"x_max":910,"o":"m 296 -26 q 134 11 200 -26 q 47 115 68 49 q 38 193 33 157 q 62 260 43 229 q 109 319 81 292 q 169 369 138 346 l 693 749 q 747 809 729 774 q 754 874 764 844 q 706 922 743 907 q 614 936 669 936 l 79 936 l 79 1054 l 614 1054 q 778 1017 713 1054 q 865 910 844 979 q 858 767 888 838 q 764 651 829 697 l 238 274 q 171 210 193 242 q 157 151 149 178 q 203 108 167 124 q 296 92 240 92 l 910 92 l 910 -26 l 296 -26 m 719 1333 l 524 1075 l 424 1075 l 228 1333 l 356 1333 l 474 1175 l 593 1333 l 719 1333 z "},"ž":{"ha":797,"x_min":-4,"x_max":854,"o":"m 194 218 q 156 181 169 201 q 142 140 142 160 q 161 107 143 121 q 217 92 179 93 l 854 92 l 854 -26 l 217 -26 q 91 13 139 -26 q 30 106 43 51 q 41 219 17 160 q 132 318 65 278 l 614 596 q 652 635 642 613 q 655 677 663 657 q 623 712 647 697 q 557 726 599 726 l -4 726 l -4 844 l 557 844 q 658 826 614 844 q 731 779 701 808 q 772 713 760 750 q 778 637 785 675 q 747 561 772 599 q 675 494 722 524 l 514 401 l 194 218 m 643 1124 l 447 865 l 347 865 l 151 1124 l 279 1124 l 397 965 l 517 1124 l 643 1124 z "},"ł":{"ha":408,"x_min":-21,"x_max":435,"o":"m 244 178 q 270 117 244 142 q 336 92 296 92 l 435 92 l 435 -26 l 336 -26 q 253 -11 292 -26 q 186 32 214 4 q 142 97 158 60 q 126 178 126 133 l 126 851 l -21 808 l -21 928 l 126 969 l 126 1054 l 244 1054 l 244 1004 l 394 1047 l 394 929 l 244 885 l 244 178 l 244 178 z "},"Ł":{"ha":833,"x_min":-72,"x_max":838,"o":"m 156 338 q 176 242 156 288 q 233 164 197 197 q 317 111 269 131 q 418 92 364 92 l 838 92 l 838 -26 l 418 -26 q 269 2 339 -26 q 149 80 200 31 q 67 196 97 129 q 38 338 38 263 l 38 672 l -72 636 l -72 756 l 38 792 l 38 1054 l 156 1054 l 156 832 l 421 922 l 421 803 l 156 713 l 156 338 l 156 338 z "},"ﬂ":{"ha":978,"x_min":-10,"x_max":1003,"o":"m 813 178 q 838 117 813 142 q 904 92 864 92 l 1003 92 l 1003 -26 l 904 -26 q 821 -11 860 -26 q 754 32 782 4 q 710 97 726 60 q 694 178 694 133 l 694 936 l 496 936 q 415 920 453 936 q 348 877 376 904 q 303 814 319 850 q 286 736 286 778 l 286 553 l 582 553 l 582 433 l 286 433 l 286 -26 l 167 -26 l 167 433 l -10 433 l -10 553 l 167 553 l 167 736 q 192 859 167 801 q 263 960 218 917 q 368 1029 308 1004 q 496 1054 428 1054 l 814 1054 l 814 936 l 813 936 l 813 178 l 813 178 z "},"ﬁ":{"ha":836,"x_min":-10,"x_max":778,"o":"m 286 696 l 774 696 l 774 -26 l 654 -26 l 654 576 l 286 576 l 286 -26 l 167 -26 l 167 576 l -10 576 l -10 696 l 167 696 l 167 736 q 192 859 167 801 q 263 960 218 917 q 368 1029 308 1004 q 496 1054 428 1054 l 713 1054 q 758 1037 739 1054 q 778 988 778 1019 q 758 941 778 960 q 713 922 739 922 q 672 936 690 922 l 496 936 q 415 920 453 936 q 348 877 376 904 q 303 814 319 850 q 286 736 286 778 l 286 696 z "},"À":{"ha":976,"x_min":-33,"x_max":1007,"o":"m -33 -26 l 286 899 q 365 1012 310 969 q 488 1054 421 1054 q 610 1013 556 1054 q 689 899 664 972 l 1007 -26 l 881 -26 l 796 222 l 179 222 l 92 -26 l -33 -26 m 218 340 l 756 340 q 667 601 711 471 q 575 858 622 731 q 539 915 563 894 q 488 936 515 936 q 433 915 457 936 q 399 860 410 894 l 218 340 m 508 1082 l 342 1364 l 467 1364 l 632 1082 l 508 1082 z "},"Á":{"ha":976,"x_min":-33,"x_max":1007,"o":"m -33 -26 l 286 899 q 365 1012 310 969 q 488 1054 421 1054 q 610 1013 556 1054 q 689 899 664 972 l 1007 -26 l 881 -26 l 796 222 l 179 222 l 92 -26 l -33 -26 m 218 340 l 756 340 q 667 601 711 471 q 575 858 622 731 q 539 915 563 894 q 488 936 515 936 q 433 915 457 936 q 399 860 410 894 l 218 340 m 342 1082 l 508 1364 l 632 1364 l 467 1082 l 342 1082 z "},"Â":{"ha":976,"x_min":-33,"x_max":1007,"o":"m -33 -26 l 286 899 q 365 1012 310 969 q 488 1054 421 1054 q 610 1013 556 1054 q 689 899 664 972 l 1007 -26 l 881 -26 l 796 222 l 179 222 l 92 -26 l -33 -26 m 218 340 l 756 340 q 667 601 711 471 q 575 858 622 731 q 539 915 563 894 q 488 936 515 936 q 433 915 457 936 q 399 860 410 894 l 218 340 m 242 1082 l 438 1339 l 539 1339 l 733 1082 l 607 1082 l 489 1239 l 369 1082 l 242 1082 z "},"Ã":{"ha":976,"x_min":-33,"x_max":1007,"o":"m -33 -26 l 286 899 q 365 1012 310 969 q 488 1054 421 1054 q 610 1013 556 1054 q 689 899 664 972 l 1007 -26 l 881 -26 l 796 222 l 179 222 l 92 -26 l -33 -26 m 218 340 l 756 340 q 667 601 711 471 q 575 858 622 731 q 539 915 563 894 q 488 936 515 936 q 433 915 457 936 q 399 860 410 894 l 218 340 m 768 1294 q 758 1212 768 1250 q 730 1144 749 1174 q 683 1099 711 1115 q 617 1082 654 1082 q 540 1097 572 1082 q 482 1128 508 1111 q 432 1160 456 1146 q 381 1175 408 1175 q 311 1082 311 1175 l 204 1082 q 214 1164 204 1125 q 243 1232 224 1203 q 291 1278 263 1261 q 357 1294 319 1294 q 426 1280 396 1294 q 481 1247 456 1265 q 533 1215 507 1229 q 592 1200 558 1200 q 642 1224 624 1200 q 661 1294 661 1247 l 768 1294 z "},"Å":{"ha":976,"x_min":-33,"x_max":1007,"o":"m -33 -26 l 286 899 q 365 1012 310 969 q 488 1054 421 1054 q 610 1013 556 1054 q 689 899 664 972 l 1007 -26 l 881 -26 l 796 222 l 179 222 l 92 -26 l -33 -26 m 218 340 l 756 340 q 667 601 711 471 q 575 858 622 731 q 539 915 563 894 q 488 936 515 936 q 433 915 457 936 q 399 860 410 894 l 218 340 m 486 1078 q 316 1122 378 1078 q 254 1246 254 1167 q 312 1367 254 1319 q 486 1415 369 1415 q 660 1368 603 1415 q 718 1246 718 1321 q 701 1177 718 1208 q 654 1124 685 1146 q 581 1090 624 1101 q 486 1078 538 1078 m 486 1299 q 401 1283 422 1299 q 381 1246 381 1267 q 401 1210 381 1225 q 486 1194 422 1194 q 570 1210 547 1194 q 593 1246 593 1225 q 572 1284 593 1269 q 486 1299 550 1299 z "},"Æ":{"ha":1250,"x_min":-33,"x_max":1207,"o":"m 286 899 q 365 1012 310 969 q 488 1054 421 1054 l 1207 1054 l 1207 936 l 856 936 q 800 924 826 936 q 753 892 774 913 q 722 845 733 872 q 711 788 711 818 l 711 618 l 1207 618 l 1207 500 l 711 500 l 711 228 q 750 131 711 171 q 847 92 789 92 l 1207 92 l 1207 -26 l 847 -26 q 749 -7 794 -26 q 669 47 703 13 q 615 126 635 81 q 593 222 594 171 l 179 222 l 92 -26 l -33 -26 l 286 899 m 593 788 q 638 936 593 871 l 488 936 q 433 915 457 936 q 399 860 410 894 l 218 340 l 593 340 l 593 788 z "},"Ç":{"ha":769,"x_min":38,"x_max":776,"o":"m 394 -208 q 456 -240 426 -237 q 501 -227 485 -242 q 516 -185 518 -212 q 485 -128 514 -158 q 437 -72 453 -96 q 414 -26 421 -49 l 283 -26 q 188 -5 233 -26 q 110 53 143 17 q 57 138 76 89 q 38 243 38 188 l 38 663 q 65 815 38 743 q 141 940 93 886 q 253 1024 189 993 q 392 1054 318 1054 l 776 1054 l 776 936 l 392 936 q 299 915 342 936 q 224 856 256 893 q 174 768 192 818 q 156 663 156 718 l 156 243 q 165 184 156 211 q 192 136 175 157 q 233 103 210 115 q 283 92 257 92 l 776 92 l 776 -26 l 522 -26 q 540 -55 529 -42 q 569 -87 550 -68 q 620 -171 610 -128 q 619 -251 631 -214 q 576 -313 607 -287 q 503 -347 544 -339 q 415 -340 463 -354 q 322 -279 368 -325 l 394 -208 z "},"È":{"ha":893,"x_min":38,"x_max":856,"o":"m 38 788 q 58 890 38 842 q 115 976 79 939 q 198 1033 150 1013 q 300 1054 246 1054 l 856 1054 l 856 936 l 300 936 q 244 924 271 936 q 198 892 218 913 q 167 845 178 872 q 156 788 156 818 l 156 618 l 856 618 l 856 500 l 156 500 l 156 228 q 194 131 156 171 q 292 92 233 92 l 856 92 l 856 -26 l 292 -26 q 192 -6 239 -26 q 111 48 146 14 q 57 128 76 82 q 38 228 38 175 l 38 788 m 467 1082 l 300 1364 l 425 1364 l 590 1082 l 467 1082 z "},"É":{"ha":893,"x_min":38,"x_max":856,"o":"m 38 788 q 58 890 38 842 q 115 976 79 939 q 198 1033 150 1013 q 300 1054 246 1054 l 856 1054 l 856 936 l 300 936 q 244 924 271 936 q 198 892 218 913 q 167 845 178 872 q 156 788 156 818 l 156 618 l 856 618 l 856 500 l 156 500 l 156 228 q 194 131 156 171 q 292 92 233 92 l 856 92 l 856 -26 l 292 -26 q 192 -6 239 -26 q 111 48 146 14 q 57 128 76 82 q 38 228 38 175 l 38 788 m 300 1082 l 467 1364 l 590 1364 l 425 1082 l 300 1082 z "},"Ê":{"ha":893,"x_min":38,"x_max":856,"o":"m 38 788 q 58 890 38 842 q 115 976 79 939 q 198 1033 150 1013 q 300 1054 246 1054 l 856 1054 l 856 936 l 300 936 q 244 924 271 936 q 198 892 218 913 q 167 845 178 872 q 156 788 156 818 l 156 618 l 856 618 l 856 500 l 156 500 l 156 228 q 194 131 156 171 q 292 92 233 92 l 856 92 l 856 -26 l 292 -26 q 192 -6 239 -26 q 111 48 146 14 q 57 128 76 82 q 38 228 38 175 l 38 788 m 200 1082 l 396 1339 l 497 1339 l 692 1082 l 565 1082 l 447 1239 l 328 1082 l 200 1082 z "},"Ä":{"ha":976,"x_min":-33,"x_max":1007,"o":"m -33 -26 l 286 899 q 365 1012 310 969 q 488 1054 421 1054 q 610 1013 556 1054 q 689 899 664 972 l 1007 -26 l 881 -26 l 796 222 l 179 222 l 92 -26 l -33 -26 m 218 340 l 756 340 q 667 601 711 471 q 575 858 622 731 q 539 915 563 894 q 488 936 515 936 q 433 915 457 936 q 399 860 410 894 l 218 340 m 267 1188 q 292 1246 267 1221 q 349 1271 317 1271 q 406 1246 381 1271 q 431 1188 431 1221 q 406 1131 431 1156 q 349 1106 381 1106 q 292 1131 317 1106 q 267 1188 267 1156 m 543 1188 q 568 1246 543 1221 q 625 1271 593 1271 q 682 1246 657 1271 q 707 1188 707 1221 q 682 1131 707 1156 q 625 1106 657 1106 q 568 1131 593 1106 q 543 1188 543 1156 z "},"ä":{"ha":788,"x_min":6,"x_max":753,"o":"m 560 844 q 706 796 660 844 q 753 668 753 747 l 753 -26 l 242 -26 q 98 4 154 -31 q 24 91 42 39 q 31 203 6 143 q 132 308 56 263 q 359 457 244 383 q 586 604 474 531 q 622 641 610 619 q 631 681 633 663 q 610 713 628 700 q 558 726 593 726 l 29 726 l 29 844 l 560 844 m 633 510 q 579 456 618 479 l 193 207 q 142 162 154 183 q 138 125 129 140 q 174 101 147 110 q 242 92 201 92 l 633 92 l 633 510 m 172 978 q 197 1036 172 1011 q 254 1061 222 1061 q 311 1036 286 1061 q 336 978 336 1011 q 311 921 336 946 q 254 896 286 896 q 197 921 222 896 q 172 978 172 946 m 449 978 q 474 1036 449 1011 q 531 1061 499 1061 q 588 1036 563 1061 q 613 978 613 1011 q 588 921 613 946 q 531 896 563 896 q 474 921 499 896 q 449 978 449 946 z "},"Ë":{"ha":893,"x_min":38,"x_max":856,"o":"m 38 788 q 58 890 38 842 q 115 976 79 939 q 198 1033 150 1013 q 300 1054 246 1054 l 856 1054 l 856 936 l 300 936 q 244 924 271 936 q 198 892 218 913 q 167 845 178 872 q 156 788 156 818 l 156 618 l 856 618 l 856 500 l 156 500 l 156 228 q 194 131 156 171 q 292 92 233 92 l 856 92 l 856 -26 l 292 -26 q 192 -6 239 -26 q 111 48 146 14 q 57 128 76 82 q 38 228 38 175 l 38 788 m 225 1188 q 250 1246 225 1221 q 307 1271 275 1271 q 364 1246 339 1271 q 389 1188 389 1221 q 364 1131 389 1156 q 307 1106 339 1106 q 250 1131 275 1106 q 225 1188 225 1156 m 501 1188 q 526 1246 501 1221 q 583 1271 551 1271 q 640 1246 615 1271 q 665 1188 665 1221 q 640 1131 665 1156 q 583 1106 615 1106 q 526 1131 551 1106 q 501 1188 501 1156 z "},"Ì":{"ha":263,"x_min":-14,"x_max":276,"o":"m 201 -26 l 83 -26 l 83 1054 l 201 1054 l 201 -26 m 153 1082 l -14 1364 l 111 1364 l 276 1082 l 153 1082 z "},"Í":{"ha":263,"x_min":-14,"x_max":276,"o":"m 201 -26 l 83 -26 l 83 1054 l 201 1054 l 201 -26 m -14 1082 l 153 1364 l 276 1364 l 111 1082 l -14 1082 z "},"Î":{"ha":263,"x_min":-107,"x_max":385,"o":"m 201 -26 l 83 -26 l 83 1054 l 201 1054 l 201 -26 m -107 1082 l 89 1339 l 190 1339 l 385 1082 l 258 1082 l 140 1239 l 21 1082 l -107 1082 z "},"Ï":{"ha":263,"x_min":-79,"x_max":361,"o":"m 201 -26 l 83 -26 l 83 1054 l 201 1054 l 201 -26 m -79 1188 q -54 1246 -79 1221 q 3 1271 -29 1271 q 60 1246 35 1271 q 85 1188 85 1221 q 60 1131 85 1156 q 3 1106 35 1106 q -54 1131 -29 1106 q -79 1188 -79 1156 m 197 1188 q 222 1246 197 1221 q 279 1271 247 1271 q 336 1246 311 1271 q 361 1188 361 1221 q 336 1131 361 1156 q 279 1106 311 1106 q 222 1131 247 1106 q 197 1188 197 1156 z "},"Ð":{"ha":869,"x_min":-68,"x_max":832,"o":"m 475 1054 q 615 1024 550 1054 q 728 940 679 993 q 804 815 776 886 q 832 663 832 743 l 832 243 q 813 138 832 188 q 759 53 793 89 q 680 -5 725 17 q 583 -26 635 -26 l 38 -26 l 38 421 l -68 421 l -68 540 l 38 540 l 38 1054 l 475 1054 m 415 421 l 156 421 l 156 92 l 583 92 q 635 103 611 92 q 676 136 658 115 q 704 184 694 157 q 714 243 714 211 l 714 663 q 695 768 714 718 q 644 856 676 818 q 567 915 611 893 q 475 936 524 936 l 156 936 l 156 540 l 415 540 l 415 421 z "},"Ñ":{"ha":1076,"x_min":38,"x_max":1032,"o":"m 1032 1054 l 1032 194 q 1006 83 1032 129 q 938 9 979 36 q 846 -24 896 -18 q 748 -17 796 -31 q 661 32 700 -3 q 604 124 622 67 l 361 861 q 314 920 347 903 q 245 933 281 938 q 183 901 210 928 q 156 828 156 874 l 156 -26 l 38 -26 l 38 828 q 65 942 38 894 q 134 1015 92 989 q 228 1049 176 1042 q 328 1041 279 1056 q 416 991 376 1026 q 475 899 456 956 l 717 163 q 763 104 731 122 q 829 90 796 86 q 888 121 863 94 q 914 194 914 147 l 914 1054 l 1032 1054 m 818 1294 q 808 1212 818 1250 q 780 1144 799 1174 q 733 1099 761 1115 q 667 1082 704 1082 q 590 1097 622 1082 q 532 1128 558 1111 q 482 1160 506 1146 q 431 1175 458 1175 q 361 1082 361 1175 l 254 1082 q 264 1164 254 1125 q 293 1232 274 1203 q 341 1278 313 1261 q 407 1294 369 1294 q 476 1280 446 1294 q 531 1247 506 1265 q 583 1215 557 1229 q 642 1200 608 1200 q 692 1224 674 1200 q 711 1294 711 1247 l 818 1294 z "},"Ò":{"ha":897,"x_min":38,"x_max":860,"o":"m 622 1054 q 715 1035 672 1054 q 790 984 758 1017 q 841 908 822 951 q 860 815 860 864 l 860 314 q 833 181 860 243 q 759 74 806 119 q 650 1 713 28 q 515 -26 588 -26 l 276 -26 q 185 -8 228 -26 q 109 43 142 11 q 57 118 76 75 q 38 210 38 161 l 38 713 q 65 846 38 783 q 138 955 92 908 q 246 1028 183 1001 q 379 1054 308 1054 l 622 1054 m 742 815 q 732 863 742 840 q 706 901 722 885 q 669 926 690 917 q 622 936 647 936 l 379 936 q 292 918 333 936 q 222 870 251 900 q 174 799 192 840 q 156 713 156 758 l 156 210 q 165 165 156 186 q 191 127 175 143 q 229 101 207 111 q 276 92 251 92 l 515 92 q 603 109 561 92 q 675 156 644 126 q 724 227 706 186 q 742 314 742 268 l 742 815 m 469 1082 l 303 1364 l 428 1364 l 593 1082 l 469 1082 z "},"Ó":{"ha":897,"x_min":38,"x_max":860,"o":"m 622 1054 q 715 1035 672 1054 q 790 984 758 1017 q 841 908 822 951 q 860 815 860 864 l 860 314 q 833 181 860 243 q 759 74 806 119 q 650 1 713 28 q 515 -26 588 -26 l 276 -26 q 185 -8 228 -26 q 109 43 142 11 q 57 118 76 75 q 38 210 38 161 l 38 713 q 65 846 38 783 q 138 955 92 908 q 246 1028 183 1001 q 379 1054 308 1054 l 622 1054 m 742 815 q 732 863 742 840 q 706 901 722 885 q 669 926 690 917 q 622 936 647 936 l 379 936 q 292 918 333 936 q 222 870 251 900 q 174 799 192 840 q 156 713 156 758 l 156 210 q 165 165 156 186 q 191 127 175 143 q 229 101 207 111 q 276 92 251 92 l 515 92 q 603 109 561 92 q 675 156 644 126 q 724 227 706 186 q 742 314 742 268 l 742 815 m 303 1082 l 469 1364 l 593 1364 l 428 1082 l 303 1082 z "},"Ô":{"ha":897,"x_min":38,"x_max":860,"o":"m 622 1054 q 715 1035 672 1054 q 790 984 758 1017 q 841 908 822 951 q 860 815 860 864 l 860 314 q 833 181 860 243 q 759 74 806 119 q 650 1 713 28 q 515 -26 588 -26 l 276 -26 q 185 -8 228 -26 q 109 43 142 11 q 57 118 76 75 q 38 210 38 161 l 38 713 q 65 846 38 783 q 138 955 92 908 q 246 1028 183 1001 q 379 1054 308 1054 l 622 1054 m 742 815 q 732 863 742 840 q 706 901 722 885 q 669 926 690 917 q 622 936 647 936 l 379 936 q 292 918 333 936 q 222 870 251 900 q 174 799 192 840 q 156 713 156 758 l 156 210 q 165 165 156 186 q 191 127 175 143 q 229 101 207 111 q 276 92 251 92 l 515 92 q 603 109 561 92 q 675 156 644 126 q 724 227 706 186 q 742 314 742 268 l 742 815 m 201 1082 l 397 1339 l 499 1339 l 693 1082 l 567 1082 l 449 1239 l 329 1082 l 201 1082 z "},"Õ":{"ha":897,"x_min":38,"x_max":860,"o":"m 622 1054 q 715 1035 672 1054 q 790 984 758 1017 q 841 908 822 951 q 860 815 860 864 l 860 314 q 833 181 860 243 q 759 74 806 119 q 650 1 713 28 q 515 -26 588 -26 l 276 -26 q 185 -8 228 -26 q 109 43 142 11 q 57 118 76 75 q 38 210 38 161 l 38 713 q 65 846 38 783 q 138 955 92 908 q 246 1028 183 1001 q 379 1054 308 1054 l 622 1054 m 742 815 q 732 863 742 840 q 706 901 722 885 q 669 926 690 917 q 622 936 647 936 l 379 936 q 292 918 333 936 q 222 870 251 900 q 174 799 192 840 q 156 713 156 758 l 156 210 q 165 165 156 186 q 191 127 175 143 q 229 101 207 111 q 276 92 251 92 l 515 92 q 603 109 561 92 q 675 156 644 126 q 724 227 706 186 q 742 314 742 268 l 742 815 m 729 1294 q 719 1212 729 1250 q 691 1144 710 1174 q 644 1099 672 1115 q 578 1082 615 1082 q 501 1097 533 1082 q 443 1128 469 1111 q 393 1160 417 1146 q 342 1175 369 1175 q 272 1082 272 1175 l 165 1082 q 175 1164 165 1125 q 204 1232 185 1203 q 252 1278 224 1261 q 318 1294 281 1294 q 387 1280 357 1294 q 442 1247 417 1265 q 494 1215 468 1229 q 553 1200 519 1200 q 603 1224 585 1200 q 622 1294 622 1247 l 729 1294 z "},"Ö":{"ha":897,"x_min":38,"x_max":860,"o":"m 622 1054 q 715 1035 672 1054 q 790 984 758 1017 q 841 908 822 951 q 860 815 860 864 l 860 314 q 833 181 860 243 q 759 74 806 119 q 650 1 713 28 q 515 -26 588 -26 l 276 -26 q 185 -8 228 -26 q 109 43 142 11 q 57 118 76 75 q 38 210 38 161 l 38 713 q 65 846 38 783 q 138 955 92 908 q 246 1028 183 1001 q 379 1054 308 1054 l 622 1054 m 742 815 q 732 863 742 840 q 706 901 722 885 q 669 926 690 917 q 622 936 647 936 l 379 936 q 292 918 333 936 q 222 870 251 900 q 174 799 192 840 q 156 713 156 758 l 156 210 q 165 165 156 186 q 191 127 175 143 q 229 101 207 111 q 276 92 251 92 l 515 92 q 603 109 561 92 q 675 156 644 126 q 724 227 706 186 q 742 314 742 268 l 742 815 m 228 1188 q 253 1246 228 1221 q 310 1271 278 1271 q 367 1246 342 1271 q 392 1188 392 1221 q 367 1131 392 1156 q 310 1106 342 1106 q 253 1131 278 1106 q 228 1188 228 1156 m 504 1188 q 529 1246 504 1221 q 586 1271 554 1271 q 643 1246 618 1271 q 668 1188 668 1221 q 643 1131 668 1156 q 586 1106 618 1106 q 529 1131 554 1106 q 504 1188 504 1156 z "},"Ø":{"ha":897,"x_min":29,"x_max":886,"o":"m 794 978 q 842 904 825 946 q 860 815 860 863 l 860 314 q 833 181 860 243 q 759 74 806 119 q 650 1 713 28 q 515 -26 588 -26 l 276 -26 q 231 -22 253 -26 l 174 -124 l 29 -124 l 118 33 q 60 111 82 65 q 38 210 38 157 l 38 713 q 65 846 38 783 q 138 955 92 908 q 246 1028 183 1001 q 379 1054 308 1054 l 622 1054 q 656 1051 639 1054 q 688 1044 672 1049 l 742 1140 l 886 1140 l 794 978 m 156 210 q 178 140 156 171 l 626 936 l 379 936 q 292 918 333 936 q 222 870 251 900 q 174 799 192 840 q 156 713 156 758 l 156 210 m 742 815 q 731 865 742 840 l 294 92 l 515 92 q 603 109 561 92 q 675 156 644 126 q 724 227 706 186 q 742 314 742 268 l 742 815 z "},"Ù":{"ha":918,"x_min":38,"x_max":879,"o":"m 879 225 q 859 126 879 172 q 805 47 839 81 q 724 -7 771 13 q 625 -26 678 -26 l 403 -26 q 261 2 328 -26 q 144 80 194 31 q 66 196 94 129 q 38 338 38 263 l 38 1054 l 156 1054 l 156 338 q 175 242 156 288 q 228 164 194 197 q 306 111 261 131 q 403 92 351 92 l 625 92 q 678 102 654 92 q 722 131 703 113 q 751 174 740 150 q 761 225 761 197 l 761 1054 l 879 1054 l 879 225 m 479 1082 l 313 1364 l 438 1364 l 603 1082 l 479 1082 z "},"Ú":{"ha":918,"x_min":38,"x_max":879,"o":"m 879 225 q 859 126 879 172 q 805 47 839 81 q 724 -7 771 13 q 625 -26 678 -26 l 403 -26 q 261 2 328 -26 q 144 80 194 31 q 66 196 94 129 q 38 338 38 263 l 38 1054 l 156 1054 l 156 338 q 175 242 156 288 q 228 164 194 197 q 306 111 261 131 q 403 92 351 92 l 625 92 q 678 102 654 92 q 722 131 703 113 q 751 174 740 150 q 761 225 761 197 l 761 1054 l 879 1054 l 879 225 m 313 1082 l 479 1364 l 603 1364 l 438 1082 l 313 1082 z "},"Û":{"ha":918,"x_min":38,"x_max":879,"o":"m 879 225 q 859 126 879 172 q 805 47 839 81 q 724 -7 771 13 q 625 -26 678 -26 l 403 -26 q 261 2 328 -26 q 144 80 194 31 q 66 196 94 129 q 38 338 38 263 l 38 1054 l 156 1054 l 156 338 q 175 242 156 288 q 228 164 194 197 q 306 111 261 131 q 403 92 351 92 l 625 92 q 678 102 654 92 q 722 131 703 113 q 751 174 740 150 q 761 225 761 197 l 761 1054 l 879 1054 l 879 225 m 213 1082 l 408 1339 l 510 1339 l 704 1082 l 578 1082 l 460 1239 l 340 1082 l 213 1082 z "},"Ü":{"ha":918,"x_min":38,"x_max":879,"o":"m 879 225 q 859 126 879 172 q 805 47 839 81 q 724 -7 771 13 q 625 -26 678 -26 l 403 -26 q 261 2 328 -26 q 144 80 194 31 q 66 196 94 129 q 38 338 38 263 l 38 1054 l 156 1054 l 156 338 q 175 242 156 288 q 228 164 194 197 q 306 111 261 131 q 403 92 351 92 l 625 92 q 678 102 654 92 q 722 131 703 113 q 751 174 740 150 q 761 225 761 197 l 761 1054 l 879 1054 l 879 225 m 238 1188 q 263 1246 238 1221 q 319 1271 288 1271 q 376 1246 351 1271 q 401 1188 401 1221 q 376 1131 401 1156 q 319 1106 351 1106 q 263 1131 288 1106 q 238 1188 238 1156 m 514 1188 q 539 1246 514 1221 q 596 1271 564 1271 q 653 1246 628 1271 q 678 1188 678 1221 q 653 1131 678 1156 q 596 1106 628 1106 q 539 1131 564 1106 q 514 1188 514 1156 z "},"Ý":{"ha":722,"x_min":-58,"x_max":785,"o":"m 785 1054 l 564 500 q 506 419 543 451 q 424 372 469 386 l 424 -26 l 304 -26 l 304 371 q 219 418 256 385 q 163 500 183 451 l -58 1054 l 68 1054 l 272 547 q 309 499 285 517 q 364 482 333 482 q 419 499 393 482 q 456 546 444 517 l 656 1054 l 785 1054 m 215 1082 l 382 1364 l 506 1364 l 340 1082 l 215 1082 z "},"ÿ":{"ha":756,"x_min":-17,"x_max":779,"o":"m -17 844 l 106 844 l 263 233 q 328 133 281 167 q 450 94 375 100 l 658 844 l 779 844 l 467 -279 l 346 -279 l 418 -22 q 247 42 314 -12 q 153 201 181 97 l -17 844 m 157 978 q 182 1036 157 1011 q 239 1061 207 1061 q 296 1036 271 1061 q 321 978 321 1011 q 296 921 321 946 q 239 896 271 896 q 182 921 207 896 q 157 978 157 946 m 433 978 q 458 1036 433 1011 q 515 1061 483 1061 q 572 1036 547 1061 q 597 978 597 1011 q 572 921 597 946 q 515 896 547 896 q 458 921 483 896 q 433 978 433 946 z "},"ý":{"ha":756,"x_min":-17,"x_max":779,"o":"m -17 844 l 106 844 l 263 233 q 328 133 281 167 q 450 94 375 100 l 658 844 l 779 844 l 467 -279 l 346 -279 l 418 -22 q 247 42 314 -12 q 153 201 181 97 l -17 844 m 232 872 l 399 1154 l 522 1154 l 357 872 l 232 872 z "},"ü":{"ha":878,"x_min":38,"x_max":840,"o":"m 721 844 l 840 844 l 840 228 q 821 128 840 175 q 767 48 801 82 q 686 -6 732 14 q 586 -26 640 -26 l 406 -26 q 262 3 329 -26 q 144 82 194 32 q 66 199 94 132 q 38 343 38 267 l 38 844 l 156 844 l 156 343 q 175 246 156 292 q 228 166 194 200 q 308 112 263 132 q 406 92 354 92 l 586 92 q 683 131 644 92 q 721 228 721 171 l 721 844 m 218 978 q 243 1036 218 1011 q 300 1061 268 1061 q 357 1036 332 1061 q 382 978 382 1011 q 357 921 382 946 q 300 896 332 896 q 243 921 268 896 q 218 978 218 946 m 494 978 q 519 1036 494 1011 q 576 1061 544 1061 q 633 1036 608 1061 q 658 978 658 1011 q 633 921 658 946 q 576 896 608 896 q 519 921 544 896 q 494 978 494 946 z "},"û":{"ha":878,"x_min":38,"x_max":840,"o":"m 721 844 l 840 844 l 840 228 q 821 128 840 175 q 767 48 801 82 q 686 -6 732 14 q 586 -26 640 -26 l 406 -26 q 262 3 329 -26 q 144 82 194 32 q 66 199 94 132 q 38 343 38 267 l 38 844 l 156 844 l 156 343 q 175 246 156 292 q 228 166 194 200 q 308 112 263 132 q 406 92 354 92 l 586 92 q 683 131 644 92 q 721 228 721 171 l 721 844 m 192 872 l 388 1129 l 489 1129 l 683 872 l 557 872 l 439 1029 l 319 872 l 192 872 z "},"ú":{"ha":878,"x_min":38,"x_max":840,"o":"m 721 844 l 840 844 l 840 228 q 821 128 840 175 q 767 48 801 82 q 686 -6 732 14 q 586 -26 640 -26 l 406 -26 q 262 3 329 -26 q 144 82 194 32 q 66 199 94 132 q 38 343 38 267 l 38 844 l 156 844 l 156 343 q 175 246 156 292 q 228 166 194 200 q 308 112 263 132 q 406 92 354 92 l 586 92 q 683 131 644 92 q 721 228 721 171 l 721 844 m 293 872 l 460 1154 l 583 1154 l 418 872 l 293 872 z "},"ù":{"ha":878,"x_min":38,"x_max":840,"o":"m 721 844 l 840 844 l 840 228 q 821 128 840 175 q 767 48 801 82 q 686 -6 732 14 q 586 -26 640 -26 l 406 -26 q 262 3 329 -26 q 144 82 194 32 q 66 199 94 132 q 38 343 38 267 l 38 844 l 156 844 l 156 343 q 175 246 156 292 q 228 166 194 200 q 308 112 263 132 q 406 92 354 92 l 586 92 q 683 131 644 92 q 721 228 721 171 l 721 844 m 460 872 l 293 1154 l 418 1154 l 583 872 l 460 872 z "},"ø":{"ha":893,"x_min":38,"x_max":856,"o":"m 617 844 q 708 826 665 844 q 784 774 751 807 q 836 698 817 742 q 856 606 856 654 l 856 314 q 828 181 856 243 q 753 74 800 119 q 644 1 707 28 q 513 -26 582 -26 l 274 -26 q 182 -8 225 -26 q 107 43 139 11 q 56 118 75 75 q 38 210 38 161 l 38 503 q 65 636 38 574 q 138 745 92 699 q 245 818 183 792 q 376 844 307 844 l 617 844 m 736 606 q 701 691 736 656 q 617 726 667 726 l 376 726 q 290 708 331 726 q 220 660 250 690 q 173 590 190 631 q 156 503 156 549 l 156 210 q 165 165 156 186 q 190 127 174 143 q 227 101 206 111 q 274 92 249 92 l 513 92 q 599 109 558 92 q 670 156 640 126 q 718 227 700 186 q 736 314 736 268 l 736 606 z "},"ö":{"ha":893,"x_min":38,"x_max":856,"o":"m 617 844 q 708 826 665 844 q 784 774 751 807 q 836 698 817 742 q 856 606 856 654 l 856 314 q 828 181 856 243 q 753 74 800 119 q 644 1 707 28 q 513 -26 582 -26 l 274 -26 q 182 -8 225 -26 q 107 43 139 11 q 56 118 75 75 q 38 210 38 161 l 38 503 q 65 636 38 574 q 138 745 92 699 q 245 818 183 792 q 376 844 307 844 l 617 844 m 736 606 q 701 691 736 656 q 617 726 667 726 l 376 726 q 290 708 331 726 q 220 660 250 690 q 173 590 190 631 q 156 503 156 549 l 156 210 q 165 165 156 186 q 190 127 174 143 q 227 101 206 111 q 274 92 249 92 l 513 92 q 599 109 558 92 q 670 156 640 126 q 718 227 700 186 q 736 314 736 268 l 736 606 m 225 978 q 250 1036 225 1011 q 307 1061 275 1061 q 364 1036 339 1061 q 389 978 389 1011 q 364 921 389 946 q 307 896 339 896 q 250 921 275 896 q 225 978 225 946 m 501 978 q 526 1036 501 1011 q 583 1061 551 1061 q 640 1036 615 1061 q 665 978 665 1011 q 640 921 665 946 q 583 896 615 896 q 526 921 551 896 q 501 978 501 946 z "},"õ":{"ha":893,"x_min":38,"x_max":856,"o":"m 617 844 q 708 826 665 844 q 784 774 751 807 q 836 698 817 742 q 856 606 856 654 l 856 314 q 828 181 856 243 q 753 74 800 119 q 644 1 707 28 q 513 -26 582 -26 l 274 -26 q 182 -8 225 -26 q 107 43 139 11 q 56 118 75 75 q 38 210 38 161 l 38 503 q 65 636 38 574 q 138 745 92 699 q 245 818 183 792 q 376 844 307 844 l 617 844 m 736 606 q 701 691 736 656 q 617 726 667 726 l 376 726 q 290 708 331 726 q 220 660 250 690 q 173 590 190 631 q 156 503 156 549 l 156 210 q 165 165 156 186 q 190 127 174 143 q 227 101 206 111 q 274 92 249 92 l 513 92 q 599 109 558 92 q 670 156 640 126 q 718 227 700 186 q 736 314 736 268 l 736 606 m 726 1085 q 717 1002 726 1040 q 688 935 707 964 q 641 889 669 906 q 575 872 613 872 q 499 887 531 872 q 440 919 467 901 q 390 951 414 936 q 339 965 367 965 q 269 872 269 965 l 163 872 q 172 954 163 915 q 201 1022 182 993 q 249 1068 221 1051 q 315 1085 278 1085 q 384 1070 354 1085 q 440 1038 414 1056 q 491 1005 465 1019 q 550 990 517 990 q 601 1014 582 990 q 619 1085 619 1038 l 726 1085 z "},"ô":{"ha":893,"x_min":38,"x_max":856,"o":"m 617 844 q 708 826 665 844 q 784 774 751 807 q 836 698 817 742 q 856 606 856 654 l 856 314 q 828 181 856 243 q 753 74 800 119 q 644 1 707 28 q 513 -26 582 -26 l 274 -26 q 182 -8 225 -26 q 107 43 139 11 q 56 118 75 75 q 38 210 38 161 l 38 503 q 65 636 38 574 q 138 745 92 699 q 245 818 183 792 q 376 844 307 844 l 617 844 m 736 606 q 701 691 736 656 q 617 726 667 726 l 376 726 q 290 708 331 726 q 220 660 250 690 q 173 590 190 631 q 156 503 156 549 l 156 210 q 165 165 156 186 q 190 127 174 143 q 227 101 206 111 q 274 92 249 92 l 513 92 q 599 109 558 92 q 670 156 640 126 q 718 227 700 186 q 736 314 736 268 l 736 606 m 200 872 l 396 1129 l 497 1129 l 692 872 l 565 872 l 447 1029 l 328 872 l 200 872 z "},"ó":{"ha":893,"x_min":38,"x_max":856,"o":"m 617 844 q 708 826 665 844 q 784 774 751 807 q 836 698 817 742 q 856 606 856 654 l 856 314 q 828 181 856 243 q 753 74 800 119 q 644 1 707 28 q 513 -26 582 -26 l 274 -26 q 182 -8 225 -26 q 107 43 139 11 q 56 118 75 75 q 38 210 38 161 l 38 503 q 65 636 38 574 q 138 745 92 699 q 245 818 183 792 q 376 844 307 844 l 617 844 m 736 606 q 701 691 736 656 q 617 726 667 726 l 376 726 q 290 708 331 726 q 220 660 250 690 q 173 590 190 631 q 156 503 156 549 l 156 210 q 165 165 156 186 q 190 127 174 143 q 227 101 206 111 q 274 92 249 92 l 513 92 q 599 109 558 92 q 670 156 640 126 q 718 227 700 186 q 736 314 736 268 l 736 606 m 300 872 l 467 1154 l 590 1154 l 425 872 l 300 872 z "},"ò":{"ha":893,"x_min":38,"x_max":856,"o":"m 617 844 q 708 826 665 844 q 784 774 751 807 q 836 698 817 742 q 856 606 856 654 l 856 314 q 828 181 856 243 q 753 74 800 119 q 644 1 707 28 q 513 -26 582 -26 l 274 -26 q 182 -8 225 -26 q 107 43 139 11 q 56 118 75 75 q 38 210 38 161 l 38 503 q 65 636 38 574 q 138 745 92 699 q 245 818 183 792 q 376 844 307 844 l 617 844 m 736 606 q 701 691 736 656 q 617 726 667 726 l 376 726 q 290 708 331 726 q 220 660 250 690 q 173 590 190 631 q 156 503 156 549 l 156 210 q 165 165 156 186 q 190 127 174 143 q 227 101 206 111 q 274 92 249 92 l 513 92 q 599 109 558 92 q 670 156 640 126 q 718 227 700 186 q 736 314 736 268 l 736 606 m 467 872 l 300 1154 l 425 1154 l 590 872 l 467 872 z "},"ñ":{"ha":826,"x_min":38,"x_max":790,"o":"m 451 844 q 590 819 528 844 q 697 749 653 794 q 766 641 742 704 q 790 500 790 578 l 790 -26 l 672 -26 l 672 500 q 656 592 672 550 q 611 663 640 633 q 542 710 582 693 q 451 726 501 726 l 286 726 q 189 689 222 726 q 156 585 156 651 l 156 -26 l 38 -26 l 38 585 q 55 686 38 639 q 104 769 72 733 q 182 824 136 804 q 286 844 228 844 l 451 844 m 693 1085 q 683 1002 693 1040 q 655 935 674 964 q 608 889 636 906 q 542 872 579 872 q 465 887 497 872 q 407 919 433 901 q 357 951 381 936 q 306 965 333 965 q 236 872 236 965 l 129 872 q 139 954 129 915 q 168 1022 149 993 q 216 1068 188 1051 q 282 1085 244 1085 q 351 1070 321 1085 q 406 1038 381 1056 q 458 1005 432 1019 q 517 990 483 990 q 567 1014 549 990 q 586 1085 586 1038 l 693 1085 z "},"ï":{"ha":267,"x_min":-65,"x_max":357,"o":"m 193 931 q 218 989 193 964 q 275 1014 243 1014 q 332 989 307 1014 q 357 931 357 964 q 332 874 357 899 q 275 849 307 849 q 218 874 243 849 q 193 931 193 899 m -65 931 q -40 989 -65 964 q 17 1014 -15 1014 q 74 989 49 1014 q 99 931 99 964 q 74 874 99 899 q 17 849 49 849 q -40 874 -15 849 q -65 931 -65 899 m 86 793 l 204 793 l 204 -26 l 86 -26 l 86 793 z "},"î":{"ha":267,"x_min":-101,"x_max":390,"o":"m 86 793 l 204 793 l 204 -26 l 86 -26 l 86 793 m -101 831 l 94 1088 l 196 1088 l 390 831 l 264 831 l 146 988 l 26 831 l -101 831 z "},"í":{"ha":267,"x_min":18,"x_max":308,"o":"m 18 832 l 185 1114 l 308 1114 l 143 832 l 18 832 m 86 793 l 204 793 l 204 -26 l 86 -26 l 86 793 z "},"ì":{"ha":267,"x_min":-12,"x_max":278,"o":"m 154 835 l -12 1117 l 113 1117 l 278 835 l 154 835 m 86 793 l 204 793 l 204 -26 l 86 -26 l 86 793 z "},"ë":{"ha":796,"x_min":38,"x_max":783,"o":"m 224 149 q 288 107 251 122 q 365 92 324 92 l 778 92 l 778 -26 l 365 -26 q 238 -1 297 -26 q 133 70 178 25 q 63 175 89 115 q 38 301 38 235 l 38 514 q 63 642 38 582 q 133 747 89 701 q 238 818 178 792 q 365 844 297 844 l 581 844 q 706 810 657 844 q 769 726 754 776 q 763 617 783 675 q 683 513 743 560 l 224 149 m 156 310 q 158 281 156 294 q 167 257 161 267 l 611 604 q 647 645 636 624 q 655 685 658 667 q 633 715 651 703 q 581 726 615 726 l 365 726 q 283 710 321 726 q 217 665 244 693 q 172 597 189 636 q 156 514 156 558 l 156 310 m 176 978 q 201 1036 176 1011 q 258 1061 226 1061 q 315 1036 290 1061 q 340 978 340 1011 q 315 921 340 946 q 258 896 290 896 q 201 921 226 896 q 176 978 176 946 m 453 978 q 478 1036 453 1011 q 535 1061 503 1061 q 592 1036 567 1061 q 617 978 617 1011 q 592 921 617 946 q 535 896 567 896 q 478 921 503 896 q 453 978 453 946 z "},"ê":{"ha":796,"x_min":38,"x_max":783,"o":"m 224 149 q 288 107 251 122 q 365 92 324 92 l 778 92 l 778 -26 l 365 -26 q 238 -1 297 -26 q 133 70 178 25 q 63 175 89 115 q 38 301 38 235 l 38 514 q 63 642 38 582 q 133 747 89 701 q 238 818 178 792 q 365 844 297 844 l 581 844 q 706 810 657 844 q 769 726 754 776 q 763 617 783 675 q 683 513 743 560 l 224 149 m 156 310 q 158 281 156 294 q 167 257 161 267 l 611 604 q 647 645 636 624 q 655 685 658 667 q 633 715 651 703 q 581 726 615 726 l 365 726 q 283 710 321 726 q 217 665 244 693 q 172 597 189 636 q 156 514 156 558 l 156 310 m 171 872 l 367 1129 l 468 1129 l 663 872 l 536 872 l 418 1029 l 299 872 l 171 872 z "},"é":{"ha":796,"x_min":38,"x_max":783,"o":"m 224 149 q 288 107 251 122 q 365 92 324 92 l 778 92 l 778 -26 l 365 -26 q 238 -1 297 -26 q 133 70 178 25 q 63 175 89 115 q 38 301 38 235 l 38 514 q 63 642 38 582 q 133 747 89 701 q 238 818 178 792 q 365 844 297 844 l 581 844 q 706 810 657 844 q 769 726 754 776 q 763 617 783 675 q 683 513 743 560 l 224 149 m 156 310 q 158 281 156 294 q 167 257 161 267 l 611 604 q 647 645 636 624 q 655 685 658 667 q 633 715 651 703 q 581 726 615 726 l 365 726 q 283 710 321 726 q 217 665 244 693 q 172 597 189 636 q 156 514 156 558 l 156 310 m 289 872 l 456 1154 l 579 1154 l 414 872 l 289 872 z "},"è":{"ha":796,"x_min":38,"x_max":783,"o":"m 224 149 q 288 107 251 122 q 365 92 324 92 l 778 92 l 778 -26 l 365 -26 q 238 -1 297 -26 q 133 70 178 25 q 63 175 89 115 q 38 301 38 235 l 38 514 q 63 642 38 582 q 133 747 89 701 q 238 818 178 792 q 365 844 297 844 l 581 844 q 706 810 657 844 q 769 726 754 776 q 763 617 783 675 q 683 513 743 560 l 224 149 m 156 310 q 158 281 156 294 q 167 257 161 267 l 611 604 q 647 645 636 624 q 655 685 658 667 q 633 715 651 703 q 581 726 615 726 l 365 726 q 283 710 321 726 q 217 665 244 693 q 172 597 189 636 q 156 514 156 558 l 156 310 m 418 872 l 251 1154 l 376 1154 l 542 872 l 418 872 z "},"ç":{"ha":793,"x_min":38,"x_max":758,"o":"m 364 -217 q 425 -248 396 -246 q 471 -235 454 -250 q 485 -194 488 -221 q 454 -136 483 -167 q 403 -75 418 -100 q 382 -26 388 -50 l 271 -26 q 179 -8 222 -26 q 105 40 136 10 q 56 113 74 71 q 38 200 38 154 l 38 518 q 64 646 38 586 q 135 750 90 706 q 242 820 181 794 q 372 846 303 846 l 758 846 l 758 726 l 372 726 q 287 710 326 726 q 218 665 247 693 q 172 599 189 636 q 156 518 156 561 l 156 200 q 189 124 156 156 q 271 92 222 92 l 758 92 l 758 -26 l 490 -26 q 507 -60 496 -44 q 539 -96 518 -75 q 590 -180 579 -137 q 588 -259 600 -222 q 545 -322 576 -296 q 473 -355 514 -347 q 385 -348 432 -362 q 292 -287 338 -333 l 364 -217 z "},"æ":{"ha":1400,"x_min":6,"x_max":1379,"o":"m 819 149 q 883 107 847 122 q 961 92 919 92 l 1374 92 l 1374 -26 l 961 -26 q 849 -7 901 -26 q 753 49 796 13 l 753 -26 l 242 -26 q 98 4 154 -31 q 24 91 42 39 q 31 203 6 143 q 132 308 56 263 q 359 457 244 383 q 586 604 474 531 q 622 641 610 619 q 631 681 633 663 q 610 713 628 700 q 558 726 593 726 l 29 726 l 29 844 l 560 844 q 674 820 631 844 q 736 753 717 796 q 838 819 781 794 q 961 844 894 844 l 1176 844 q 1301 810 1253 844 q 1365 726 1350 776 q 1359 617 1379 675 q 1279 513 1339 560 l 819 149 m 961 726 q 885 712 921 726 q 821 672 849 697 q 775 613 793 647 q 753 540 757 579 l 753 288 q 763 257 756 269 l 1207 604 q 1243 645 1232 624 q 1251 685 1254 667 q 1229 715 1247 703 q 1176 726 1211 726 l 961 726 m 633 510 q 579 456 618 479 l 193 207 q 142 162 154 183 q 138 125 129 140 q 174 101 147 110 q 242 92 201 92 l 633 92 l 633 510 z "},"å":{"ha":788,"x_min":6,"x_max":753,"o":"m 560 844 q 706 796 660 844 q 753 668 753 747 l 753 -26 l 242 -26 q 98 4 154 -31 q 24 91 42 39 q 31 203 6 143 q 132 308 56 263 q 359 457 244 383 q 586 604 474 531 q 622 641 610 619 q 631 681 633 663 q 610 713 628 700 q 558 726 593 726 l 29 726 l 29 844 l 560 844 m 392 868 q 222 913 283 868 q 160 1036 160 957 q 217 1158 160 1110 q 392 1206 275 1206 q 566 1158 508 1206 q 624 1036 624 1111 q 607 967 624 999 q 560 914 590 936 q 486 880 529 892 q 392 868 443 868 m 633 510 q 579 456 618 479 l 193 207 q 142 162 154 183 q 138 125 129 140 q 174 101 147 110 q 242 92 201 92 l 633 92 l 633 510 m 392 1089 q 307 1073 328 1089 q 286 1036 286 1057 q 307 1000 286 1015 q 392 985 328 985 q 476 1000 453 985 q 499 1036 499 1015 q 477 1074 499 1060 q 392 1089 456 1089 z "},"ã":{"ha":788,"x_min":6,"x_max":753,"o":"m 560 844 q 706 796 660 844 q 753 668 753 747 l 753 -26 l 242 -26 q 98 4 154 -31 q 24 91 42 39 q 31 203 6 143 q 132 308 56 263 q 359 457 244 383 q 586 604 474 531 q 622 641 610 619 q 631 681 633 663 q 610 713 628 700 q 558 726 593 726 l 29 726 l 29 844 l 560 844 m 633 510 q 579 456 618 479 l 193 207 q 142 162 154 183 q 138 125 129 140 q 174 101 147 110 q 242 92 201 92 l 633 92 l 633 510 m 674 1085 q 664 1002 674 1040 q 635 935 654 964 q 588 889 617 906 q 522 872 560 872 q 446 887 478 872 q 388 919 414 901 q 338 951 361 936 q 286 965 314 965 q 217 872 217 965 l 110 872 q 119 954 110 915 q 149 1022 129 993 q 197 1068 168 1051 q 263 1085 225 1085 q 331 1070 301 1085 q 387 1038 361 1056 q 438 1005 413 1019 q 497 990 464 990 q 548 1014 529 990 q 567 1085 567 1038 l 674 1085 z "},"â":{"ha":788,"x_min":6,"x_max":753,"o":"m 560 844 q 706 796 660 844 q 753 668 753 747 l 753 -26 l 242 -26 q 98 4 154 -31 q 24 91 42 39 q 31 203 6 143 q 132 308 56 263 q 359 457 244 383 q 586 604 474 531 q 622 641 610 619 q 631 681 633 663 q 610 713 628 700 q 558 726 593 726 l 29 726 l 29 844 l 560 844 m 633 510 q 579 456 618 479 l 193 207 q 142 162 154 183 q 138 125 129 140 q 174 101 147 110 q 242 92 201 92 l 633 92 l 633 510 m 147 872 l 343 1129 l 444 1129 l 639 872 l 513 872 l 394 1029 l 275 872 l 147 872 z "},"á":{"ha":788,"x_min":6,"x_max":753,"o":"m 560 844 q 706 796 660 844 q 753 668 753 747 l 753 -26 l 242 -26 q 98 4 154 -31 q 24 91 42 39 q 31 203 6 143 q 132 308 56 263 q 359 457 244 383 q 586 604 474 531 q 622 641 610 619 q 631 681 633 663 q 610 713 628 700 q 558 726 593 726 l 29 726 l 29 844 l 560 844 m 633 510 q 579 456 618 479 l 193 207 q 142 162 154 183 q 138 125 129 140 q 174 101 147 110 q 242 92 201 92 l 633 92 l 633 510 m 247 872 l 414 1154 l 538 1154 l 372 872 l 247 872 z "},"à":{"ha":788,"x_min":6,"x_max":753,"o":"m 560 844 q 706 796 660 844 q 753 668 753 747 l 753 -26 l 242 -26 q 98 4 154 -31 q 24 91 42 39 q 31 203 6 143 q 132 308 56 263 q 359 457 244 383 q 586 604 474 531 q 622 641 610 619 q 631 681 633 663 q 610 713 628 700 q 558 726 593 726 l 29 726 l 29 844 l 560 844 m 633 510 q 579 456 618 479 l 193 207 q 142 162 154 183 q 138 125 129 140 q 174 101 147 110 q 242 92 201 92 l 633 92 l 633 510 m 414 872 l 247 1154 l 372 1154 l 538 872 l 414 872 z "},"Ą":{"ha":976,"x_min":-33,"x_max":1092,"o":"m -33 -26 l 286 899 q 365 1012 310 969 q 488 1054 421 1054 q 610 1013 556 1054 q 689 899 664 972 l 1007 -26 l 881 -26 l 796 222 l 179 222 l 92 -26 l -33 -26 m 218 340 l 756 340 q 667 601 711 471 q 575 858 622 731 q 539 915 563 894 q 488 936 515 936 q 433 915 457 936 q 399 860 410 894 l 218 340 m 1092 -333 q 999 -394 1046 -379 q 910 -401 951 -408 q 839 -367 869 -393 q 796 -305 808 -342 q 794 -226 783 -268 q 846 -142 804 -183 q 871 -114 861 -126 q 887 -89 881 -101 q 896 -62 893 -76 q 899 -28 899 -47 l 1007 -28 q 1004 -66 1007 -49 q 993 -101 1001 -83 q 969 -137 985 -118 q 929 -182 954 -157 q 899 -240 900 -212 q 913 -281 897 -267 q 958 -294 929 -296 q 1021 -262 988 -292 l 1092 -333 z "},"Ľ":{"ha":833,"x_min":38,"x_max":838,"o":"m 156 338 q 176 242 156 288 q 233 164 197 197 q 317 111 269 131 q 418 92 364 92 l 838 92 l 838 -26 l 418 -26 q 269 2 339 -26 q 149 80 200 31 q 67 196 97 129 q 38 338 38 263 l 38 1054 l 156 1054 l 156 338 m 496 1075 l 438 706 l 329 706 l 376 1075 l 496 1075 z "},"Ś":{"ha":882,"x_min":38,"x_max":847,"o":"m 688 465 q 790 383 753 432 q 837 279 826 333 q 833 170 847 225 q 783 72 819 115 q 688 1 746 28 q 554 -26 631 -26 l 38 -26 l 38 92 l 554 92 q 661 122 618 92 q 718 194 704 151 q 712 282 732 236 q 631 360 692 328 l 194 585 q 96 664 132 617 q 49 764 60 711 q 50 868 38 817 q 98 961 63 919 q 190 1028 133 1003 q 324 1054 247 1054 l 785 1054 l 785 936 l 324 936 q 217 908 258 936 q 165 842 176 881 q 174 760 154 803 q 250 689 194 718 l 688 465 m 294 1082 l 461 1364 l 585 1364 l 419 1082 l 294 1082 z "},"Ş":{"ha":882,"x_min":38,"x_max":847,"o":"m 307 -218 q 368 -249 339 -247 q 414 -237 397 -251 q 428 -195 431 -222 q 397 -137 426 -168 q 345 -76 361 -101 q 324 -26 329 -51 l 38 -26 l 38 92 l 554 92 q 661 122 618 92 q 718 194 704 151 q 712 282 732 236 q 631 360 692 328 l 194 585 q 96 664 132 617 q 49 764 60 711 q 50 868 38 817 q 98 961 63 919 q 190 1028 133 1003 q 324 1054 247 1054 l 785 1054 l 785 936 l 324 936 q 217 908 258 936 q 165 842 176 881 q 174 760 154 803 q 250 689 194 718 l 688 465 q 790 383 753 432 q 837 279 826 333 q 833 170 847 225 q 783 72 819 115 q 688 1 746 28 q 554 -26 631 -26 l 432 -26 q 449 -60 438 -44 q 482 -97 461 -76 q 533 -181 524 -139 q 531 -260 543 -224 q 488 -323 519 -297 q 416 -356 457 -349 q 328 -349 375 -364 q 235 -289 281 -335 l 307 -218 z "},"Ť":{"ha":839,"x_min":-75,"x_max":924,"o":"m 365 936 l -75 936 l -75 1054 l 924 1054 l 924 936 l 483 936 l 483 -26 l 365 -26 l 365 936 m 664 1333 l 468 1075 l 368 1075 l 172 1333 l 300 1333 l 418 1175 l 538 1333 l 664 1333 z "},"Ź":{"ha":949,"x_min":33,"x_max":910,"o":"m 296 -26 q 134 11 200 -26 q 47 115 68 49 q 38 193 33 157 q 62 260 43 229 q 109 319 81 292 q 169 369 138 346 l 693 749 q 747 809 729 774 q 754 874 764 844 q 706 922 743 907 q 614 936 669 936 l 79 936 l 79 1054 l 614 1054 q 778 1017 713 1054 q 865 910 844 979 q 858 767 888 838 q 764 651 829 697 l 238 274 q 171 210 193 242 q 157 151 149 178 q 203 108 167 124 q 296 92 240 92 l 910 92 l 910 -26 l 296 -26 m 328 1082 l 494 1364 l 618 1364 l 453 1082 l 328 1082 z "},"Ż":{"ha":949,"x_min":33,"x_max":910,"o":"m 296 -26 q 134 11 200 -26 q 47 115 68 49 q 38 193 33 157 q 62 260 43 229 q 109 319 81 292 q 169 369 138 346 l 693 749 q 747 809 729 774 q 754 874 764 844 q 706 922 743 907 q 614 936 669 936 l 79 936 l 79 1054 l 614 1054 q 778 1017 713 1054 q 865 910 844 979 q 858 767 888 838 q 764 651 829 697 l 238 274 q 171 210 193 242 q 157 151 149 178 q 203 108 167 124 q 296 92 240 92 l 910 92 l 910 -26 l 296 -26 m 390 1146 q 415 1204 390 1179 q 472 1229 440 1229 q 529 1204 504 1229 q 554 1146 554 1179 q 529 1089 554 1114 q 472 1064 504 1064 q 415 1089 440 1064 q 390 1146 390 1114 z "},"ą":{"ha":788,"x_min":6,"x_max":836,"o":"m 560 844 q 706 796 660 844 q 753 668 753 747 l 753 -26 l 242 -26 q 98 4 154 -31 q 24 91 42 39 q 31 203 6 143 q 132 308 56 263 q 359 457 244 383 q 586 604 474 531 q 622 641 610 619 q 631 681 633 663 q 610 713 628 700 q 558 726 593 726 l 29 726 l 29 844 l 560 844 m 633 510 q 579 456 618 479 l 193 207 q 142 162 154 183 q 138 125 129 140 q 174 101 147 110 q 242 92 201 92 l 633 92 l 633 510 m 836 -333 q 743 -394 790 -379 q 655 -401 696 -408 q 583 -367 614 -393 q 540 -305 553 -342 q 538 -226 528 -268 q 590 -142 549 -183 q 615 -114 606 -126 q 631 -89 625 -101 q 640 -62 638 -76 q 643 -28 643 -47 l 751 -28 q 749 -66 751 -49 q 738 -101 746 -83 q 714 -137 729 -118 q 674 -182 699 -157 q 643 -240 644 -212 q 658 -281 642 -267 q 703 -294 674 -296 q 765 -262 732 -292 l 836 -333 z "},"ľ":{"ha":675,"x_min":126,"x_max":624,"o":"m 244 178 q 270 117 244 142 q 336 92 296 92 l 435 92 l 435 -26 l 336 -26 q 253 -11 292 -26 q 186 32 214 4 q 142 97 158 60 q 126 178 126 133 l 126 1054 l 244 1054 l 244 178 m 624 1074 l 565 704 l 457 704 l 504 1074 l 624 1074 z "},"ś":{"ha":803,"x_min":-43,"x_max":843,"o":"m 168 506 q 88 610 107 551 q 88 722 69 669 q 158 809 106 774 q 290 844 210 844 l 843 844 l 843 726 l 290 726 q 233 715 257 726 q 201 687 210 704 q 200 647 192 669 q 239 600 208 624 l 629 306 q 713 202 690 260 q 722 94 736 144 q 659 8 708 43 q 526 -26 610 -26 l -43 -26 l -43 92 l 526 92 q 583 101 561 92 q 609 128 604 111 q 602 165 614 144 q 560 208 590 186 l 168 506 m 256 872 l 422 1154 l 546 1154 l 381 872 l 256 872 z "},"ş":{"ha":803,"x_min":-43,"x_max":843,"o":"m 267 -218 q 328 -249 299 -247 q 374 -237 357 -251 q 388 -195 390 -222 q 357 -137 386 -168 q 305 -76 321 -101 q 283 -26 289 -51 l -43 -26 l -43 92 l 526 92 q 583 101 561 92 q 609 128 604 111 q 602 165 614 144 q 560 208 590 186 l 168 506 q 88 610 107 551 q 88 722 69 669 q 158 809 106 774 q 290 844 210 844 l 843 844 l 843 726 l 290 726 q 233 715 257 726 q 201 687 210 704 q 200 647 192 669 q 239 600 208 624 l 629 306 q 713 202 690 260 q 722 94 736 144 q 659 8 708 43 q 526 -26 610 -26 l 392 -26 q 409 -60 397 -44 q 442 -97 421 -76 q 492 -181 482 -139 q 491 -260 503 -224 q 448 -323 479 -297 q 376 -356 417 -349 q 288 -349 335 -364 q 194 -289 240 -335 l 267 -218 z "},"ť":{"ha":914,"x_min":36,"x_max":863,"o":"m 297 146 q 464 92 343 92 l 686 92 l 686 -26 l 464 -26 q 209 60 290 -26 q 128 338 128 147 l 128 726 l 36 726 l 36 844 l 128 844 l 128 1054 l 246 1054 l 246 844 l 667 844 l 667 726 l 246 726 l 246 338 q 297 146 246 201 m 863 1074 l 804 704 l 696 704 l 743 1074 l 863 1074 z "},"ź":{"ha":797,"x_min":-4,"x_max":854,"o":"m 194 218 q 156 181 169 201 q 142 140 142 160 q 161 107 143 121 q 217 92 179 93 l 854 92 l 854 -26 l 217 -26 q 91 13 139 -26 q 30 106 43 51 q 41 219 17 160 q 132 318 65 278 l 614 596 q 652 635 642 613 q 655 677 663 657 q 623 712 647 697 q 557 726 599 726 l -4 726 l -4 844 l 557 844 q 658 826 614 844 q 731 779 701 808 q 772 713 760 750 q 778 637 785 675 q 747 561 772 599 q 675 494 722 524 l 514 401 l 194 218 m 253 872 l 419 1154 l 543 1154 l 378 872 l 253 872 z "},"ż":{"ha":797,"x_min":-4,"x_max":854,"o":"m 194 218 q 156 181 169 201 q 142 140 142 160 q 161 107 143 121 q 217 92 179 93 l 854 92 l 854 -26 l 217 -26 q 91 13 139 -26 q 30 106 43 51 q 41 219 17 160 q 132 318 65 278 l 614 596 q 652 635 642 613 q 655 677 663 657 q 623 712 647 697 q 557 726 599 726 l -4 726 l -4 844 l 557 844 q 658 826 614 844 q 731 779 701 808 q 772 713 760 750 q 778 637 785 675 q 747 561 772 599 q 675 494 722 524 l 514 401 l 194 218 m 315 936 q 340 994 315 969 q 397 1019 365 1019 q 454 994 429 1019 q 479 936 479 969 q 454 879 479 904 q 397 854 429 854 q 340 879 365 854 q 315 936 315 904 z "},"Ţ":{"ha":839,"x_min":-75,"x_max":924,"o":"m 365 936 l -75 936 l -75 1054 l 924 1054 l 924 936 l 483 936 l 483 -26 l 365 -26 l 365 936 m 499 -83 l 431 -451 l 322 -451 l 381 -83 l 499 -83 z "},"ţ":{"ha":647,"x_min":36,"x_max":686,"o":"m 297 146 q 464 92 343 92 l 686 92 l 686 -26 l 464 -26 q 209 60 290 -26 q 128 338 128 147 l 128 726 l 36 726 l 36 844 l 128 844 l 128 1054 l 246 1054 l 246 844 l 667 844 l 667 726 l 246 726 l 246 338 q 297 146 246 201 m 499 -83 l 431 -451 l 322 -451 l 381 -83 l 499 -83 z "},"Ů":{"ha":918,"x_min":38,"x_max":879,"o":"m 879 225 q 859 126 879 172 q 805 47 839 81 q 724 -7 771 13 q 625 -26 678 -26 l 403 -26 q 261 2 328 -26 q 144 80 194 31 q 66 196 94 129 q 38 338 38 263 l 38 1054 l 156 1054 l 156 338 q 175 242 156 288 q 228 164 194 197 q 306 111 261 131 q 403 92 351 92 l 625 92 q 678 102 654 92 q 722 131 703 113 q 751 174 740 150 q 761 225 761 197 l 761 1054 l 879 1054 l 879 225 m 457 1078 q 287 1122 349 1078 q 225 1246 225 1167 q 283 1367 225 1319 q 457 1415 340 1415 q 631 1368 574 1415 q 689 1246 689 1321 q 672 1177 689 1208 q 625 1124 656 1146 q 551 1090 594 1101 q 457 1078 508 1078 m 457 1299 q 372 1283 393 1299 q 351 1246 351 1267 q 372 1210 351 1225 q 457 1194 393 1194 q 541 1210 518 1194 q 564 1246 564 1225 q 542 1284 564 1269 q 457 1299 521 1299 z "},"ů":{"ha":878,"x_min":38,"x_max":840,"o":"m 721 844 l 840 844 l 840 228 q 821 128 840 175 q 767 48 801 82 q 686 -6 732 14 q 586 -26 640 -26 l 406 -26 q 262 3 329 -26 q 144 82 194 32 q 66 199 94 132 q 38 343 38 267 l 38 844 l 156 844 l 156 343 q 175 246 156 292 q 228 166 194 200 q 308 112 263 132 q 406 92 354 92 l 586 92 q 683 131 644 92 q 721 228 721 171 l 721 844 m 438 868 q 267 913 329 868 q 206 1036 206 957 q 263 1158 206 1110 q 438 1206 321 1206 q 612 1158 554 1206 q 669 1036 669 1111 q 653 967 669 999 q 606 914 636 936 q 532 880 575 892 q 438 868 489 868 m 438 1089 q 353 1073 374 1089 q 332 1036 332 1057 q 353 1000 332 1015 q 438 985 374 985 q 522 1000 499 985 q 544 1036 544 1015 q 523 1074 544 1060 q 438 1089 501 1089 z "},"ř":{"ha":526,"x_min":17,"x_max":590,"o":"m 38 500 q 62 641 38 578 q 131 749 86 704 q 238 819 175 794 q 376 844 300 844 l 590 844 l 590 726 l 376 726 q 286 710 326 726 q 217 663 246 693 q 172 592 188 633 q 156 500 156 550 l 156 -26 l 38 -26 l 38 500 m 508 1124 l 313 865 l 213 865 l 17 1124 l 144 1124 l 263 965 l 382 1124 l 508 1124 z "},"Ř":{"ha":901,"x_min":38,"x_max":929,"o":"m 38 1054 l 625 1054 q 768 1019 711 1054 q 847 933 825 985 q 853 820 868 881 q 779 708 838 760 l 614 565 q 691 419 650 496 q 773 266 732 343 q 854 114 814 189 q 929 -26 894 39 l 793 -26 l 521 490 l 156 176 l 156 -26 l 38 -26 l 38 1054 m 156 333 l 700 799 q 736 845 728 821 q 734 890 744 869 q 696 923 724 910 q 625 936 668 936 l 156 936 l 156 333 m 696 1333 l 500 1075 l 400 1075 l 204 1333 l 332 1333 l 450 1175 l 569 1333 l 696 1333 z "},"ň":{"ha":826,"x_min":38,"x_max":790,"o":"m 451 844 q 590 819 528 844 q 697 749 653 794 q 766 641 742 704 q 790 500 790 578 l 790 -26 l 672 -26 l 672 500 q 656 592 672 550 q 611 663 640 633 q 542 710 582 693 q 451 726 501 726 l 286 726 q 189 689 222 726 q 156 585 156 651 l 156 -26 l 38 -26 l 38 585 q 55 686 38 639 q 104 769 72 733 q 182 824 136 804 q 286 844 228 844 l 451 844 m 658 1124 l 463 865 l 363 865 l 167 1124 l 294 1124 l 413 965 l 532 1124 l 658 1124 z "},"Ň":{"ha":1076,"x_min":38,"x_max":1032,"o":"m 1032 1054 l 1032 194 q 1006 83 1032 129 q 938 9 979 36 q 846 -24 896 -18 q 748 -17 796 -31 q 661 32 700 -3 q 604 124 622 67 l 361 861 q 314 920 347 903 q 245 933 281 938 q 183 901 210 928 q 156 828 156 874 l 156 -26 l 38 -26 l 38 828 q 65 942 38 894 q 134 1015 92 989 q 228 1049 176 1042 q 328 1041 279 1056 q 416 991 376 1026 q 475 899 456 956 l 717 163 q 763 104 731 122 q 829 90 796 86 q 888 121 863 94 q 914 194 914 147 l 914 1054 l 1032 1054 m 783 1333 l 588 1075 l 488 1075 l 292 1333 l 419 1333 l 538 1175 l 657 1333 l 783 1333 z "},"Ń":{"ha":1076,"x_min":38,"x_max":1032,"o":"m 1032 1054 l 1032 194 q 1006 83 1032 129 q 938 9 979 36 q 846 -24 896 -18 q 748 -17 796 -31 q 661 32 700 -3 q 604 124 622 67 l 361 861 q 314 920 347 903 q 245 933 281 938 q 183 901 210 928 q 156 828 156 874 l 156 -26 l 38 -26 l 38 828 q 65 942 38 894 q 134 1015 92 989 q 228 1049 176 1042 q 328 1041 279 1056 q 416 991 376 1026 q 475 899 456 956 l 717 163 q 763 104 731 122 q 829 90 796 86 q 888 121 863 94 q 914 194 914 147 l 914 1054 l 1032 1054 m 392 1082 l 558 1364 l 682 1364 l 517 1082 l 392 1082 z "},"ń":{"ha":826,"x_min":38,"x_max":790,"o":"m 451 844 q 590 819 528 844 q 697 749 653 794 q 766 641 742 704 q 790 500 790 578 l 790 -26 l 672 -26 l 672 500 q 656 592 672 550 q 611 663 640 633 q 542 710 582 693 q 451 726 501 726 l 286 726 q 189 689 222 726 q 156 585 156 651 l 156 -26 l 38 -26 l 38 585 q 55 686 38 639 q 104 769 72 733 q 182 824 136 804 q 286 844 228 844 l 451 844 m 267 872 l 433 1154 l 557 1154 l 392 872 l 267 872 z "},"đ":{"ha":808,"x_min":38,"x_max":889,"o":"m 889 918 l 774 918 l 774 -26 l 324 -26 q 115 45 192 -26 q 38 240 38 117 l 38 550 q 63 665 38 611 q 131 759 88 719 q 234 822 175 799 q 360 844 293 844 l 654 844 l 654 918 l 272 918 l 272 1015 l 654 1015 l 654 1054 l 774 1054 l 774 1015 l 889 1015 l 889 918 m 654 726 l 360 726 q 281 713 318 726 q 216 674 244 699 q 172 618 188 650 q 156 550 156 586 l 156 240 q 200 131 156 169 q 324 92 244 92 l 654 92 l 654 726 z "},"ď":{"ha":1075,"x_min":38,"x_max":1024,"o":"m 654 1054 l 774 1054 l 774 -26 l 324 -26 q 115 45 192 -26 q 38 240 38 117 l 38 550 q 63 665 38 611 q 131 759 88 719 q 234 822 175 799 q 360 844 293 844 l 654 844 l 654 1054 m 654 726 l 360 726 q 281 713 318 726 q 216 674 244 699 q 172 618 188 650 q 156 550 156 586 l 156 240 q 200 131 156 169 q 324 92 244 92 l 654 92 l 654 726 m 1024 1074 l 965 704 l 857 704 l 904 1074 l 1024 1074 z "},"ě":{"ha":796,"x_min":38,"x_max":783,"o":"m 224 149 q 288 107 251 122 q 365 92 324 92 l 778 92 l 778 -26 l 365 -26 q 238 -1 297 -26 q 133 70 178 25 q 63 175 89 115 q 38 301 38 235 l 38 514 q 63 642 38 582 q 133 747 89 701 q 238 818 178 792 q 365 844 297 844 l 581 844 q 706 810 657 844 q 769 726 754 776 q 763 617 783 675 q 683 513 743 560 l 224 149 m 156 310 q 158 281 156 294 q 167 257 161 267 l 611 604 q 647 645 636 624 q 655 685 658 667 q 633 715 651 703 q 581 726 615 726 l 365 726 q 283 710 321 726 q 217 665 244 693 q 172 597 189 636 q 156 514 156 558 l 156 310 m 643 1124 l 447 865 l 347 865 l 151 1124 l 279 1124 l 397 965 l 517 1124 l 643 1124 z "},"ę":{"ha":796,"x_min":38,"x_max":783,"o":"m 613 -276 q 519 -337 567 -322 q 431 -344 472 -351 q 360 -310 390 -336 q 317 -248 329 -285 q 315 -169 304 -211 q 367 -85 325 -126 q 394 -53 383 -67 q 410 -26 404 -40 l 365 -26 q 238 -1 297 -26 q 133 70 178 25 q 63 175 89 115 q 38 301 38 235 l 38 514 q 63 642 38 582 q 133 747 89 701 q 238 818 178 792 q 365 844 297 844 l 581 844 q 706 810 657 844 q 769 726 754 776 q 763 617 783 675 q 683 513 743 560 l 224 149 q 288 107 251 122 q 365 92 324 92 l 778 92 l 778 -26 l 521 -26 q 498 -70 514 -47 q 450 -125 482 -93 q 419 -183 421 -156 q 434 -224 418 -210 q 479 -237 450 -239 q 542 -206 508 -235 l 613 -276 m 156 310 q 158 281 156 294 q 167 257 161 267 l 611 604 q 647 645 636 624 q 655 685 658 667 q 633 715 651 703 q 581 726 615 726 l 365 726 q 283 710 321 726 q 217 665 244 693 q 172 597 189 636 q 156 514 156 558 l 156 310 z "},"č":{"ha":793,"x_min":38,"x_max":758,"o":"m 38 518 q 64 646 38 586 q 135 750 90 706 q 242 820 181 794 q 372 846 303 846 l 758 846 l 758 726 l 372 726 q 287 710 326 726 q 218 665 247 693 q 172 599 189 636 q 156 518 156 561 l 156 200 q 189 124 156 156 q 271 92 222 92 l 758 92 l 758 -26 l 271 -26 q 179 -8 222 -26 q 105 40 136 10 q 56 113 74 71 q 38 200 38 154 l 38 518 m 642 1124 l 446 865 l 346 865 l 150 1124 l 278 1124 l 396 965 l 515 1124 l 642 1124 z "},"ć":{"ha":793,"x_min":38,"x_max":758,"o":"m 38 518 q 64 646 38 586 q 135 750 90 706 q 242 820 181 794 q 372 846 303 846 l 758 846 l 758 726 l 372 726 q 287 710 326 726 q 218 665 247 693 q 172 599 189 636 q 156 518 156 561 l 156 200 q 189 124 156 156 q 271 92 222 92 l 758 92 l 758 -26 l 271 -26 q 179 -8 222 -26 q 105 40 136 10 q 56 113 74 71 q 38 200 38 154 l 38 518 m 250 872 l 417 1154 l 540 1154 l 375 872 l 250 872 z "},"ĺ":{"ha":408,"x_min":81,"x_max":435,"o":"m 244 178 q 270 117 244 142 q 336 92 296 92 l 435 92 l 435 -26 l 336 -26 q 253 -11 292 -26 q 186 32 214 4 q 142 97 158 60 q 126 178 126 133 l 126 1054 l 244 1054 l 244 178 m 81 1086 l 247 1368 l 371 1368 l 206 1086 l 81 1086 z "},"ă":{"ha":788,"x_min":6,"x_max":753,"o":"m 560 844 q 706 796 660 844 q 753 668 753 747 l 753 -26 l 242 -26 q 98 4 154 -31 q 24 91 42 39 q 31 203 6 143 q 132 308 56 263 q 359 457 244 383 q 586 604 474 531 q 622 641 610 619 q 631 681 633 663 q 610 713 628 700 q 558 726 593 726 l 29 726 l 29 844 l 560 844 m 633 510 q 579 456 618 479 l 193 207 q 142 162 154 183 q 138 125 129 140 q 174 101 147 110 q 242 92 201 92 l 633 92 l 633 510 m 633 1110 q 613 1010 633 1053 q 560 938 593 967 q 483 894 526 908 q 390 879 439 879 q 297 894 340 879 q 220 937 253 908 q 169 1008 188 965 q 150 1110 150 1051 l 247 1110 q 285 1015 247 1054 q 390 976 324 976 q 452 988 425 976 q 498 1017 479 999 q 526 1059 517 1035 q 536 1110 536 1083 l 633 1110 z "},"ŕ":{"ha":526,"x_min":38,"x_max":590,"o":"m 38 500 q 62 641 38 578 q 131 749 86 704 q 238 819 175 794 q 376 844 300 844 l 590 844 l 590 726 l 376 726 q 286 710 326 726 q 217 663 246 693 q 172 592 188 633 q 156 500 156 550 l 156 -26 l 38 -26 l 38 500 m 117 872 l 283 1154 l 407 1154 l 242 872 l 117 872 z "},"Ŕ":{"ha":901,"x_min":38,"x_max":929,"o":"m 38 1054 l 625 1054 q 768 1019 711 1054 q 847 933 825 985 q 853 820 868 881 q 779 708 838 760 l 614 565 q 691 419 650 496 q 773 266 732 343 q 854 114 814 189 q 929 -26 894 39 l 793 -26 l 521 490 l 156 176 l 156 -26 l 38 -26 l 38 1054 m 156 333 l 700 799 q 736 845 728 821 q 734 890 744 869 q 696 923 724 910 q 625 936 668 936 l 156 936 l 156 333 m 304 1082 l 471 1364 l 594 1364 l 429 1082 l 304 1082 z "},"Ă":{"ha":976,"x_min":-33,"x_max":1007,"o":"m -33 -26 l 286 899 q 365 1012 310 969 q 488 1054 421 1054 q 610 1013 556 1054 q 689 899 664 972 l 1007 -26 l 881 -26 l 796 222 l 179 222 l 92 -26 l -33 -26 m 218 340 l 756 340 q 667 601 711 471 q 575 858 622 731 q 539 915 563 894 q 488 936 515 936 q 433 915 457 936 q 399 860 410 894 l 218 340 m 728 1319 q 708 1219 728 1263 q 654 1147 688 1176 q 577 1103 621 1118 q 485 1089 533 1089 q 391 1103 435 1089 q 315 1147 347 1118 q 263 1218 282 1175 q 244 1319 244 1261 l 342 1319 q 380 1225 342 1264 q 485 1186 418 1186 q 547 1197 519 1186 q 592 1226 574 1208 q 621 1269 611 1244 q 631 1319 631 1293 l 728 1319 z "},"Ĺ":{"ha":833,"x_min":38,"x_max":838,"o":"m 156 338 q 176 242 156 288 q 233 164 197 197 q 317 111 269 131 q 418 92 364 92 l 838 92 l 838 -26 l 418 -26 q 269 2 339 -26 q 149 80 200 31 q 67 196 97 129 q 38 338 38 263 l 38 1054 l 156 1054 l 156 338 m 271 1082 l 438 1364 l 561 1364 l 396 1082 l 271 1082 z "},"Ć":{"ha":769,"x_min":38,"x_max":776,"o":"m 38 663 q 65 815 38 743 q 141 940 93 886 q 253 1024 189 993 q 392 1054 318 1054 l 776 1054 l 776 936 l 392 936 q 299 915 342 936 q 224 856 256 893 q 174 768 192 818 q 156 663 156 718 l 156 243 q 165 184 156 211 q 192 136 175 157 q 233 103 210 115 q 283 92 257 92 l 776 92 l 776 -26 l 283 -26 q 188 -5 233 -26 q 110 53 143 17 q 57 138 76 89 q 38 243 38 188 l 38 663 m 239 1082 l 406 1364 l 529 1364 l 364 1082 l 239 1082 z "},"Č":{"ha":769,"x_min":38,"x_max":776,"o":"m 38 663 q 65 815 38 743 q 141 940 93 886 q 253 1024 189 993 q 392 1054 318 1054 l 776 1054 l 776 936 l 392 936 q 299 915 342 936 q 224 856 256 893 q 174 768 192 818 q 156 663 156 718 l 156 243 q 165 184 156 211 q 192 136 175 157 q 233 103 210 115 q 283 92 257 92 l 776 92 l 776 -26 l 283 -26 q 188 -5 233 -26 q 110 53 143 17 q 57 138 76 89 q 38 243 38 188 l 38 663 m 629 1333 l 433 1075 l 333 1075 l 138 1333 l 265 1333 l 383 1175 l 503 1333 l 629 1333 z "},"Ę":{"ha":893,"x_min":38,"x_max":856,"o":"m 624 -285 q 531 -345 578 -331 q 442 -352 483 -360 q 371 -319 401 -344 q 328 -256 340 -293 q 326 -177 315 -219 q 378 -93 336 -135 q 408 -58 397 -74 q 425 -26 419 -43 l 292 -26 q 192 -6 239 -26 q 111 48 146 14 q 57 128 76 82 q 38 228 38 175 l 38 788 q 58 890 38 842 q 115 976 79 939 q 198 1033 150 1013 q 300 1054 246 1054 l 856 1054 l 856 936 l 300 936 q 244 924 271 936 q 198 892 218 913 q 167 845 178 872 q 156 788 156 818 l 156 618 l 856 618 l 856 500 l 156 500 l 156 228 q 194 131 156 171 q 292 92 233 92 l 856 92 l 856 -26 l 533 -26 q 512 -74 528 -50 q 461 -133 496 -99 q 431 -191 432 -164 q 445 -233 429 -218 q 490 -245 461 -247 q 553 -214 519 -243 l 624 -285 z "},"Ě":{"ha":893,"x_min":38,"x_max":856,"o":"m 38 788 q 58 890 38 842 q 115 976 79 939 q 198 1033 150 1013 q 300 1054 246 1054 l 856 1054 l 856 936 l 300 936 q 244 924 271 936 q 198 892 218 913 q 167 845 178 872 q 156 788 156 818 l 156 618 l 856 618 l 856 500 l 156 500 l 156 228 q 194 131 156 171 q 292 92 233 92 l 856 92 l 856 -26 l 292 -26 q 192 -6 239 -26 q 111 48 146 14 q 57 128 76 82 q 38 228 38 175 l 38 788 m 692 1333 l 496 1075 l 396 1075 l 200 1333 l 328 1333 l 446 1175 l 565 1333 l 692 1333 z "},"Ď":{"ha":869,"x_min":38,"x_max":832,"o":"m 475 1054 q 615 1024 550 1054 q 728 940 679 993 q 804 815 776 886 q 832 663 832 743 l 832 243 q 813 138 832 188 q 759 53 793 89 q 680 -5 725 17 q 583 -26 635 -26 l 38 -26 l 38 1054 l 475 1054 m 714 663 q 695 768 714 718 q 644 856 676 818 q 567 915 611 893 q 475 936 524 936 l 156 936 l 156 92 l 583 92 q 635 103 611 92 q 676 136 658 115 q 704 184 694 157 q 714 243 714 211 l 714 663 m 679 1333 l 483 1075 l 383 1075 l 188 1333 l 315 1333 l 433 1175 l 553 1333 l 679 1333 z "},"Đ":{"ha":869,"x_min":-67,"x_max":832,"o":"m 475 1054 q 615 1024 550 1054 q 728 940 679 993 q 804 815 776 886 q 832 663 832 743 l 832 243 q 813 138 832 188 q 759 53 793 89 q 680 -5 725 17 q 583 -26 635 -26 l 38 -26 l 38 453 l -67 453 l -67 571 l 38 571 l 38 1054 l 475 1054 m 438 453 l 156 453 l 156 92 l 583 92 q 635 103 611 92 q 676 136 658 115 q 704 184 694 157 q 714 243 714 211 l 714 663 q 695 768 714 718 q 644 856 676 818 q 567 915 611 893 q 475 936 524 936 l 156 936 l 156 571 l 438 571 l 438 453 z "},"Ő":{"ha":897,"x_min":38,"x_max":860,"o":"m 622 1054 q 715 1035 672 1054 q 790 984 758 1017 q 841 908 822 951 q 860 815 860 864 l 860 314 q 833 181 860 243 q 759 74 806 119 q 650 1 713 28 q 515 -26 588 -26 l 276 -26 q 185 -8 228 -26 q 109 43 142 11 q 57 118 76 75 q 38 210 38 161 l 38 713 q 65 846 38 783 q 138 955 92 908 q 246 1028 183 1001 q 379 1054 308 1054 l 622 1054 m 742 815 q 732 863 742 840 q 706 901 722 885 q 669 926 690 917 q 622 936 647 936 l 379 936 q 292 918 333 936 q 222 870 251 900 q 174 799 192 840 q 156 713 156 758 l 156 210 q 165 165 156 186 q 191 127 175 143 q 229 101 207 111 q 276 92 251 92 l 515 92 q 603 109 561 92 q 675 156 644 126 q 724 227 706 186 q 742 314 742 268 l 742 815 m 188 1100 l 354 1382 l 478 1382 l 313 1100 l 188 1100 m 415 1100 l 582 1382 l 706 1382 l 540 1100 l 415 1100 z "},"ő":{"ha":893,"x_min":38,"x_max":856,"o":"m 617 844 q 708 826 665 844 q 784 774 751 807 q 836 698 817 742 q 856 606 856 654 l 856 314 q 828 181 856 243 q 753 74 800 119 q 644 1 707 28 q 513 -26 582 -26 l 274 -26 q 182 -8 225 -26 q 107 43 139 11 q 56 118 75 75 q 38 210 38 161 l 38 503 q 65 636 38 574 q 138 745 92 699 q 245 818 183 792 q 376 844 307 844 l 617 844 m 736 606 q 701 691 736 656 q 617 726 667 726 l 376 726 q 290 708 331 726 q 220 660 250 690 q 173 590 190 631 q 156 503 156 549 l 156 210 q 165 165 156 186 q 190 127 174 143 q 227 101 206 111 q 274 92 249 92 l 513 92 q 599 109 558 92 q 670 156 640 126 q 718 227 700 186 q 736 314 736 268 l 736 606 m 186 890 l 353 1172 l 476 1172 l 311 890 l 186 890 m 415 890 l 582 1172 l 706 1172 l 540 890 l 415 890 z "},"ű":{"ha":878,"x_min":38,"x_max":840,"o":"m 721 844 l 840 844 l 840 228 q 821 128 840 175 q 767 48 801 82 q 686 -6 732 14 q 586 -26 640 -26 l 406 -26 q 262 3 329 -26 q 144 82 194 32 q 66 199 94 132 q 38 343 38 267 l 38 844 l 156 844 l 156 343 q 175 246 156 292 q 228 166 194 200 q 308 112 263 132 q 406 92 354 92 l 586 92 q 683 131 644 92 q 721 228 721 171 l 721 844 m 178 890 l 344 1172 l 468 1172 l 303 890 l 178 890 m 406 890 l 572 1172 l 696 1172 l 531 890 l 406 890 z "},"Ű":{"ha":918,"x_min":38,"x_max":879,"o":"m 879 225 q 859 126 879 172 q 805 47 839 81 q 724 -7 771 13 q 625 -26 678 -26 l 403 -26 q 261 2 328 -26 q 144 80 194 31 q 66 196 94 129 q 38 338 38 263 l 38 1054 l 156 1054 l 156 338 q 175 242 156 288 q 228 164 194 197 q 306 111 261 131 q 403 92 351 92 l 625 92 q 678 102 654 92 q 722 131 703 113 q 751 174 740 150 q 761 225 761 197 l 761 1054 l 879 1054 l 879 225 m 199 1100 l 365 1382 l 489 1382 l 324 1100 l 199 1100 m 426 1100 l 593 1382 l 717 1382 l 551 1100 l 426 1100 z "},"Ħ":{"ha":921,"x_min":38,"x_max":882,"o":"m 156 -26 l 38 -26 l 38 1054 l 156 1054 l 156 871 l 764 871 l 764 1054 l 882 1054 l 882 -26 l 764 -26 l 764 519 l 156 519 l 156 -26 m 764 639 l 764 753 l 156 753 l 156 639 l 764 639 z "},"Ĥ":{"ha":921,"x_min":38,"x_max":882,"o":"m 156 -26 l 38 -26 l 38 1054 l 156 1054 l 156 639 l 764 639 l 764 1054 l 882 1054 l 882 -26 l 764 -26 l 764 519 l 156 519 l 156 -26 m 214 1082 l 410 1339 l 511 1339 l 706 1082 l 579 1082 l 461 1239 l 342 1082 l 214 1082 z "},"İ":{"ha":263,"x_min":49,"x_max":213,"o":"m 201 -26 l 83 -26 l 83 1054 l 201 1054 l 201 -26 m 49 1146 q 74 1204 49 1179 q 131 1229 99 1229 q 188 1204 163 1229 q 213 1146 213 1179 q 188 1089 213 1114 q 131 1064 163 1064 q 74 1089 99 1064 q 49 1146 49 1114 z "},"Ğ":{"ha":1000,"x_min":38,"x_max":958,"o":"m 668 618 q 781 594 728 618 q 873 528 833 569 q 935 429 913 486 q 958 308 958 372 l 958 -26 l 294 -26 q 193 -5 240 -26 q 112 53 146 17 q 58 138 78 89 q 38 243 38 188 l 38 663 q 67 815 38 743 q 147 940 96 886 q 265 1024 197 993 q 408 1054 332 1054 l 814 1054 l 814 936 l 408 936 q 310 915 356 936 q 230 856 264 893 q 176 768 196 818 q 156 663 156 718 l 156 243 q 167 184 156 211 q 197 136 178 157 q 240 103 215 115 q 294 92 265 92 l 840 92 l 840 308 q 826 382 840 347 q 790 443 813 417 q 735 485 767 469 q 668 500 703 500 l 376 500 l 376 618 l 668 618 m 740 1319 q 720 1219 740 1263 q 667 1147 700 1176 q 590 1103 633 1118 q 497 1089 546 1089 q 403 1103 447 1089 q 327 1147 360 1118 q 276 1218 294 1175 q 257 1319 257 1261 l 354 1319 q 392 1225 354 1264 q 497 1186 431 1186 q 559 1197 532 1186 q 605 1226 586 1208 q 633 1269 624 1244 q 643 1319 643 1293 l 740 1319 z "},"Ĵ":{"ha":897,"x_min":38,"x_max":860,"o":"m 586 1054 q 692 1033 642 1054 q 779 974 742 1011 q 838 888 817 938 q 860 782 860 839 l 860 367 q 828 215 860 286 q 744 90 797 143 q 618 5 690 36 q 465 -26 546 -26 l 38 -26 l 38 92 l 465 92 q 572 113 521 92 q 660 172 622 135 q 719 260 697 210 q 742 367 742 310 l 742 782 q 729 842 742 814 q 696 890 717 869 q 647 924 675 911 q 586 936 618 936 l 38 936 l 38 1054 l 586 1054 m 201 1082 l 397 1339 l 499 1339 l 693 1082 l 567 1082 l 449 1239 l 329 1082 l 201 1082 z "},"ħ":{"ha":808,"x_min":-50,"x_max":774,"o":"m 519 921 l 156 921 l 156 844 l 454 844 q 579 822 521 844 q 681 759 638 799 q 749 665 724 719 q 774 550 774 611 l 774 -26 l 654 -26 l 654 550 q 638 618 654 586 q 595 674 622 650 q 532 713 568 699 q 454 726 496 726 l 156 726 l 156 -26 l 38 -26 l 38 921 l -50 921 l -50 1014 l 38 1014 l 38 1054 l 156 1054 l 156 1014 l 519 1014 l 519 921 z "},"ĥ":{"ha":808,"x_min":-28,"x_max":774,"o":"m 454 844 q 579 822 521 844 q 681 759 638 799 q 749 665 724 719 q 774 550 774 611 l 774 -26 l 654 -26 l 654 550 q 638 618 654 586 q 595 674 622 650 q 532 713 568 699 q 454 726 496 726 l 156 726 l 156 -26 l 38 -26 l 38 1054 l 156 1054 l 156 844 l 454 844 m -28 1092 l 165 1303 l 267 1303 l 458 1092 l 333 1092 l 217 1221 l 99 1092 l -28 1092 z "},"ğ":{"ha":836,"x_min":38,"x_max":800,"o":"m 583 863 q 667 846 628 863 q 736 799 707 829 q 783 729 765 769 q 800 643 800 689 l 800 122 q 776 3 800 58 q 712 -94 753 -53 q 615 -160 671 -136 q 496 -183 560 -183 l 82 -183 l 82 -65 l 496 -65 q 567 -52 535 -65 q 624 -16 600 -39 q 663 39 649 7 q 681 107 678 71 l 253 107 q 169 124 208 107 q 100 169 129 140 q 54 236 71 197 q 38 319 38 275 l 38 563 q 62 678 38 624 q 128 774 86 733 q 226 839 169 815 q 346 863 282 863 l 583 863 m 682 643 q 653 715 682 685 q 583 744 624 744 l 346 744 q 272 730 307 744 q 212 690 238 715 q 171 633 186 665 q 156 563 156 600 l 156 319 q 184 252 156 279 q 253 225 213 225 l 682 225 l 682 643 m 658 1110 q 638 1010 658 1053 q 585 938 618 967 q 508 894 551 908 q 415 879 464 879 q 322 894 365 879 q 245 937 278 908 q 194 1008 213 965 q 175 1110 175 1051 l 272 1110 q 310 1015 272 1054 q 415 976 349 976 q 477 988 450 976 q 523 1017 504 999 q 551 1059 542 1035 q 561 1110 561 1083 l 658 1110 z "},"ĵ":{"ha":264,"x_min":-133,"x_max":381,"o":"m 82 793 l 200 793 l 200 -168 l 82 -168 l 82 793 m -133 890 l 54 1157 l 193 1157 l 381 890 l 210 890 l 124 1021 l 38 890 l -133 890 z "},"Ŝ":{"ha":882,"x_min":38,"x_max":847,"o":"m 688 465 q 790 383 753 432 q 837 279 826 333 q 833 170 847 225 q 783 72 819 115 q 688 1 746 28 q 554 -26 631 -26 l 38 -26 l 38 92 l 554 92 q 661 122 618 92 q 718 194 704 151 q 712 282 732 236 q 631 360 692 328 l 194 585 q 96 664 132 617 q 49 764 60 711 q 50 868 38 817 q 98 961 63 919 q 190 1028 133 1003 q 324 1054 247 1054 l 785 1054 l 785 936 l 324 936 q 217 908 258 936 q 165 842 176 881 q 174 760 154 803 q 250 689 194 718 l 688 465 m 194 1082 l 390 1339 l 492 1339 l 686 1082 l 560 1082 l 442 1239 l 322 1082 l 194 1082 z "},"Ŭ":{"ha":918,"x_min":38,"x_max":879,"o":"m 879 225 q 859 126 879 172 q 805 47 839 81 q 724 -7 771 13 q 625 -26 678 -26 l 403 -26 q 261 2 328 -26 q 144 80 194 31 q 66 196 94 129 q 38 338 38 263 l 38 1054 l 156 1054 l 156 338 q 175 242 156 288 q 228 164 194 197 q 306 111 261 131 q 403 92 351 92 l 625 92 q 678 102 654 92 q 722 131 703 113 q 751 174 740 150 q 761 225 761 197 l 761 1054 l 879 1054 l 879 225 m 699 1319 q 678 1219 699 1263 q 625 1147 658 1176 q 548 1103 592 1118 q 456 1089 504 1089 q 362 1103 406 1089 q 285 1147 318 1118 q 234 1218 253 1175 q 215 1319 215 1261 l 313 1319 q 351 1225 313 1264 q 456 1186 389 1186 q 517 1197 490 1186 q 563 1226 544 1208 q 592 1269 582 1244 q 601 1319 601 1293 l 699 1319 z "},"ŭ":{"ha":878,"x_min":38,"x_max":840,"o":"m 721 844 l 840 844 l 840 228 q 821 128 840 175 q 767 48 801 82 q 686 -6 732 14 q 586 -26 640 -26 l 406 -26 q 262 3 329 -26 q 144 82 194 32 q 66 199 94 132 q 38 343 38 267 l 38 844 l 156 844 l 156 343 q 175 246 156 292 q 228 166 194 200 q 308 112 263 132 q 406 92 354 92 l 586 92 q 683 131 644 92 q 721 228 721 171 l 721 844 m 679 1110 q 659 1010 679 1053 q 606 938 639 967 q 528 894 572 908 q 436 879 485 879 q 342 894 386 879 q 266 937 299 908 q 215 1008 233 965 q 196 1110 196 1051 l 293 1110 q 331 1015 293 1054 q 436 976 369 976 q 498 988 471 976 q 544 1017 525 999 q 572 1059 563 1035 q 582 1110 582 1083 l 679 1110 z "},"ŝ":{"ha":803,"x_min":-43,"x_max":843,"o":"m 168 506 q 88 610 107 551 q 88 722 69 669 q 158 809 106 774 q 290 844 210 844 l 843 844 l 843 726 l 290 726 q 233 715 257 726 q 201 687 210 704 q 200 647 192 669 q 239 600 208 624 l 629 306 q 713 202 690 260 q 722 94 736 144 q 659 8 708 43 q 526 -26 610 -26 l -43 -26 l -43 92 l 526 92 q 583 101 561 92 q 609 128 604 111 q 602 165 614 144 q 560 208 590 186 l 168 506 m 154 872 l 350 1129 l 451 1129 l 646 872 l 519 872 l 401 1029 l 282 872 l 154 872 z "},"Ĝ":{"ha":1000,"x_min":38,"x_max":958,"o":"m 668 618 q 781 594 728 618 q 873 528 833 569 q 935 429 913 486 q 958 308 958 372 l 958 -26 l 294 -26 q 193 -5 240 -26 q 112 53 146 17 q 58 138 78 89 q 38 243 38 188 l 38 663 q 67 815 38 743 q 147 940 96 886 q 265 1024 197 993 q 408 1054 332 1054 l 814 1054 l 814 936 l 408 936 q 310 915 356 936 q 230 856 264 893 q 176 768 196 818 q 156 663 156 718 l 156 243 q 167 184 156 211 q 197 136 178 157 q 240 103 215 115 q 294 92 265 92 l 840 92 l 840 308 q 826 382 840 347 q 790 443 813 417 q 735 485 767 469 q 668 500 703 500 l 376 500 l 376 618 l 668 618 m 253 1082 l 449 1339 l 550 1339 l 744 1082 l 618 1082 l 500 1239 l 381 1082 l 253 1082 z "},"ĝ":{"ha":836,"x_min":38,"x_max":800,"o":"m 583 863 q 667 846 628 863 q 736 799 707 829 q 783 729 765 769 q 800 643 800 689 l 800 122 q 776 3 800 58 q 712 -94 753 -53 q 615 -160 671 -136 q 496 -183 560 -183 l 82 -183 l 82 -65 l 496 -65 q 567 -52 535 -65 q 624 -16 600 -39 q 663 39 649 7 q 681 107 678 71 l 253 107 q 169 124 208 107 q 100 169 129 140 q 54 236 71 197 q 38 319 38 275 l 38 563 q 62 678 38 624 q 128 774 86 733 q 226 839 169 815 q 346 863 282 863 l 583 863 m 682 643 q 653 715 682 685 q 583 744 624 744 l 346 744 q 272 730 307 744 q 212 690 238 715 q 171 633 186 665 q 156 563 156 600 l 156 319 q 184 252 156 279 q 253 225 213 225 l 682 225 l 682 643 m 171 872 l 367 1129 l 468 1129 l 663 872 l 536 872 l 418 1029 l 299 872 l 171 872 z "},"ġ":{"ha":836,"x_min":38,"x_max":800,"o":"m 583 863 q 667 846 628 863 q 736 799 707 829 q 783 729 765 769 q 800 643 800 689 l 800 122 q 776 3 800 58 q 712 -94 753 -53 q 615 -160 671 -136 q 496 -183 560 -183 l 82 -183 l 82 -65 l 496 -65 q 567 -52 535 -65 q 624 -16 600 -39 q 663 39 649 7 q 681 107 678 71 l 253 107 q 169 124 208 107 q 100 169 129 140 q 54 236 71 197 q 38 319 38 275 l 38 563 q 62 678 38 624 q 128 774 86 733 q 226 839 169 815 q 346 863 282 863 l 583 863 m 682 643 q 653 715 682 685 q 583 744 624 744 l 346 744 q 272 730 307 744 q 212 690 238 715 q 171 633 186 665 q 156 563 156 600 l 156 319 q 184 252 156 279 q 253 225 213 225 l 682 225 l 682 643 m 335 982 q 360 1040 335 1015 q 417 1065 385 1065 q 474 1040 449 1065 q 499 982 499 1015 q 474 925 499 950 q 417 900 449 900 q 360 925 385 900 q 335 982 335 950 z "},"Ġ":{"ha":1000,"x_min":38,"x_max":958,"o":"m 668 618 q 781 594 728 618 q 873 528 833 569 q 935 429 913 486 q 958 308 958 372 l 958 -26 l 294 -26 q 193 -5 240 -26 q 112 53 146 17 q 58 138 78 89 q 38 243 38 188 l 38 663 q 67 815 38 743 q 147 940 96 886 q 265 1024 197 993 q 408 1054 332 1054 l 814 1054 l 814 936 l 408 936 q 310 915 356 936 q 230 856 264 893 q 176 768 196 818 q 156 663 156 718 l 156 243 q 167 184 156 211 q 197 136 178 157 q 240 103 215 115 q 294 92 265 92 l 840 92 l 840 308 q 826 382 840 347 q 790 443 813 417 q 735 485 767 469 q 668 500 703 500 l 376 500 l 376 618 l 668 618 m 417 1183 q 442 1242 417 1217 q 499 1267 467 1267 q 556 1242 531 1267 q 581 1183 581 1217 q 556 1126 581 1151 q 499 1101 531 1101 q 442 1126 467 1101 q 417 1183 417 1151 z "},"Ċ":{"ha":769,"x_min":38,"x_max":776,"o":"m 38 663 q 65 815 38 743 q 141 940 93 886 q 253 1024 189 993 q 392 1054 318 1054 l 776 1054 l 776 936 l 392 936 q 299 915 342 936 q 224 856 256 893 q 174 768 192 818 q 156 663 156 718 l 156 243 q 165 184 156 211 q 192 136 175 157 q 233 103 210 115 q 283 92 257 92 l 776 92 l 776 -26 l 283 -26 q 188 -5 233 -26 q 110 53 143 17 q 57 138 76 89 q 38 243 38 188 l 38 663 m 342 1171 q 367 1229 342 1204 q 424 1254 392 1254 q 481 1229 456 1254 q 506 1171 506 1204 q 481 1114 506 1139 q 424 1089 456 1089 q 367 1114 392 1089 q 342 1171 342 1139 z "},"ċ":{"ha":793,"x_min":38,"x_max":758,"o":"m 38 518 q 64 646 38 586 q 135 750 90 706 q 242 820 181 794 q 372 846 303 846 l 758 846 l 758 726 l 372 726 q 287 710 326 726 q 218 665 247 693 q 172 599 189 636 q 156 518 156 561 l 156 200 q 189 124 156 156 q 271 92 222 92 l 758 92 l 758 -26 l 271 -26 q 179 -8 222 -26 q 105 40 136 10 q 56 113 74 71 q 38 200 38 154 l 38 518 m 343 971 q 368 1029 343 1004 q 425 1054 393 1054 q 482 1029 457 1054 q 507 971 507 1004 q 482 914 507 939 q 425 889 457 889 q 368 914 393 889 q 343 971 343 939 z "},"Ĉ":{"ha":769,"x_min":38,"x_max":776,"o":"m 38 663 q 65 815 38 743 q 141 940 93 886 q 253 1024 189 993 q 392 1054 318 1054 l 776 1054 l 776 936 l 392 936 q 299 915 342 936 q 224 856 256 893 q 174 768 192 818 q 156 663 156 718 l 156 243 q 165 184 156 211 q 192 136 175 157 q 233 103 210 115 q 283 92 257 92 l 776 92 l 776 -26 l 283 -26 q 188 -5 233 -26 q 110 53 143 17 q 57 138 76 89 q 38 243 38 188 l 38 663 m 138 1082 l 333 1339 l 435 1339 l 629 1082 l 503 1082 l 385 1239 l 265 1082 l 138 1082 z "},"ĉ":{"ha":793,"x_min":38,"x_max":758,"o":"m 38 518 q 64 646 38 586 q 135 750 90 706 q 242 820 181 794 q 372 846 303 846 l 758 846 l 758 726 l 372 726 q 287 710 326 726 q 218 665 247 693 q 172 599 189 636 q 156 518 156 561 l 156 200 q 189 124 156 156 q 271 92 222 92 l 758 92 l 758 -26 l 271 -26 q 179 -8 222 -26 q 105 40 136 10 q 56 113 74 71 q 38 200 38 154 l 38 518 m 150 872 l 346 1129 l 447 1129 l 642 872 l 515 872 l 397 1029 l 278 872 l 150 872 z "},"Ŗ":{"ha":901,"x_min":38,"x_max":929,"o":"m 38 1054 l 625 1054 q 768 1019 711 1054 q 847 933 825 985 q 853 820 868 881 q 779 708 838 760 l 614 565 q 691 419 650 496 q 773 266 732 343 q 854 114 814 189 q 929 -26 894 39 l 793 -26 l 521 490 l 156 176 l 156 -26 l 38 -26 l 38 1054 m 156 333 l 700 799 q 736 845 728 821 q 734 890 744 869 q 696 923 724 910 q 625 936 668 936 l 156 936 l 156 333 m 499 -83 l 431 -451 l 322 -451 l 381 -83 l 499 -83 z "},"Ļ":{"ha":833,"x_min":38,"x_max":838,"o":"m 156 338 q 176 242 156 288 q 233 164 197 197 q 317 111 269 131 q 418 92 364 92 l 838 92 l 838 -26 l 418 -26 q 269 2 339 -26 q 149 80 200 31 q 67 196 97 129 q 38 338 38 263 l 38 1054 l 156 1054 l 156 338 m 499 -83 l 431 -451 l 322 -451 l 381 -83 l 499 -83 z "},"ņ":{"ha":826,"x_min":38,"x_max":790,"o":"m 451 844 q 590 819 528 844 q 697 749 653 794 q 766 641 742 704 q 790 500 790 578 l 790 -26 l 672 -26 l 672 500 q 656 592 672 550 q 611 663 640 633 q 542 710 582 693 q 451 726 501 726 l 286 726 q 189 689 222 726 q 156 585 156 651 l 156 -26 l 38 -26 l 38 585 q 55 686 38 639 q 104 769 72 733 q 182 824 136 804 q 286 844 228 844 l 451 844 m 499 -83 l 431 -451 l 322 -451 l 381 -83 l 499 -83 z "},"ķ":{"ha":842,"x_min":38,"x_max":892,"o":"m 156 -26 l 38 -26 l 38 1054 l 156 1054 l 156 292 l 608 546 q 670 611 649 571 q 692 697 692 651 l 692 844 l 811 844 l 811 697 q 774 553 811 619 q 671 444 736 486 l 607 404 l 892 -26 l 750 -26 l 504 343 l 156 151 l 156 -26 m 499 -83 l 431 -451 l 322 -451 l 381 -83 l 499 -83 z "},"Ķ":{"ha":951,"x_min":38,"x_max":1001,"o":"m 581 653 l 1001 -26 l 860 -26 l 497 561 l 156 193 l 156 -26 l 38 -26 l 38 1054 l 156 1054 l 156 365 q 473 712 314 539 q 789 1054 632 885 l 951 1054 l 581 653 m 499 -83 l 431 -451 l 322 -451 l 381 -83 l 499 -83 z "},"Ņ":{"ha":1076,"x_min":38,"x_max":1032,"o":"m 1032 1054 l 1032 194 q 1006 83 1032 129 q 938 9 979 36 q 846 -24 896 -18 q 748 -17 796 -31 q 661 32 700 -3 q 604 124 622 67 l 361 861 q 314 920 347 903 q 245 933 281 938 q 183 901 210 928 q 156 828 156 874 l 156 -26 l 38 -26 l 38 828 q 65 942 38 894 q 134 1015 92 989 q 228 1049 176 1042 q 328 1041 279 1056 q 416 991 376 1026 q 475 899 456 956 l 717 163 q 763 104 731 122 q 829 90 796 86 q 888 121 863 94 q 914 194 914 147 l 914 1054 l 1032 1054 m 499 -83 l 431 -451 l 322 -451 l 381 -83 l 499 -83 z "},"ļ":{"ha":408,"x_min":126,"x_max":435,"o":"m 244 178 q 270 117 244 142 q 336 92 296 92 l 435 92 l 435 -26 l 336 -26 q 253 -11 292 -26 q 186 32 214 4 q 142 97 158 60 q 126 178 126 133 l 126 1054 l 244 1054 l 244 178 m 360 -83 l 292 -451 l 183 -451 l 242 -83 l 360 -83 z "},"ģ":{"ha":836,"x_min":38,"x_max":800,"o":"m 583 863 q 667 846 628 863 q 736 799 707 829 q 783 729 765 769 q 800 643 800 689 l 800 122 q 776 3 800 58 q 712 -94 753 -53 q 615 -160 671 -136 q 496 -183 560 -183 l 82 -183 l 82 -65 l 496 -65 q 567 -52 535 -65 q 624 -16 600 -39 q 663 39 649 7 q 681 107 678 71 l 253 107 q 169 124 208 107 q 100 169 129 140 q 54 236 71 197 q 38 319 38 275 l 38 563 q 62 678 38 624 q 128 774 86 733 q 226 839 169 815 q 346 863 282 863 l 583 863 m 682 643 q 653 715 682 685 q 583 744 624 744 l 346 744 q 272 730 307 744 q 212 690 238 715 q 171 633 186 665 q 156 563 156 600 l 156 319 q 184 252 156 279 q 253 225 213 225 l 682 225 l 682 643 m 340 926 l 408 1294 l 517 1294 l 458 926 l 340 926 z "},"Ģ":{"ha":1000,"x_min":38,"x_max":958,"o":"m 668 618 q 781 594 728 618 q 873 528 833 569 q 935 429 913 486 q 958 308 958 372 l 958 -26 l 294 -26 q 193 -5 240 -26 q 112 53 146 17 q 58 138 78 89 q 38 243 38 188 l 38 663 q 67 815 38 743 q 147 940 96 886 q 265 1024 197 993 q 408 1054 332 1054 l 814 1054 l 814 936 l 408 936 q 310 915 356 936 q 230 856 264 893 q 176 768 196 818 q 156 663 156 718 l 156 243 q 167 184 156 211 q 197 136 178 157 q 240 103 215 115 q 294 92 265 92 l 840 92 l 840 308 q 826 382 840 347 q 790 443 813 417 q 735 485 767 469 q 668 500 703 500 l 376 500 l 376 618 l 668 618 m 593 -83 l 525 -451 l 417 -451 l 475 -83 l 593 -83 z "},"ĸ":{"ha":842,"x_min":38,"x_max":892,"o":"m 156 -26 l 38 -26 l 38 844 l 156 844 l 156 292 l 608 546 q 670 611 649 571 q 692 697 692 651 l 692 844 l 811 844 l 811 697 q 774 553 811 619 q 671 444 736 486 l 607 404 l 892 -26 l 750 -26 l 504 343 l 156 151 l 156 -26 z "},"Ĩ":{"ha":263,"x_min":-151,"x_max":413,"o":"m 201 -26 l 83 -26 l 83 1054 l 201 1054 l 201 -26 m 413 1294 q 403 1212 413 1250 q 374 1144 393 1174 q 327 1099 356 1115 q 261 1082 299 1082 q 185 1097 217 1082 q 126 1128 153 1111 q 76 1160 100 1146 q 25 1175 53 1175 q -44 1082 -44 1175 l -151 1082 q -142 1164 -151 1125 q -112 1232 -132 1203 q -65 1278 -93 1261 q 1 1294 -36 1294 q 70 1280 40 1294 q 126 1247 100 1265 q 177 1215 151 1229 q 236 1200 203 1200 q 287 1224 268 1200 q 306 1294 306 1247 l 413 1294 z "},"Ē":{"ha":893,"x_min":38,"x_max":856,"o":"m 38 788 q 58 890 38 842 q 115 976 79 939 q 198 1033 150 1013 q 300 1054 246 1054 l 856 1054 l 856 936 l 300 936 q 244 924 271 936 q 198 892 218 913 q 167 845 178 872 q 156 788 156 818 l 156 618 l 856 618 l 856 500 l 156 500 l 156 228 q 194 131 156 171 q 292 92 233 92 l 856 92 l 856 -26 l 292 -26 q 192 -6 239 -26 q 111 48 146 14 q 57 128 76 82 q 38 228 38 175 l 38 788 m 697 1107 l 193 1107 l 193 1225 l 697 1225 l 697 1107 z "},"Ŧ":{"ha":839,"x_min":-75,"x_max":924,"o":"m 365 936 l -75 936 l -75 1054 l 924 1054 l 924 936 l 483 936 l 483 -26 l 365 -26 l 365 936 m 669 1107 l 165 1107 l 165 1225 l 669 1225 l 669 1107 z "},"Į":{"ha":263,"x_min":-22,"x_max":286,"o":"m 201 -26 l 83 -26 l 83 1054 l 201 1054 l 201 -26 m 286 -333 q 193 -394 240 -379 q 105 -401 146 -408 q 33 -367 64 -393 q -10 -305 3 -342 q -12 -226 -22 -268 q 40 -142 -1 -183 q 65 -114 56 -126 q 81 -89 75 -101 q 90 -62 88 -76 q 93 -28 93 -47 l 201 -28 q 199 -66 201 -49 q 188 -101 196 -83 q 164 -137 179 -118 q 124 -182 149 -157 q 93 -240 94 -212 q 108 -281 92 -267 q 153 -294 124 -296 q 215 -262 182 -292 l 286 -333 z "},"į":{"ha":267,"x_min":-19,"x_max":289,"o":"m 86 793 l 204 793 l 204 -26 l 86 -26 l 86 793 m 144 993 q 190 976 171 993 q 210 926 210 958 q 190 879 210 899 q 144 860 171 860 q 98 879 119 860 q 76 926 76 899 q 98 976 76 958 q 144 993 119 993 m 289 -333 q 196 -394 243 -379 q 108 -401 149 -408 q 36 -367 67 -393 q -7 -305 6 -342 q -9 -226 -19 -268 q 43 -142 1 -183 q 68 -114 58 -126 q 84 -89 78 -101 q 93 -62 90 -76 q 96 -28 96 -47 l 204 -28 q 201 -66 204 -49 q 190 -101 199 -83 q 167 -137 182 -118 q 126 -182 151 -157 q 96 -240 97 -212 q 110 -281 94 -267 q 156 -294 126 -296 q 218 -262 185 -292 l 289 -333 z "},"ā":{"ha":788,"x_min":6,"x_max":753,"o":"m 560 844 q 706 796 660 844 q 753 668 753 747 l 753 -26 l 242 -26 q 98 4 154 -31 q 24 91 42 39 q 31 203 6 143 q 132 308 56 263 q 359 457 244 383 q 586 604 474 531 q 622 641 610 619 q 631 681 633 663 q 610 713 628 700 q 558 726 593 726 l 29 726 l 29 844 l 560 844 m 633 510 q 579 456 618 479 l 193 207 q 142 162 154 183 q 138 125 129 140 q 174 101 147 110 q 242 92 201 92 l 633 92 l 633 510 m 644 897 l 140 897 l 140 1015 l 644 1015 l 644 897 z "},"Ā":{"ha":976,"x_min":-33,"x_max":1007,"o":"m -33 -26 l 286 899 q 365 1012 310 969 q 488 1054 421 1054 q 610 1013 556 1054 q 689 899 664 972 l 1007 -26 l 881 -26 l 796 222 l 179 222 l 92 -26 l -33 -26 m 218 340 l 756 340 q 667 601 711 471 q 575 858 622 731 q 539 915 563 894 q 488 936 515 936 q 433 915 457 936 q 399 860 410 894 l 218 340 m 739 1107 l 235 1107 l 235 1225 l 739 1225 l 739 1107 z "},"Ė":{"ha":893,"x_min":38,"x_max":856,"o":"m 38 788 q 58 890 38 842 q 115 976 79 939 q 198 1033 150 1013 q 300 1054 246 1054 l 856 1054 l 856 936 l 300 936 q 244 924 271 936 q 198 892 218 913 q 167 845 178 872 q 156 788 156 818 l 156 618 l 856 618 l 856 500 l 156 500 l 156 228 q 194 131 156 171 q 292 92 233 92 l 856 92 l 856 -26 l 292 -26 q 192 -6 239 -26 q 111 48 146 14 q 57 128 76 82 q 38 228 38 175 l 38 788 m 364 1183 q 389 1242 364 1217 q 446 1267 414 1267 q 503 1242 478 1267 q 528 1183 528 1217 q 503 1126 528 1151 q 446 1101 478 1101 q 389 1126 414 1101 q 364 1183 364 1151 z "},"ė":{"ha":796,"x_min":38,"x_max":783,"o":"m 224 149 q 288 107 251 122 q 365 92 324 92 l 778 92 l 778 -26 l 365 -26 q 238 -1 297 -26 q 133 70 178 25 q 63 175 89 115 q 38 301 38 235 l 38 514 q 63 642 38 582 q 133 747 89 701 q 238 818 178 792 q 365 844 297 844 l 581 844 q 706 810 657 844 q 769 726 754 776 q 763 617 783 675 q 683 513 743 560 l 224 149 m 156 310 q 158 281 156 294 q 167 257 161 267 l 611 604 q 647 645 636 624 q 655 685 658 667 q 633 715 651 703 q 581 726 615 726 l 365 726 q 283 710 321 726 q 217 665 244 693 q 172 597 189 636 q 156 514 156 558 l 156 310 m 315 974 q 340 1032 315 1007 q 397 1057 365 1057 q 454 1032 429 1057 q 479 974 479 1007 q 454 917 479 942 q 397 892 429 892 q 340 917 365 892 q 315 974 315 942 z "},"Ī":{"ha":263,"x_min":-122,"x_max":382,"o":"m 201 -26 l 83 -26 l 83 1054 l 201 1054 l 201 -26 m 382 1107 l -122 1107 l -122 1225 l 382 1225 l 382 1107 z "},"ī":{"ha":267,"x_min":-119,"x_max":385,"o":"m 385 897 l -119 897 l -119 1015 l 385 1015 l 385 897 m 86 793 l 204 793 l 204 -26 l 86 -26 l 86 793 z "},"Ō":{"ha":897,"x_min":38,"x_max":860,"o":"m 622 1054 q 715 1035 672 1054 q 790 984 758 1017 q 841 908 822 951 q 860 815 860 864 l 860 314 q 833 181 860 243 q 759 74 806 119 q 650 1 713 28 q 515 -26 588 -26 l 276 -26 q 185 -8 228 -26 q 109 43 142 11 q 57 118 76 75 q 38 210 38 161 l 38 713 q 65 846 38 783 q 138 955 92 908 q 246 1028 183 1001 q 379 1054 308 1054 l 622 1054 m 742 815 q 732 863 742 840 q 706 901 722 885 q 669 926 690 917 q 622 936 647 936 l 379 936 q 292 918 333 936 q 222 870 251 900 q 174 799 192 840 q 156 713 156 758 l 156 210 q 165 165 156 186 q 191 127 175 143 q 229 101 207 111 q 276 92 251 92 l 515 92 q 603 109 561 92 q 675 156 644 126 q 724 227 706 186 q 742 314 742 268 l 742 815 m 699 1107 l 194 1107 l 194 1225 l 699 1225 l 699 1107 z "},"ō":{"ha":893,"x_min":38,"x_max":856,"o":"m 617 844 q 708 826 665 844 q 784 774 751 807 q 836 698 817 742 q 856 606 856 654 l 856 314 q 828 181 856 243 q 753 74 800 119 q 644 1 707 28 q 513 -26 582 -26 l 274 -26 q 182 -8 225 -26 q 107 43 139 11 q 56 118 75 75 q 38 210 38 161 l 38 503 q 65 636 38 574 q 138 745 92 699 q 245 818 183 792 q 376 844 307 844 l 617 844 m 736 606 q 701 691 736 656 q 617 726 667 726 l 376 726 q 290 708 331 726 q 220 660 250 690 q 173 590 190 631 q 156 503 156 549 l 156 210 q 165 165 156 186 q 190 127 174 143 q 227 101 206 111 q 274 92 249 92 l 513 92 q 599 109 558 92 q 670 156 640 126 q 718 227 700 186 q 736 314 736 268 l 736 606 m 697 897 l 193 897 l 193 1015 l 697 1015 l 697 897 z "},"Ų":{"ha":918,"x_min":38,"x_max":879,"o":"m 649 -282 q 556 -342 603 -328 q 467 -349 508 -357 q 396 -316 426 -342 q 353 -253 365 -290 q 351 -174 340 -217 q 403 -90 361 -132 q 431 -56 421 -71 q 449 -26 442 -42 l 403 -26 q 261 2 328 -26 q 144 80 194 31 q 66 196 94 129 q 38 338 38 263 l 38 1054 l 156 1054 l 156 338 q 175 242 156 288 q 228 164 194 197 q 306 111 261 131 q 403 92 351 92 l 625 92 q 678 102 654 92 q 722 131 703 113 q 751 174 740 150 q 761 225 761 197 l 761 1054 l 879 1054 l 879 225 q 859 126 879 172 q 805 47 839 81 q 724 -7 771 13 q 625 -26 678 -26 l 558 -26 q 535 -74 551 -50 q 486 -131 519 -97 q 456 -188 457 -161 q 470 -230 454 -215 q 515 -242 486 -244 q 578 -211 544 -240 l 649 -282 z "},"ų":{"ha":878,"x_min":38,"x_max":840,"o":"m 621 -279 q 528 -340 575 -325 q 440 -347 481 -354 q 368 -313 399 -339 q 325 -251 338 -287 q 323 -172 313 -214 q 375 -87 333 -129 q 403 -56 392 -69 q 419 -26 414 -42 l 406 -26 q 262 3 329 -26 q 144 82 194 32 q 66 199 94 132 q 38 343 38 267 l 38 844 l 156 844 l 156 343 q 175 246 156 292 q 228 166 194 200 q 308 112 263 132 q 406 92 354 92 l 586 92 q 683 131 644 92 q 721 228 721 171 l 721 844 l 840 844 l 840 228 q 821 128 840 175 q 767 48 801 82 q 686 -6 732 14 q 586 -26 640 -26 l 529 -26 q 506 -72 522 -49 q 458 -128 490 -96 q 428 -185 429 -158 q 442 -227 426 -212 q 488 -240 458 -242 q 550 -208 517 -237 l 621 -279 z "},"Ũ":{"ha":918,"x_min":38,"x_max":879,"o":"m 879 225 q 859 126 879 172 q 805 47 839 81 q 724 -7 771 13 q 625 -26 678 -26 l 403 -26 q 261 2 328 -26 q 144 80 194 31 q 66 196 94 129 q 38 338 38 263 l 38 1054 l 156 1054 l 156 338 q 175 242 156 288 q 228 164 194 197 q 306 111 261 131 q 403 92 351 92 l 625 92 q 678 102 654 92 q 722 131 703 113 q 751 174 740 150 q 761 225 761 197 l 761 1054 l 879 1054 l 879 225 m 739 1294 q 729 1212 739 1250 q 701 1144 719 1174 q 653 1099 682 1115 q 588 1082 625 1082 q 511 1097 543 1082 q 453 1128 479 1111 q 403 1160 426 1146 q 351 1175 379 1175 q 282 1082 282 1175 l 175 1082 q 185 1164 175 1125 q 214 1232 194 1203 q 262 1278 233 1261 q 328 1294 290 1294 q 397 1280 367 1294 q 452 1247 426 1265 q 503 1215 478 1229 q 563 1200 529 1200 q 613 1224 594 1200 q 632 1294 632 1247 l 739 1294 z "},"ũ":{"ha":878,"x_min":38,"x_max":840,"o":"m 721 844 l 840 844 l 840 228 q 821 128 840 175 q 767 48 801 82 q 686 -6 732 14 q 586 -26 640 -26 l 406 -26 q 262 3 329 -26 q 144 82 194 32 q 66 199 94 132 q 38 343 38 267 l 38 844 l 156 844 l 156 343 q 175 246 156 292 q 228 166 194 200 q 308 112 263 132 q 406 92 354 92 l 586 92 q 683 131 644 92 q 721 228 721 171 l 721 844 m 719 1085 q 710 1002 719 1040 q 681 935 700 964 q 634 889 663 906 q 568 872 606 872 q 492 887 524 872 q 433 919 460 901 q 383 951 407 936 q 332 965 360 965 q 263 872 263 965 l 156 872 q 165 954 156 915 q 194 1022 175 993 q 242 1068 214 1051 q 308 1085 271 1085 q 377 1070 347 1085 q 433 1038 407 1056 q 484 1005 458 1019 q 543 990 510 990 q 594 1014 575 990 q 613 1085 613 1038 l 719 1085 z "},"Ū":{"ha":918,"x_min":38,"x_max":879,"o":"m 879 225 q 859 126 879 172 q 805 47 839 81 q 724 -7 771 13 q 625 -26 678 -26 l 403 -26 q 261 2 328 -26 q 144 80 194 31 q 66 196 94 129 q 38 338 38 263 l 38 1054 l 156 1054 l 156 338 q 175 242 156 288 q 228 164 194 197 q 306 111 261 131 q 403 92 351 92 l 625 92 q 678 102 654 92 q 722 131 703 113 q 751 174 740 150 q 761 225 761 197 l 761 1054 l 879 1054 l 879 225 m 710 1107 l 206 1107 l 206 1225 l 710 1225 l 710 1107 z "},"ū":{"ha":878,"x_min":38,"x_max":840,"o":"m 721 844 l 840 844 l 840 228 q 821 128 840 175 q 767 48 801 82 q 686 -6 732 14 q 586 -26 640 -26 l 406 -26 q 262 3 329 -26 q 144 82 194 32 q 66 199 94 132 q 38 343 38 267 l 38 844 l 156 844 l 156 343 q 175 246 156 292 q 228 166 194 200 q 308 112 263 132 q 406 92 354 92 l 586 92 q 683 131 644 92 q 721 228 721 171 l 721 844 m 689 897 l 185 897 l 185 1015 l 689 1015 l 689 897 z "},"ŋ":{"ha":826,"x_min":38,"x_max":790,"o":"m 451 844 q 590 819 528 844 q 697 749 653 794 q 766 641 742 704 q 790 500 790 578 l 790 -179 l 672 -179 l 672 500 q 656 592 672 550 q 611 663 640 633 q 542 710 582 693 q 451 726 501 726 l 286 726 q 189 689 222 726 q 156 585 156 651 l 156 -26 l 38 -26 l 38 585 q 55 686 38 639 q 104 769 72 733 q 182 824 136 804 q 286 844 228 844 l 451 844 z "},"Ŋ":{"ha":1076,"x_min":38,"x_max":1032,"o":"m 1032 1054 l 1032 74 q 1001 -80 1032 -8 q 916 -205 969 -151 q 791 -290 863 -258 q 639 -321 719 -321 l 210 -321 l 210 -203 l 639 -203 q 726 -188 685 -203 q 802 -148 768 -174 q 862 -87 836 -122 q 901 -10 888 -51 q 815 -27 860 -26 q 728 -11 769 -28 q 653 39 686 6 q 604 124 621 72 l 361 861 q 314 920 347 903 q 245 933 281 938 q 183 901 210 928 q 156 828 156 874 l 156 -26 l 38 -26 l 38 828 q 65 942 38 894 q 134 1015 92 989 q 228 1049 176 1042 q 328 1041 279 1056 q 416 991 376 1026 q 475 899 456 956 l 717 163 q 763 104 731 122 q 829 90 796 86 q 888 121 863 94 q 914 194 914 147 l 914 1054 l 1032 1054 z "},"ŗ":{"ha":526,"x_min":38,"x_max":590,"o":"m 38 500 q 62 641 38 578 q 131 749 86 704 q 238 819 175 794 q 376 844 300 844 l 590 844 l 590 726 l 376 726 q 286 710 326 726 q 217 663 246 693 q 172 592 188 633 q 156 500 156 550 l 156 -26 l 38 -26 l 38 500 m 221 -83 l 153 -451 l 44 -451 l 103 -83 l 221 -83 z "},"ĩ":{"ha":267,"x_min":-150,"x_max":414,"o":"m 86 793 l 204 793 l 204 -26 l 86 -26 l 86 793 m 414 1085 q 404 1002 414 1040 q 376 935 394 964 q 328 889 357 906 q 263 872 300 872 q 186 887 218 872 q 128 919 154 901 q 78 951 101 936 q 26 965 54 965 q -43 872 -43 965 l -150 872 q -140 954 -150 915 q -111 1022 -131 993 q -63 1068 -92 1051 q 3 1085 -35 1085 q 72 1070 42 1085 q 127 1038 101 1056 q 178 1005 153 1019 q 238 990 204 990 q 288 1014 269 990 q 307 1085 307 1038 l 414 1085 z "},"ē":{"ha":796,"x_min":38,"x_max":783,"o":"m 224 149 q 288 107 251 122 q 365 92 324 92 l 778 92 l 778 -26 l 365 -26 q 238 -1 297 -26 q 133 70 178 25 q 63 175 89 115 q 38 301 38 235 l 38 514 q 63 642 38 582 q 133 747 89 701 q 238 818 178 792 q 365 844 297 844 l 581 844 q 706 810 657 844 q 769 726 754 776 q 763 617 783 675 q 683 513 743 560 l 224 149 m 156 310 q 158 281 156 294 q 167 257 161 267 l 611 604 q 647 645 636 624 q 655 685 658 667 q 633 715 651 703 q 581 726 615 726 l 365 726 q 283 710 321 726 q 217 665 244 693 q 172 597 189 636 q 156 514 156 558 l 156 310 m 654 913 l 150 913 l 150 1031 l 654 1031 l 654 913 z "},"ŧ":{"ha":647,"x_min":36,"x_max":686,"o":"m 568 914 l 246 914 l 246 844 l 667 844 l 667 726 l 246 726 l 246 338 q 297 146 246 201 q 464 92 343 92 l 686 92 l 686 -26 l 464 -26 q 209 60 290 -26 q 128 338 128 147 l 128 726 l 36 726 l 36 844 l 128 844 l 128 914 l 64 914 l 64 1032 l 128 1032 l 128 1054 l 246 1054 l 246 1032 l 568 1032 l 568 914 z "},"Ḃ":{"ha":918,"x_min":38,"x_max":888,"o":"m 804 379 q 875 251 863 321 q 861 119 888 181 q 775 15 835 57 q 628 -26 715 -26 l 38 -26 l 38 1054 l 593 1054 q 726 1018 672 1054 q 804 928 781 982 q 815 813 828 875 q 749 699 803 751 l 615 568 l 804 379 m 156 292 l 665 783 q 696 835 690 808 q 691 884 701 861 q 655 922 681 907 q 593 936 629 936 l 156 936 l 156 292 m 628 92 q 705 111 672 92 q 752 160 738 131 q 760 226 767 190 q 719 296 753 263 l 531 485 l 156 128 l 156 92 l 628 92 m 351 1189 q 376 1247 351 1222 q 433 1272 401 1272 q 490 1247 465 1272 q 515 1189 515 1222 q 490 1132 515 1157 q 433 1107 465 1107 q 376 1132 401 1107 q 351 1189 351 1157 z "},"ḃ":{"ha":790,"x_min":38,"x_max":757,"o":"m 431 844 q 563 816 503 844 q 667 740 624 788 q 733 628 710 692 q 757 493 757 564 l 757 192 q 739 106 757 146 q 690 37 721 67 q 617 -10 658 7 q 528 -26 575 -26 l 38 -26 l 38 1054 l 156 1054 l 156 844 l 431 844 m 638 493 q 621 585 638 543 q 576 659 604 628 q 511 708 549 690 q 431 726 474 726 l 156 726 l 156 92 l 528 92 q 569 100 550 92 q 604 122 589 108 q 628 153 619 135 q 638 192 638 171 l 638 493 m 272 1103 q 297 1161 272 1136 q 354 1186 322 1186 q 411 1161 386 1186 q 436 1103 436 1136 q 411 1046 436 1071 q 354 1021 386 1021 q 297 1046 322 1021 q 272 1103 272 1071 z "},"Ḋ":{"ha":869,"x_min":38,"x_max":832,"o":"m 475 1054 q 615 1024 550 1054 q 728 940 679 993 q 804 815 776 886 q 832 663 832 743 l 832 243 q 813 138 832 188 q 759 53 793 89 q 680 -5 725 17 q 583 -26 635 -26 l 38 -26 l 38 1054 l 475 1054 m 714 663 q 695 768 714 718 q 644 856 676 818 q 567 915 611 893 q 475 936 524 936 l 156 936 l 156 92 l 583 92 q 635 103 611 92 q 676 136 658 115 q 704 184 694 157 q 714 243 714 211 l 714 663 m 319 1188 q 344 1246 319 1221 q 401 1271 369 1271 q 458 1246 433 1271 q 483 1188 483 1221 q 458 1131 483 1156 q 401 1106 433 1106 q 344 1131 369 1106 q 319 1188 319 1156 z "},"ḋ":{"ha":808,"x_min":38,"x_max":774,"o":"m 654 1054 l 774 1054 l 774 -26 l 324 -26 q 115 45 192 -26 q 38 240 38 117 l 38 550 q 63 665 38 611 q 131 759 88 719 q 234 822 175 799 q 360 844 293 844 l 654 844 l 654 1054 m 654 726 l 360 726 q 281 713 318 726 q 216 674 244 699 q 172 618 188 650 q 156 550 156 586 l 156 240 q 200 131 156 169 q 324 92 244 92 l 654 92 l 654 726 m 358 1068 q 383 1126 358 1101 q 440 1151 408 1151 q 497 1126 472 1151 q 522 1068 522 1101 q 497 1011 522 1036 q 440 986 472 986 q 383 1011 408 986 q 358 1068 358 1036 z "},"Ḟ":{"ha":742,"x_min":38,"x_max":750,"o":"m 38 688 q 65 829 38 763 q 138 946 92 896 q 246 1025 183 996 q 379 1054 308 1054 l 750 1054 l 750 936 l 379 936 q 292 917 333 936 q 222 863 251 897 q 174 784 192 829 q 156 688 156 739 l 156 489 l 750 489 l 750 369 l 156 369 l 156 -26 l 38 -26 l 38 688 m 288 1185 q 313 1243 288 1218 q 369 1268 338 1268 q 426 1243 401 1268 q 451 1185 451 1218 q 426 1128 451 1153 q 369 1103 401 1103 q 313 1128 338 1103 q 288 1185 288 1153 z "},"ḟ":{"ha":568,"x_min":-10,"x_max":582,"o":"m 286 553 l 582 553 l 582 433 l 286 433 l 286 -26 l 167 -26 l 167 433 l -10 433 l -10 553 l 167 553 l 167 736 q 192 859 167 801 q 263 960 218 917 q 368 1029 308 1004 q 496 1054 428 1054 l 579 1054 l 579 936 l 496 936 q 415 920 453 936 q 348 877 376 904 q 303 814 319 850 q 286 736 286 778 l 286 553 m 201 1113 q 226 1171 201 1146 q 283 1196 251 1196 q 340 1171 315 1196 q 365 1113 365 1146 q 340 1056 365 1081 q 283 1031 315 1031 q 226 1056 251 1031 q 201 1113 201 1081 z "},"Ṁ":{"ha":1138,"x_min":38,"x_max":1092,"o":"m 664 1054 q 831 1020 753 1054 q 967 927 908 986 q 1058 790 1025 868 q 1092 622 1092 711 l 1092 -26 l 972 -26 l 972 622 q 949 744 972 688 q 883 844 925 801 q 786 912 842 888 q 667 936 731 936 l 631 936 l 631 -26 l 513 -26 l 513 936 l 286 936 q 193 901 231 936 q 156 815 156 865 l 156 -26 l 38 -26 l 38 815 q 57 908 38 864 q 110 984 76 951 q 188 1035 143 1017 q 286 1054 233 1054 l 664 1054 m 485 1193 q 510 1251 485 1226 q 567 1276 535 1276 q 624 1251 599 1276 q 649 1193 649 1226 q 624 1136 649 1161 q 567 1111 599 1111 q 510 1136 535 1111 q 485 1193 485 1161 z "},"ṁ":{"ha":976,"x_min":38,"x_max":936,"o":"m 568 844 q 710 817 643 844 q 828 742 778 789 q 907 630 878 694 q 936 493 936 565 l 936 -26 l 817 -26 l 817 493 q 797 585 817 542 q 744 659 778 628 q 665 708 711 690 q 568 726 619 726 l 544 726 l 544 -26 l 426 -26 l 426 726 l 286 726 q 230 714 254 726 q 189 681 206 701 q 164 635 172 660 q 156 585 156 610 l 156 -26 l 38 -26 l 38 585 q 53 678 38 632 q 101 762 69 725 q 178 822 132 799 q 286 844 225 844 l 568 844 m 404 968 q 429 1026 404 1001 q 486 1051 454 1051 q 543 1026 518 1051 q 568 968 568 1001 q 543 911 568 936 q 486 886 518 886 q 429 911 454 886 q 404 968 404 936 z "},"Ṗ":{"ha":889,"x_min":38,"x_max":907,"o":"m 618 1054 q 715 1042 669 1054 q 797 1007 761 1029 q 858 953 833 985 q 894 883 883 921 q 902 794 907 838 q 878 711 897 751 q 826 635 858 671 q 750 568 793 599 l 156 181 l 156 -26 l 38 -26 l 38 1054 l 618 1054 m 683 667 q 729 703 708 683 q 765 747 750 724 q 785 794 779 769 q 783 846 790 819 q 728 912 771 888 q 618 936 685 936 l 156 936 l 156 321 q 419 494 290 408 q 683 667 549 579 m 361 1176 q 386 1235 361 1210 q 443 1260 411 1260 q 500 1235 475 1260 q 525 1176 525 1210 q 500 1119 525 1144 q 443 1094 475 1094 q 386 1119 411 1094 q 361 1176 361 1144 z "},"Ṡ":{"ha":882,"x_min":38,"x_max":847,"o":"m 688 465 q 790 383 753 432 q 837 279 826 333 q 833 170 847 225 q 783 72 819 115 q 688 1 746 28 q 554 -26 631 -26 l 38 -26 l 38 92 l 554 92 q 661 122 618 92 q 718 194 704 151 q 712 282 732 236 q 631 360 692 328 l 194 585 q 96 664 132 617 q 49 764 60 711 q 50 868 38 817 q 98 961 63 919 q 190 1028 133 1003 q 324 1054 247 1054 l 785 1054 l 785 936 l 324 936 q 217 908 258 936 q 165 842 176 881 q 174 760 154 803 q 250 689 194 718 l 688 465 m 358 1188 q 383 1246 358 1221 q 440 1271 408 1271 q 497 1246 472 1271 q 522 1188 522 1221 q 497 1131 522 1156 q 440 1106 472 1106 q 383 1131 408 1106 q 358 1188 358 1156 z "},"ṗ":{"ha":821,"x_min":38,"x_max":785,"o":"m 481 844 q 599 822 543 844 q 696 759 654 799 q 761 664 738 719 q 785 544 785 608 l 785 340 q 758 227 785 281 q 686 134 732 174 q 578 72 640 94 q 446 49 517 49 l 156 49 l 156 -161 l 38 -161 l 38 532 q 63 653 38 596 q 133 753 89 710 q 238 820 178 796 q 365 844 297 844 l 481 844 m 667 544 q 655 610 667 578 q 619 669 643 643 q 561 710 596 694 q 481 726 526 726 l 365 726 q 283 711 321 726 q 217 669 244 696 q 172 608 189 643 q 156 532 156 572 l 156 167 l 446 167 q 532 181 492 167 q 602 218 572 194 q 649 273 632 242 q 667 340 667 304 l 667 544 m 331 974 q 356 1032 331 1007 q 413 1057 381 1057 q 469 1032 444 1057 q 494 974 494 1007 q 469 917 494 942 q 413 892 444 892 q 356 917 381 892 q 331 974 331 942 z "},"ṡ":{"ha":803,"x_min":-43,"x_max":843,"o":"m 168 506 q 88 610 107 551 q 88 722 69 669 q 158 809 106 774 q 290 844 210 844 l 843 844 l 843 726 l 290 726 q 233 715 257 726 q 201 687 210 704 q 200 647 192 669 q 239 600 208 624 l 629 306 q 713 202 690 260 q 722 94 736 144 q 659 8 708 43 q 526 -26 610 -26 l -43 -26 l -43 92 l 526 92 q 583 101 561 92 q 609 128 604 111 q 602 165 614 144 q 560 208 590 186 l 168 506 m 318 968 q 343 1026 318 1001 q 400 1051 368 1051 q 457 1026 432 1051 q 482 968 482 1001 q 457 911 482 936 q 400 886 432 886 q 343 911 368 886 q 318 968 318 936 z "},"Ṫ":{"ha":839,"x_min":-75,"x_max":924,"o":"m 365 936 l -75 936 l -75 1054 l 924 1054 l 924 936 l 483 936 l 483 -26 l 365 -26 l 365 936 m 333 1182 q 358 1240 333 1215 q 415 1265 383 1265 q 472 1240 447 1265 q 497 1182 497 1215 q 472 1125 497 1150 q 415 1100 447 1100 q 358 1125 383 1100 q 333 1182 333 1150 z "},"ṫ":{"ha":647,"x_min":36,"x_max":686,"o":"m 297 146 q 464 92 343 92 l 686 92 l 686 -26 l 464 -26 q 209 60 290 -26 q 128 338 128 147 l 128 726 l 36 726 l 36 844 l 128 844 l 128 1054 l 246 1054 l 246 844 l 667 844 l 667 726 l 246 726 l 246 338 q 297 146 246 201 m 117 1179 q 142 1238 117 1213 q 199 1263 167 1263 q 256 1238 231 1263 q 281 1179 281 1213 q 256 1122 281 1147 q 199 1097 231 1097 q 142 1122 167 1097 q 117 1179 117 1147 z "},"Ẁ":{"ha":1367,"x_min":-31,"x_max":1374,"o":"m 1374 1054 l 1188 131 q 1115 15 1171 56 q 989 -26 1060 -26 q 862 15 917 -26 q 792 131 807 56 l 672 714 l 553 131 q 482 15 536 56 q 357 -26 428 -26 q 230 15 286 -26 q 157 131 174 56 l -31 1054 l 89 1054 l 274 160 q 303 110 281 128 q 357 92 325 92 q 408 110 385 92 q 438 160 431 128 l 621 1054 l 724 1054 l 906 158 q 936 109 913 126 q 989 92 960 92 q 1040 109 1017 92 q 1071 158 1064 126 l 1254 1054 l 1374 1054 m 704 1082 l 538 1364 l 663 1364 l 828 1082 l 704 1082 z "},"Ẃ":{"ha":1367,"x_min":-31,"x_max":1374,"o":"m 1374 1054 l 1188 131 q 1115 15 1171 56 q 989 -26 1060 -26 q 862 15 917 -26 q 792 131 807 56 l 672 714 l 553 131 q 482 15 536 56 q 357 -26 428 -26 q 230 15 286 -26 q 157 131 174 56 l -31 1054 l 89 1054 l 274 160 q 303 110 281 128 q 357 92 325 92 q 408 110 385 92 q 438 160 431 128 l 621 1054 l 724 1054 l 906 158 q 936 109 913 126 q 989 92 960 92 q 1040 109 1017 92 q 1071 158 1064 126 l 1254 1054 l 1374 1054 m 538 1082 l 704 1364 l 828 1364 l 663 1082 l 538 1082 z "},"Ỳ":{"ha":722,"x_min":-58,"x_max":785,"o":"m 785 1054 l 564 500 q 506 419 543 451 q 424 372 469 386 l 424 -26 l 304 -26 l 304 371 q 219 418 256 385 q 163 500 183 451 l -58 1054 l 68 1054 l 272 547 q 309 499 285 517 q 364 482 333 482 q 419 499 393 482 q 456 546 444 517 l 656 1054 l 785 1054 m 382 1082 l 215 1364 l 340 1364 l 506 1082 l 382 1082 z "},"Ŵ":{"ha":1367,"x_min":-31,"x_max":1374,"o":"m 1374 1054 l 1188 131 q 1115 15 1171 56 q 989 -26 1060 -26 q 862 15 917 -26 q 792 131 807 56 l 672 714 l 553 131 q 482 15 536 56 q 357 -26 428 -26 q 230 15 286 -26 q 157 131 174 56 l -31 1054 l 89 1054 l 274 160 q 303 110 281 128 q 357 92 325 92 q 408 110 385 92 q 438 160 431 128 l 621 1054 l 724 1054 l 906 158 q 936 109 913 126 q 989 92 960 92 q 1040 109 1017 92 q 1071 158 1064 126 l 1254 1054 l 1374 1054 m 436 1082 l 632 1339 l 733 1339 l 928 1082 l 801 1082 l 683 1239 l 564 1082 l 436 1082 z "},"ŵ":{"ha":1089,"x_min":-19,"x_max":1100,"o":"m 981 844 l 1100 844 l 949 103 q 890 7 933 40 q 788 -26 846 -26 q 683 7 726 -26 q 624 103 639 40 l 540 501 q 499 302 519 401 q 460 103 479 203 q 401 7 444 40 q 296 -26 357 -26 q 193 7 238 -26 q 133 103 149 40 l -19 844 l 101 844 l 247 131 q 269 101 254 110 q 296 92 283 92 q 323 99 310 92 q 343 131 336 107 l 489 844 l 590 844 l 736 135 q 759 101 744 111 q 788 92 774 92 q 815 99 801 92 q 835 131 828 107 l 981 844 m 297 872 l 493 1129 l 594 1129 l 789 872 l 663 872 l 544 1029 l 425 872 l 297 872 z "},"ẁ":{"ha":1089,"x_min":-19,"x_max":1100,"o":"m 981 844 l 1100 844 l 949 103 q 890 7 933 40 q 788 -26 846 -26 q 683 7 726 -26 q 624 103 639 40 l 540 501 q 499 302 519 401 q 460 103 479 203 q 401 7 444 40 q 296 -26 357 -26 q 193 7 238 -26 q 133 103 149 40 l -19 844 l 101 844 l 247 131 q 269 101 254 110 q 296 92 283 92 q 323 99 310 92 q 343 131 336 107 l 489 844 l 590 844 l 736 135 q 759 101 744 111 q 788 92 774 92 q 815 99 801 92 q 835 131 828 107 l 981 844 m 565 872 l 399 1154 l 524 1154 l 689 872 l 565 872 z "},"ẃ":{"ha":1089,"x_min":-19,"x_max":1100,"o":"m 981 844 l 1100 844 l 949 103 q 890 7 933 40 q 788 -26 846 -26 q 683 7 726 -26 q 624 103 639 40 l 540 501 q 499 302 519 401 q 460 103 479 203 q 401 7 444 40 q 296 -26 357 -26 q 193 7 238 -26 q 133 103 149 40 l -19 844 l 101 844 l 247 131 q 269 101 254 110 q 296 92 283 92 q 323 99 310 92 q 343 131 336 107 l 489 844 l 590 844 l 736 135 q 759 101 744 111 q 788 92 774 92 q 815 99 801 92 q 835 131 828 107 l 981 844 m 399 872 l 565 1154 l 689 1154 l 524 872 l 399 872 z "},"ỳ":{"ha":756,"x_min":-17,"x_max":779,"o":"m -17 844 l 106 844 l 263 233 q 328 133 281 167 q 450 94 375 100 l 658 844 l 779 844 l 467 -279 l 346 -279 l 418 -22 q 247 42 314 -12 q 153 201 181 97 l -17 844 m 399 872 l 232 1154 l 357 1154 l 522 872 l 399 872 z "},"ẅ":{"ha":1089,"x_min":-19,"x_max":1100,"o":"m 981 844 l 1100 844 l 949 103 q 890 7 933 40 q 788 -26 846 -26 q 683 7 726 -26 q 624 103 639 40 l 540 501 q 499 302 519 401 q 460 103 479 203 q 401 7 444 40 q 296 -26 357 -26 q 193 7 238 -26 q 133 103 149 40 l -19 844 l 101 844 l 247 131 q 269 101 254 110 q 296 92 283 92 q 323 99 310 92 q 343 131 336 107 l 489 844 l 590 844 l 736 135 q 759 101 744 111 q 788 92 774 92 q 815 99 801 92 q 835 131 828 107 l 981 844 m 324 978 q 349 1036 324 1011 q 406 1061 374 1061 q 463 1036 438 1061 q 488 978 488 1011 q 463 921 488 946 q 406 896 438 896 q 349 921 374 896 q 324 978 324 946 m 600 978 q 625 1036 600 1011 q 682 1061 650 1061 q 739 1036 714 1061 q 764 978 764 1011 q 739 921 764 946 q 682 896 714 896 q 625 921 650 896 q 600 978 600 946 z "},"Ẅ":{"ha":1367,"x_min":-31,"x_max":1374,"o":"m 1374 1054 l 1188 131 q 1115 15 1171 56 q 989 -26 1060 -26 q 862 15 917 -26 q 792 131 807 56 l 672 714 l 553 131 q 482 15 536 56 q 357 -26 428 -26 q 230 15 286 -26 q 157 131 174 56 l -31 1054 l 89 1054 l 274 160 q 303 110 281 128 q 357 92 325 92 q 408 110 385 92 q 438 160 431 128 l 621 1054 l 724 1054 l 906 158 q 936 109 913 126 q 989 92 960 92 q 1040 109 1017 92 q 1071 158 1064 126 l 1254 1054 l 1374 1054 m 463 1188 q 488 1246 463 1221 q 544 1271 513 1271 q 601 1246 576 1271 q 626 1188 626 1221 q 601 1131 626 1156 q 544 1106 576 1106 q 488 1131 513 1106 q 463 1188 463 1156 m 739 1188 q 764 1246 739 1221 q 821 1271 789 1271 q 878 1246 853 1271 q 903 1188 903 1221 q 878 1131 903 1156 q 821 1106 853 1106 q 764 1131 789 1106 q 739 1188 739 1156 z "},"Ŷ":{"ha":722,"x_min":-58,"x_max":785,"o":"m 785 1054 l 564 500 q 506 419 543 451 q 424 372 469 386 l 424 -26 l 304 -26 l 304 371 q 219 418 256 385 q 163 500 183 451 l -58 1054 l 68 1054 l 272 547 q 309 499 285 517 q 364 482 333 482 q 419 499 393 482 q 456 546 444 517 l 656 1054 l 785 1054 m 114 1082 l 310 1339 l 411 1339 l 606 1082 l 479 1082 l 361 1239 l 242 1082 l 114 1082 z "},"ŷ":{"ha":756,"x_min":-17,"x_max":779,"o":"m -17 844 l 106 844 l 263 233 q 328 133 281 167 q 450 94 375 100 l 658 844 l 779 844 l 467 -279 l 346 -279 l 418 -22 q 247 42 314 -12 q 153 201 181 97 l -17 844 m 131 872 l 326 1129 l 428 1129 l 622 872 l 496 872 l 378 1029 l 258 872 l 131 872 z "}}}
